<svg width="50" height="50" viewBox="0 0 50 50" fill="none" xmlns="http://www.w3.org/2000/svg">
<path fill-rule="evenodd" clip-rule="evenodd" d="M24.0353 3.58838C27.2183 3.76243 30.4034 -0.64605 33.2571 1.06806C36.1635 2.81372 35.2751 8.60142 37.3707 11.5982C39.3813 14.4735 42.9862 15.0182 45.0119 17.878C47.373 21.2113 50.1086 25.0355 49.9967 29.423C49.8863 33.7509 46.4662 36.8032 44.4381 40.3711C42.5314 43.7256 41.669 49.3563 38.3377 49.9343C34.1668 50.6578 31.003 45.2086 27.0686 43.3843C25.201 42.5183 23.148 42.7485 21.2438 42.0082C19.4591 41.3143 18.0772 39.2558 16.2042 39.1603C11.6087 38.9258 5.58304 45.342 2.64688 41.0594C0.00646229 37.2081 9.13739 33.0459 8.60994 28.0835C8.06342 22.9415 0.742951 21.8161 0.0576512 16.6985C-0.502328 12.5167 3.13963 9.04891 5.6686 6.11841C8.12772 3.26884 11.051 0.504918 14.4346 0.0388304C17.7962 -0.424235 20.6554 3.40357 24.0353 3.58838Z" fill="url(#paint0_linear_6_98)"/>
<defs>
<linearGradient id="paint0_linear_6_98" x1="25" y1="0" x2="25" y2="50" gradientUnits="userSpaceOnUse">
<stop stop-color="#C0C0C0"/>
<stop offset="1" stop-color="#DDDDDD"/>
</linearGradient>
</defs>
</svg>
