<svg width="51" height="50" viewBox="0 0 51 50" fill="none" xmlns="http://www.w3.org/2000/svg">
<path fill-rule="evenodd" clip-rule="evenodd" d="M25.1275 1.01067C27.7286 1.72936 29.1196 5.33453 31.8176 5.38653C37.2735 5.49168 42.4988 -0.753985 47.4944 1.44174C51.3304 3.12777 51.2211 9.42997 50.3349 13.5254C49.4518 17.6057 45.7546 20.3918 42.7632 23.304C40.7533 25.2607 38.2363 26.4677 35.7355 27.7384C33.9533 28.644 31.3016 28.0767 30.1519 29.7121C27.4251 33.5912 28.459 39.4552 25.1275 42.8291C21.3147 46.6904 15.6273 51.4565 10.5367 49.5768C5.70338 47.792 6.93663 40.1265 4.94259 35.3757C3.4486 31.8163 -1.00709 28.6309 0.207194 24.9667C1.71505 20.4165 7.94148 19.527 11.3211 16.1276C12.8021 14.6378 13.7101 12.6996 14.3816 10.7092C15.4385 7.57658 13.9293 3.33713 16.3836 1.12203C18.575 -0.855723 22.2822 0.224512 25.1275 1.01067Z" fill="url(#paint0_linear_4_13)"/>
<defs>
<linearGradient id="paint0_linear_4_13" x1="25.4225" y1="0" x2="25.4225" y2="50" gradientUnits="userSpaceOnUse">
<stop stop-color="#C0C0C0"/>
<stop offset="1" stop-color="#DDDDDD"/>
</linearGradient>
</defs>
</svg>
