<svg width="76" height="63" viewBox="0 0 76 63" fill="none" xmlns="http://www.w3.org/2000/svg">
<path d="M52.0697 57.2484C65.1403 50.0032 72.4704 36.9141 71.4737 24.7629C71.5566 24.7209 71.6389 24.6773 71.7207 24.6319C76.0681 22.2221 77.2047 15.9612 74.2594 10.6478C71.3141 5.33439 65.4023 2.98051 61.0549 5.39029C60.8368 5.51119 60.6268 5.6418 60.4249 5.78149C50.6444 -0.914749 36.1535 -1.38699 23.4659 5.64583C10.7915 12.6714 3.5149 25.192 3.9942 37.024C-0.178598 39.517 -1.23098 45.6603 1.66615 50.8868C4.4649 55.9359 9.94234 58.3126 14.2107 56.4689C23.9867 63.7723 38.987 64.5003 52.0697 57.2484Z" fill="#5A5A5A"/>
</svg>
