<svg width="50" height="50" viewBox="0 0 50 50" fill="none" xmlns="http://www.w3.org/2000/svg">
<path fill-rule="evenodd" clip-rule="evenodd" d="M24.5284 0.0777752C28.895 0.920709 28.429 8.08868 32.5583 9.62693C36.8746 11.2349 42.2692 6.08556 46.3149 8.19373C49.7999 10.0097 50.5009 14.9892 49.7013 18.5599C48.853 22.3479 44.2522 24.3732 41.9616 27.6337C40.6621 29.4835 39.6012 31.4615 39.1268 33.6119C38.413 36.8475 40.1077 40.4309 38.4867 43.3854C36.8285 46.4076 33.8443 50.4229 30.1548 49.9639C25.7001 49.4097 24.2361 43.9925 20.9563 41.2046C19.2382 39.7442 17.5069 38.2963 15.3705 37.3972C12.6532 36.2536 8.61527 37.4104 6.80281 35.2484C5.08634 33.2008 8.17135 30.0348 7.17914 27.6257C5.74892 24.153 0.254045 22.4524 0.00888931 18.7523C-0.204535 15.5312 3.47121 13.1151 6.07166 10.911C8.57539 8.78886 11.9388 7.89074 14.8161 6.2019C18.163 4.23744 20.6285 -0.675089 24.5284 0.0777752Z" fill="url(#paint0_linear_4_58)"/>
<defs>
<linearGradient id="paint0_linear_4_58" x1="25" y1="0" x2="25" y2="50" gradientUnits="userSpaceOnUse">
<stop stop-color="#C0C0C0"/>
<stop offset="1" stop-color="#DDDDDD"/>
</linearGradient>
</defs>
</svg>
