<svg width="50" height="50" viewBox="0 0 50 50" fill="none" xmlns="http://www.w3.org/2000/svg">
<path fill-rule="evenodd" clip-rule="evenodd" d="M25.7658 1.20642C29.2946 -0.95778 34.5178 0.116822 38.3037 1.86919C42.0854 3.61964 44.3106 7.34262 46.389 10.7523C48.2592 13.8204 49.2466 17.233 49.7942 20.7196C50.2941 23.9019 49.7652 27.0535 49.4527 30.2562C49.1366 33.4954 50.9238 38.1002 47.9322 39.8033C44.0157 42.0329 38.3953 36.8802 34.3288 38.8662C31.0662 40.4596 33.2451 46.1186 30.446 48.3431C27.9515 50.3255 24.0167 50.2121 20.7916 49.6245C17.5581 49.0354 15.3999 46.2125 12.3542 45.0471C8.36339 43.5202 0.737795 45.6439 0.0641937 41.6937C-0.793109 36.6663 7.17556 34.0322 9.70534 29.5139C10.7489 27.6499 10.4374 25.4112 10.3553 23.313C10.2324 20.1698 6.93047 16.4722 9.10072 14.053C11.2206 11.6901 16.3881 15.7117 18.9376 13.7464C22.8656 10.7185 21.5049 3.81967 25.7658 1.20642Z" fill="url(#paint0_linear_6_105)"/>
<defs>
<linearGradient id="paint0_linear_6_105" x1="25" y1="0" x2="25" y2="50" gradientUnits="userSpaceOnUse">
<stop stop-color="#C0C0C0"/>
<stop offset="1" stop-color="#DDDDDD"/>
</linearGradient>
</defs>
</svg>
