<svg width="75" height="89" viewBox="0 0 75 89" fill="none" xmlns="http://www.w3.org/2000/svg">
<path d="M40.972 8.8265C40.2107 10.1451 39.7171 11.4415 39.4356 12.6886C38.9987 11.9793 38.4923 11.2999 37.9177 10.6618C37.1786 9.8409 35.914 9.77463 35.0932 10.5137C34.2723 11.2528 34.2061 12.5174 34.9452 13.3383C38.394 17.1686 38.1755 22.5404 35.0222 25.3796C34.2013 26.1187 34.135 27.3833 34.8741 28.2042C35.6132 29.025 36.8778 29.0913 37.6987 28.3522C39.6262 26.6167 40.7962 24.3886 41.2467 22.0077C41.8934 22.8975 42.6097 23.564 43.2751 23.9481C46.0335 25.5407 53.4325 25.4657 57.5224 18.3818C61.6122 11.298 58.4915 1.83937 56.6526 0.777668C54.8136 -0.284036 45.0619 1.74262 40.972 8.8265Z" fill="#5A5A5A"/>
<path fill-rule="evenodd" clip-rule="evenodd" d="M34.4397 31.9422C30.893 29.4525 26.6032 27.9999 22 27.9999C9.92122 27.9999 0 38.0013 0 50.4999C0 55.3981 1.52374 59.9127 4.10393 63.5922C5.27231 50.1214 16.1502 39.4922 29.5613 39.0165C30.8031 36.3884 32.4578 34.0011 34.4397 31.9422ZM23.109 31.4675C22.7498 31.1917 22.2502 31.1917 21.891 31.4675L21.19 32.0057C21.1208 32.0588 21.0589 32.1207 21.0058 32.1899L20.4676 32.8909C20.1918 33.2501 20.1918 33.7497 20.4676 34.1089L21.0058 34.8099C21.0589 34.8791 21.1208 34.941 21.19 34.9941L21.891 35.5324C22.2502 35.8081 22.7498 35.8081 23.109 35.5324L23.81 34.9941C23.8792 34.941 23.9411 34.8791 23.9942 34.8099L24.5324 34.1089C24.8082 33.7497 24.8082 33.2501 24.5324 32.8909L23.9942 32.1899C23.9411 32.1207 23.8792 32.0588 23.81 32.0057L23.109 31.4675Z" fill="#5A5A5A"/>
<path fill-rule="evenodd" clip-rule="evenodd" d="M33.9536 39.2271C46.9574 40.9515 57 52.2808 57 65.9999C57 68.3375 56.7085 70.6056 56.1604 72.7687C66.7621 71.2045 75 61.889 75 50.4999C75 38.0013 65.0788 27.9999 53 27.9999C44.9011 27.9999 37.7722 32.4964 33.9536 39.2271ZM56.109 33.4675C55.7498 33.1917 55.2502 33.1917 54.891 33.4675L54.19 34.0057C54.1208 34.0588 54.0589 34.1207 54.0058 34.1899L53.4676 34.8909C53.1918 35.2501 53.1918 35.7497 53.4676 36.1089L54.0058 36.8099C54.0589 36.8791 54.1208 36.941 54.19 36.9941L54.891 37.5324C55.2502 37.8081 55.7498 37.8081 56.109 37.5324L56.81 36.9941C56.8792 36.941 56.9411 36.8791 56.9942 36.8099L57.5324 36.1089C57.8082 35.7497 57.8082 35.2501 57.5324 34.8909L56.9942 34.1899C56.9411 34.1207 56.8792 34.0588 56.81 34.0057L56.109 33.4675Z" fill="#5A5A5A"/>
<path fill-rule="evenodd" clip-rule="evenodd" d="M53 65.9999C53 78.7733 42.8563 88.9999 30.5 88.9999C18.1438 88.9999 8 78.7733 8 65.9999C8 53.2266 18.1438 42.9999 30.5 42.9999C42.8563 42.9999 53 53.2266 53 65.9999ZM28.891 48.4675C29.2502 48.1917 29.7498 48.1917 30.109 48.4675L30.81 49.0057C30.8792 49.0588 30.9411 49.1207 30.9942 49.1899L31.5324 49.8909C31.8082 50.2501 31.8082 50.7497 31.5324 51.1089L30.9942 51.8099C30.9411 51.8791 30.8792 51.941 30.81 51.9941L30.109 52.5324C29.7498 52.8081 29.2502 52.8081 28.891 52.5324L28.19 51.9941C28.1208 51.941 28.0589 51.8791 28.0058 51.8099L27.4676 51.1089C27.1918 50.7497 27.1918 50.2501 27.4676 49.8909L28.0058 49.1899C28.0589 49.1207 28.1208 49.0588 28.19 49.0057L28.891 48.4675Z" fill="#5A5A5A"/>
</svg>
