<svg width="50" height="50" viewBox="0 0 50 50" fill="none" xmlns="http://www.w3.org/2000/svg">
<path fill-rule="evenodd" clip-rule="evenodd" d="M27.0933 9.02998C29.6311 10.0264 32.4853 8.10704 35.2417 8.25282C38.6888 8.43514 43.9174 7.0981 45.3096 9.99342C47.0033 13.516 40.3835 17.0386 41.2747 20.8003C42.038 24.022 48.0318 24.1115 49.3785 27.1686C50.6184 29.9833 49.9221 33.6094 48.0086 36.087C46.0761 38.5892 42.4271 39.4403 39.2221 40.3189C36.4833 41.0696 33.2207 39.4875 30.757 40.8162C26.7594 42.9721 25.9197 49.5676 21.3032 49.9823C17.4438 50.329 15.1798 45.504 13.3288 42.3817C11.7074 39.6467 13.2597 35.9304 11.421 33.3134C9.44897 30.5065 4.6287 30.2395 2.77789 27.3641C0.872847 24.4045 -1.3972 19.8451 1.10368 17.2848C4.25559 14.058 12.0422 18.4111 14.8954 14.9588C18.1404 11.0325 10.3546 2.65413 15.103 0.346183C19.6532 -1.86545 22.3588 7.17119 27.0933 9.02998Z" fill="url(#paint0_linear_6_102)"/>
<defs>
<linearGradient id="paint0_linear_6_102" x1="25" y1="0" x2="25" y2="50" gradientUnits="userSpaceOnUse">
<stop stop-color="#C0C0C0"/>
<stop offset="1" stop-color="#DDDDDD"/>
</linearGradient>
</defs>
</svg>
