<svg width="76" height="85" viewBox="0 0 76 85" fill="none" xmlns="http://www.w3.org/2000/svg">
<path fill-rule="evenodd" clip-rule="evenodd" d="M37.8593 0.150042L7.51611 61.1525C26.6259 70.4542 49.1862 70.2795 68.1664 60.6285L38.0092 0.00012207L37.8593 0.150042ZM38 54C37.4477 54 37 54.4477 37 55V57C37 57.5523 37.4477 58 38 58C38.5523 58 39 57.5523 39 57V55C39 54.4477 38.5523 54 38 54ZM46 45C46 44.4477 46.4477 44 47 44C47.5523 44 48 44.4477 48 45V47C48 47.5523 47.5523 48 47 48C46.4477 48 46 47.5523 46 47V45ZM42 30C41.4477 30 41 30.4477 41 31V33C41 33.5523 41.4477 34 42 34C42.5523 34 43 33.5523 43 33V31C43 30.4477 42.5523 30 42 30ZM30 32C30 31.4477 30.4477 31 31 31C31.5523 31 32 31.4477 32 32V34C32 34.5523 31.5523 35 31 35C30.4477 35 30 34.5523 30 34V32ZM28 46C27.4477 46 27 46.4477 27 47V49C27 49.5523 27.4477 50 28 50C28.5523 50 29 49.5523 29 49V47C29 46.4477 28.5523 46 28 46ZM34 41C34 40.4477 34.4477 40 35 40C35.5523 40 36 40.4477 36 41V43C36 43.5523 35.5523 44 35 44C34.4477 44 34 43.5523 34 43V41Z" fill="#5A5A5A" fill-opacity="0.89"/>
<path d="M5.42907 65.0999L0 76.0146C23.7704 87.8747 51.9403 87.9024 75.7313 76.0976L70.0216 64.6189C49.7982 74.8715 25.7715 75.0318 5.42907 65.0999Z" fill="#5A5A5A" fill-opacity="0.89"/>
</svg>
