<svg width="50" height="43" viewBox="0 0 50 43" fill="none" xmlns="http://www.w3.org/2000/svg">
<path fill-rule="evenodd" clip-rule="evenodd" d="M21.7796 0.0241181C24.6473 -0.422451 25.1801 5.47503 28.0501 5.90603C32.7162 6.60677 38.7315 -0.626258 41.7266 3.01968C44.6952 6.63347 34.4697 11.2703 36.0675 15.6657C38.0075 21.0028 48.2452 19.8795 49.8366 25.3307C51.0189 29.3803 45.5271 33.1187 41.6443 34.7684C37.7437 36.4256 33.276 33.3862 29.1053 34.1387C26.2978 34.6452 24.3903 37.2023 21.7796 38.3525C18.0872 39.9792 14.159 44.0502 10.5085 42.3315C6.87445 40.6206 8.41799 34.6502 6.46303 31.1414C4.88498 28.3091 -1.20251 26.7675 0.211231 23.8497C2.38817 19.3567 11.5078 21.6485 13.3171 16.9953C14.7821 13.2274 5.50767 10.8009 6.77717 6.96276C7.79871 3.87425 13.4315 9.08833 16.384 7.72276C19.2644 6.3906 18.6439 0.512433 21.7796 0.0241181Z" fill="url(#paint0_linear_4_39)"/>
<defs>
<linearGradient id="paint0_linear_4_39" x1="25" y1="0" x2="25" y2="42.7466" gradientUnits="userSpaceOnUse">
<stop stop-color="#C0C0C0"/>
<stop offset="1" stop-color="#DDDDDD"/>
</linearGradient>
</defs>
</svg>
