<svg width="50" height="50" viewBox="0 0 50 50" fill="none" xmlns="http://www.w3.org/2000/svg">
<path fill-rule="evenodd" clip-rule="evenodd" d="M22.8003 0.0708881C27.2972 1.08966 25.4886 9.90251 29.6717 11.8334C33.7537 13.7176 38.5026 7.90011 42.7796 9.2931C46.5011 10.5052 50.7104 14.6136 49.8984 18.4211C48.8228 23.4641 40.4294 23.9943 38.6142 28.8233C37.3928 32.0726 43.7835 35.231 42.3849 38.4089C41.0744 41.3868 35.6879 39.2754 33.1254 41.2951C30.403 43.4409 31.1536 50.1501 27.6823 49.9974C23.5896 49.8175 23.1149 43.2422 19.904 40.7137C18.2929 39.4451 16.0474 39.297 13.9935 39.2182C9.44103 39.0436 3.16244 43.6408 0.496356 39.9692C-2.00173 36.5291 5.70226 33.0467 6.4834 28.8759C6.98853 26.1788 4.59661 23.7945 4.02848 21.1098C3.15765 16.9947 -0.430761 12.0335 2.22681 8.76132C4.79996 5.59304 10.6062 9.96092 14.3766 8.36827C18.0552 6.81441 18.9032 -0.811997 22.8003 0.0708881Z" fill="url(#paint0_linear_6_113)"/>
<defs>
<linearGradient id="paint0_linear_6_113" x1="25" y1="0" x2="25" y2="50" gradientUnits="userSpaceOnUse">
<stop stop-color="#C0C0C0"/>
<stop offset="1" stop-color="#DDDDDD"/>
</linearGradient>
</defs>
</svg>
