<svg width="47" height="50" viewBox="0 0 47 50" fill="none" xmlns="http://www.w3.org/2000/svg">
<path fill-rule="evenodd" clip-rule="evenodd" d="M22.4637 2.15043C25.3089 1.45622 28.9895 -1.33086 31.0291 0.770825C33.5297 3.34744 28.6257 9.16897 31.4394 11.3993C35.4573 14.5841 45.7359 7.99864 46.5363 13.0628C47.3642 18.3012 33.6527 15.6939 32.949 20.9504C32.1472 26.939 46.8473 30.3099 43.5495 35.3726C40.3947 40.2156 33.0504 27.3128 27.5831 29.1879C22.9979 30.7604 25.907 39.1923 22.4637 42.604C18.7099 46.3234 11.0748 52.8894 7.99974 48.5919C3.75966 42.6662 10.6411 34.5283 11.5085 27.2937C11.7573 25.2187 12.5555 22.7734 11.2952 21.1064C8.75474 17.7461 3.06268 17.512 1.2416 13.7134C-0.394802 10.3001 -0.789464 4.59266 2.40392 2.56011C6.23069 0.124403 11.1642 4.60378 15.6994 4.51116C18.1174 4.46178 20.1142 2.72369 22.4637 2.15043Z" fill="url(#paint0_linear_4_44)"/>
<defs>
<linearGradient id="paint0_linear_4_44" x1="23.2861" y1="0" x2="23.2861" y2="50" gradientUnits="userSpaceOnUse">
<stop stop-color="#C0C0C0"/>
<stop offset="1" stop-color="#DDDDDD"/>
</linearGradient>
</defs>
</svg>
