<svg width="50" height="50" viewBox="0 0 50 50" fill="none" xmlns="http://www.w3.org/2000/svg">
<path fill-rule="evenodd" clip-rule="evenodd" d="M22.5498 8.10338C26.9072 5.76986 29.8861 -0.903144 34.7734 0.10243C39.0644 0.985338 36.8317 8.3749 39.6056 11.6127C42.1956 14.6359 49.1075 13.9415 49.9068 17.767C50.7599 21.85 45.5426 24.8323 43.0876 28.2781C41.4841 30.5288 39.479 32.3919 37.8811 34.6462C36.3938 36.7444 35.4132 39.044 33.9557 41.1611C31.9865 44.0217 31.0335 48.0575 27.7265 49.3967C24.5842 50.6693 20.3374 49.8424 17.7464 47.7255C14.9025 45.4019 15.6641 40.8927 13.6422 37.8894C12.4392 36.1027 9.81812 35.6499 8.47555 33.9556C7.07053 32.1825 6.83216 29.8641 5.73125 27.9062C4.05455 24.9241 -1.20619 22.4152 0.252732 19.3312C1.8167 16.0252 7.90203 18.3554 11.1479 16.4563C13.2746 15.2119 13.2468 12.0204 15.225 10.5711C17.3 9.05107 20.2677 9.32551 22.5498 8.10338Z" fill="url(#paint0_linear_6_101)"/>
<defs>
<linearGradient id="paint0_linear_6_101" x1="25" y1="0" x2="25" y2="50" gradientUnits="userSpaceOnUse">
<stop stop-color="#C0C0C0"/>
<stop offset="1" stop-color="#DDDDDD"/>
</linearGradient>
</defs>
</svg>
