<svg width="50" height="50" viewBox="0 0 50 50" fill="none" xmlns="http://www.w3.org/2000/svg">
<path fill-rule="evenodd" clip-rule="evenodd" d="M29.6072 0.00398686C33.376 -0.109128 37.3161 2.19831 39.3536 5.19687C41.5279 8.39666 39.7859 12.7112 40.7504 16.4031C41.2504 18.3167 42.3722 20.0085 43.6336 21.5783C45.5172 23.9224 49.8585 24.9705 49.9976 27.9109C50.1262 30.6298 45.0476 31.2507 44.2145 33.8559C43.0428 37.5205 46.3851 41.8418 44.4652 45.2127C42.7554 48.2148 38.6282 49.7747 35.0277 49.9865C31.4168 50.1988 28.252 47.8613 25.003 46.3573C22.2708 45.0926 20.2194 42.8047 17.3648 41.8104C13.3429 40.4094 8.18766 41.9739 4.91329 39.3596C1.84557 36.9103 1.52833 32.4889 0.980404 28.7291C0.42413 24.9119 -1.25652 19.9685 1.70089 17.3161C5.38898 14.0084 12.3065 17.4242 16.5449 14.77C19.4028 12.9803 17.9336 8.25955 20.1326 5.77377C22.569 3.01954 25.8106 0.117938 29.6072 0.00398686Z" fill="url(#paint0_linear_6_100)"/>
<defs>
<linearGradient id="paint0_linear_6_100" x1="25" y1="0" x2="25" y2="50" gradientUnits="userSpaceOnUse">
<stop stop-color="#C0C0C0"/>
<stop offset="1" stop-color="#DDDDDD"/>
</linearGradient>
</defs>
</svg>
