<svg width="45" height="50" viewBox="0 0 45 50" fill="none" xmlns="http://www.w3.org/2000/svg">
<path fill-rule="evenodd" clip-rule="evenodd" d="M18.3081 4.34016C21.2686 5.63797 22.9983 9.17325 26.1673 9.81106C30.8005 10.7436 36.0527 6.33504 40.1262 8.73148C43.6654 10.8136 44.6394 16.2276 43.9569 20.2767C43.2565 24.4316 39.5674 27.3999 36.4935 30.2816C34.3321 32.3078 30.0731 31.8205 28.793 34.4923C26.9489 38.3415 30.8981 43.6549 28.4211 47.1308C26.3986 49.9688 21.4148 50.7841 18.3081 49.2053C14.6917 47.3677 15.6193 41.0107 12.1715 38.8735C9.26028 37.069 4.77373 41.1612 2.02774 39.114C-0.42142 37.288 -0.280058 33.1371 0.524098 30.1899C1.3176 27.2818 4.94162 26.0763 6.31706 23.394C7.27339 21.529 7.16998 19.3389 7.16298 17.243C7.14474 11.777 2.66956 5.21319 6.24258 1.07666C9.00061 -2.11635 14.4438 2.64619 18.3081 4.34016Z" fill="url(#paint0_linear_4_28)"/>
<defs>
<linearGradient id="paint0_linear_4_28" x1="22.0802" y1="0" x2="22.0802" y2="50" gradientUnits="userSpaceOnUse">
<stop stop-color="#C0C0C0"/>
<stop offset="1" stop-color="#DDDDDD"/>
</linearGradient>
</defs>
</svg>
