<svg width="47" height="50" viewBox="0 0 47 50" fill="none" xmlns="http://www.w3.org/2000/svg">
<path fill-rule="evenodd" clip-rule="evenodd" d="M25.2632 6.65896C29.4406 5.5546 33.9641 -2.56328 36.6533 0.818757C40.2164 5.29998 31.296 12.4756 33.9301 17.5589C35.8949 21.3506 44.1955 15.9916 46.4082 19.6442C48.2135 22.6244 41.7735 24.7767 40.1794 27.875C39.0452 30.0792 40.4163 33.4558 38.4954 35.0228C36.436 36.7027 32.5691 33.8148 30.6473 35.6506C27.4342 38.7201 28.8395 45.0255 25.2632 47.663C22.1882 49.9308 15.6354 51.3941 13.9485 47.9658C11.3785 42.743 20.4354 35.7539 17.0672 31.0066C13.957 26.623 5.2535 33.4726 1.17872 29.9676C-1.56483 27.6076 0.975169 21.8699 3.76377 19.5633C7.09503 16.808 13.4135 20.5303 16.3848 17.3902C18.9902 14.6368 14.0295 9.08162 16.4459 6.16099C18.3462 3.86404 22.3811 7.42092 25.2632 6.65896Z" fill="url(#paint0_linear_4_18)"/>
<defs>
<linearGradient id="paint0_linear_4_18" x1="23.3623" y1="0" x2="23.3623" y2="50" gradientUnits="userSpaceOnUse">
<stop stop-color="#C0C0C0"/>
<stop offset="1" stop-color="#DDDDDD"/>
</linearGradient>
</defs>
</svg>
