<svg width="50" height="50" viewBox="0 0 50 50" fill="none" xmlns="http://www.w3.org/2000/svg">
<path fill-rule="evenodd" clip-rule="evenodd" d="M28.5955 3.9581C30.6622 4.64135 32.6551 4.73125 34.7578 4.83577C39.7359 5.08321 46.4049 -1.94587 49.3955 4.99198C52.0566 11.1654 45.1645 18.086 43.5762 25.2935C42.4491 30.4082 43.9441 37.5971 41.4668 40.9716C38.9042 44.462 35.0303 39.6065 31.9069 41.1886C28.7976 42.7635 26.9991 50.9261 23.8136 49.9133C20.7302 48.933 21.2063 39.4041 18.4207 36.9009C12.7186 31.7769 1.91548 39.4162 0.165215 28.6624C-1.46275 18.66 9.36375 16.426 14.0353 9.95654C16.3586 6.73912 17.8332 1.38514 20.7214 0.195256C23.4247 -0.918461 25.8663 3.05581 28.5955 3.9581Z" fill="url(#paint0_linear_5_78)"/>
<defs>
<linearGradient id="paint0_linear_5_78" x1="25" y1="0" x2="25" y2="50" gradientUnits="userSpaceOnUse">
<stop stop-color="#C0C0C0"/>
<stop offset="1" stop-color="#DDDDDD"/>
</linearGradient>
</defs>
</svg>
