<svg width="50" height="50" viewBox="0 0 50 50" fill="none" xmlns="http://www.w3.org/2000/svg">
<path fill-rule="evenodd" clip-rule="evenodd" d="M25.8513 0.0229255C28.9965 -0.242618 31.8822 1.85625 34.773 3.33674C37.6795 4.82523 42.3436 5.12876 42.9593 8.78447C43.778 13.6465 39.0528 17.4792 37.9609 22.2665C37.4996 24.2893 37.4938 26.7023 38.4738 28.4511C41.5554 33.95 52.2474 37.205 49.5754 42.9923C46.9393 48.7021 38.7882 37.4045 33.4888 39.2484C30.3747 40.332 32.9821 48.3078 29.9947 49.8054C27.3436 51.1343 25.4763 45.2428 22.6329 44.6903C19.5965 44.1003 15.7147 49.3141 13.6514 46.63C11.2932 43.5622 17.1835 37.4089 14.745 34.4291C11.2161 30.1166 1.39528 35.8603 0.102301 30.0729C-1.08072 24.7776 8.3148 25.0906 11.8679 21.5508C13.4405 19.9841 14.1591 17.5707 14.9146 15.3161C16.0646 11.8845 15.4635 7.61986 17.4825 4.79656C19.4998 1.97575 22.7244 0.286924 25.8513 0.0229255Z" fill="url(#paint0_linear_4_66)"/>
<defs>
<linearGradient id="paint0_linear_4_66" x1="25" y1="0" x2="25" y2="50" gradientUnits="userSpaceOnUse">
<stop stop-color="#C0C0C0"/>
<stop offset="1" stop-color="#DDDDDD"/>
</linearGradient>
</defs>
</svg>
