<svg width="44" height="50" viewBox="0 0 44 50" fill="none" xmlns="http://www.w3.org/2000/svg">
<path fill-rule="evenodd" clip-rule="evenodd" d="M22.2202 0.0339618C25.7408 0.506232 27.2848 4.82691 29.7544 7.3801C31.5252 9.21088 33.6588 10.7235 34.7745 13.0132C35.8071 15.1324 34.6714 17.8763 35.8608 19.9116C37.7352 23.1188 42.7167 24.2326 43.4585 27.8725C44.1123 31.0806 40.6977 33.674 39.2655 36.6182C37.4909 40.2662 37.8983 46.4316 33.959 47.4009C29.5465 48.4866 26.7402 40.3445 22.2202 40.8122C16.8915 41.3635 14.5549 50.7052 9.25019 49.9574C4.82263 49.3333 5.00788 42.2585 3.26609 38.1404C1.87734 34.8569 0.111779 31.6592 0.00366736 28.0958C-0.0976655 24.7558 1.92847 21.821 2.67214 18.5633C3.41579 15.3057 2.28221 11.3983 4.40451 8.81747C6.5307 6.23189 10.6429 6.69943 13.6453 5.21915C16.6793 3.72336 18.8676 -0.415772 22.2202 0.0339618Z" fill="url(#paint0_linear_4_43)"/>
<defs>
<linearGradient id="paint0_linear_4_43" x1="21.7704" y1="0" x2="21.7704" y2="50" gradientUnits="userSpaceOnUse">
<stop stop-color="#C0C0C0"/>
<stop offset="1" stop-color="#DDDDDD"/>
</linearGradient>
</defs>
</svg>
