<svg width="50" height="50" viewBox="0 0 50 50" fill="none" xmlns="http://www.w3.org/2000/svg">
<path fill-rule="evenodd" clip-rule="evenodd" d="M25.2926 0.0891583C30.0185 -0.963593 30.3761 7.58615 33.527 10.9952C35.3437 12.9607 37.6458 14.3838 39.9105 15.9047C42.7109 17.7853 46.7753 18.3188 48.53 21.0709C50.2479 23.7652 48.9988 27.2033 49.1054 30.3259C49.2252 33.8306 50.9941 37.636 49.2017 40.7299C47.4186 43.8076 43.5772 46.1985 39.7944 46.3973C35.6354 46.6158 32.5636 41.0691 28.4782 41.819C24.4714 42.5544 24.2916 49.6728 20.2205 49.9902C16.8079 50.2562 16.0764 45.0455 13.4814 42.9881C11.1225 41.118 7.73677 40.5941 5.66784 38.4527C3.46303 36.1707 2.05468 33.3133 1.26733 30.3465C0.432842 27.2021 -0.949696 23.4585 0.968665 20.7459C3.04396 17.8113 7.64545 17.6131 11.1827 16.3257C13.6249 15.4369 17.0194 16.1949 18.6599 14.3071C22.1987 10.2351 19.787 1.31563 25.2926 0.0891583Z" fill="url(#paint0_linear_6_99)"/>
<defs>
<linearGradient id="paint0_linear_6_99" x1="25" y1="0" x2="25" y2="50" gradientUnits="userSpaceOnUse">
<stop stop-color="#C0C0C0"/>
<stop offset="1" stop-color="#DDDDDD"/>
</linearGradient>
</defs>
</svg>
