<svg width="50" height="40" viewBox="0 0 50 40" fill="none" xmlns="http://www.w3.org/2000/svg">
<path fill-rule="evenodd" clip-rule="evenodd" d="M24.2336 11.3291C28.1856 8.28125 29.2509 -1.47676 33.955 0.190135C38.4245 1.77387 29.4447 10.1764 32.0888 14.1126C34.4309 17.5991 40.9597 13.3893 44.4203 15.7694C47.6551 17.9942 49.1619 22.2727 49.622 26.1717C50.1246 30.4305 50.7168 36.2949 47.1176 38.6263C42.9308 41.3382 37.3586 37.8471 32.3973 37.3289C29.6319 37.0401 26.729 37.4624 24.2336 36.2363C21.997 35.1372 21.6739 30.5932 19.1942 30.8414C12.7141 31.4899 7.52516 40.9656 1.4925 38.5123C-2.8758 36.7359 3.64879 29.5093 4.52391 24.8755C5.07557 21.9545 5.62661 19.1217 5.71574 16.1503C5.82742 12.4269 1.60834 6.38509 5.11615 5.13127C10.1509 3.33166 14.6916 9.47518 19.7777 11.1241C21.21 11.5884 23.0412 12.2487 24.2336 11.3291Z" fill="url(#paint0_linear_4_47)"/>
<defs>
<linearGradient id="paint0_linear_4_47" x1="25" y1="0" x2="25" y2="39.6472" gradientUnits="userSpaceOnUse">
<stop stop-color="#C0C0C0"/>
<stop offset="1" stop-color="#DDDDDD"/>
</linearGradient>
</defs>
</svg>
