<svg width="50" height="50" viewBox="0 0 50 50" fill="none" xmlns="http://www.w3.org/2000/svg">
<path fill-rule="evenodd" clip-rule="evenodd" d="M24.1335 13.8837C30.3579 12.4475 30.2687 -0.66983 36.6256 0.0267694C41.8928 0.603949 35.8705 10.2505 36.9763 15.291C37.5164 17.7528 39.7059 19.4687 41.3223 21.4348C44.0608 24.7656 48.9863 26.7793 49.8576 30.9586C50.6638 34.8255 47.8864 38.6339 45.5856 41.884C43.2096 45.2404 40.5688 49.7394 36.3861 49.9888C31.6282 50.2724 28.4592 45.1101 24.1335 43.1628C21.6506 42.045 17.7263 43.2668 16.3485 40.9683C14.5926 38.0389 19.6882 32.838 16.8031 30.9338C12.2438 27.9245 4.23998 34.4195 0.485194 30.4979C-2.21681 27.6758 7.21602 25.4455 7.91426 21.65C8.66682 17.5593 2.79318 13.7519 4.28249 9.85669C5.57839 6.4674 10.5634 4.46191 14.2038 5.20041C18.6168 6.09565 19.7472 14.8958 24.1335 13.8837Z" fill="url(#paint0_linear_5_88)"/>
<defs>
<linearGradient id="paint0_linear_5_88" x1="25" y1="0" x2="25" y2="50" gradientUnits="userSpaceOnUse">
<stop stop-color="#C0C0C0"/>
<stop offset="1" stop-color="#DDDDDD"/>
</linearGradient>
</defs>
</svg>
