<svg width="50" height="50" viewBox="0 0 50 50" fill="none" xmlns="http://www.w3.org/2000/svg">
<path fill-rule="evenodd" clip-rule="evenodd" d="M26.3715 0.00163221C30.0309 -0.0551572 33.6893 1.37509 36.5833 3.49019C39.3352 5.50145 41.5542 8.41033 42.2746 11.6246C42.9656 14.7078 39.0818 17.9512 40.4669 20.8186C42.1179 24.2364 49.0958 23.8076 49.9337 27.4799C50.6288 30.5262 45.6785 32.1121 43.5953 34.5294C41.8031 36.6089 40.0864 38.637 38.4374 40.8195C36.161 43.8322 35.7961 49.2006 31.9542 49.9362C28.0927 50.6755 25.9815 44.7623 22.1388 43.9401C18.3695 43.1337 14.3755 46.7345 10.7762 45.4052C7.3577 44.1427 5.93542 40.2815 4.10243 37.2792C2.27027 34.2782 -0.0850224 31.221 0.00236181 27.7583C0.0895544 24.3032 3.21496 21.665 4.57742 18.4572C5.85139 15.4577 5.74923 11.9459 7.81329 9.36777C9.91412 6.7437 13.2354 5.3556 16.3081 3.80483C19.5298 2.17887 22.7188 0.0583169 26.3715 0.00163221Z" fill="url(#paint0_linear_4_56)"/>
<defs>
<linearGradient id="paint0_linear_4_56" x1="25" y1="0" x2="25" y2="50" gradientUnits="userSpaceOnUse">
<stop stop-color="#C0C0C0"/>
<stop offset="1" stop-color="#DDDDDD"/>
</linearGradient>
</defs>
</svg>
