<svg width="50" height="50" viewBox="0 0 50 50" fill="none" xmlns="http://www.w3.org/2000/svg">
<path fill-rule="evenodd" clip-rule="evenodd" d="M25.8645 0.0263715C30.0996 -0.42892 31.9556 5.12649 34.9954 7.77038C37.1899 9.67909 39.0413 11.7779 41.3941 13.5334C44.1141 15.5632 49.7518 15.8217 49.9904 18.9596C50.2657 22.5807 44.5543 24.305 42.45 27.4224C41.2521 29.1971 40.8536 31.2469 40.3361 33.2619C39.6219 36.0425 40.148 39.0205 38.8052 41.6133C37.1402 44.8282 35.6693 49.8848 31.6685 49.9983C27.2209 50.1245 26.2662 43.0941 21.9636 42.0913C17.9694 41.1603 13.3023 47.3428 10.1517 44.9832C6.84525 42.5068 10.7713 37.4592 10.6682 33.6315C10.6109 31.5065 10.9376 29.1963 9.67744 27.3854C7.23138 23.87 1.11233 22.5365 0.139798 18.5008C-0.657303 15.1931 2.06938 11.2835 5.39215 9.60282C8.98355 7.78628 14.0151 11.3435 17.6725 9.63266C21.7279 7.73566 21.3091 0.516102 25.8645 0.0263715Z" fill="url(#paint0_linear_4_57)"/>
<defs>
<linearGradient id="paint0_linear_4_57" x1="25" y1="0" x2="25" y2="50" gradientUnits="userSpaceOnUse">
<stop stop-color="#C0C0C0"/>
<stop offset="1" stop-color="#DDDDDD"/>
</linearGradient>
</defs>
</svg>
