<svg width="46" height="50" viewBox="0 0 46 50" fill="none" xmlns="http://www.w3.org/2000/svg">
<path fill-rule="evenodd" clip-rule="evenodd" d="M24.951 8.75077C27.2632 10.0408 30.9649 9.06582 32.364 11.3136C34.0474 14.0181 29.9848 18.6969 32.4202 20.7505C35.7241 23.5363 42.2438 18.8992 45.1517 22.0962C47.2429 24.3954 43.5298 28.3459 41.2142 30.4189C39.023 32.3803 34.07 30.3518 32.9105 33.0544C31.1346 37.1939 36.3897 42.2773 34.3941 46.3156C32.9191 49.3002 27.6016 51.1754 24.951 49.1609C21.1739 46.2902 23.93 39.1552 20.5684 35.8075C18.6104 33.8576 14.6542 38.332 12.4303 36.6918C10.5084 35.2743 13.6303 31.5196 12.1809 29.6216C9.23199 25.76 2.51859 25.5816 0.552801 21.1382C-1.09368 17.4165 1.27717 12.9547 3.22718 9.38271C5.31463 5.55896 7.73638 0.129382 12.091 0.00270808C17.3391 -0.149957 20.3661 6.19269 24.951 8.75077Z" fill="url(#paint0_linear_4_19)"/>
<defs>
<linearGradient id="paint0_linear_4_19" x1="22.884" y1="0" x2="22.884" y2="50" gradientUnits="userSpaceOnUse">
<stop stop-color="#C0C0C0"/>
<stop offset="1" stop-color="#DDDDDD"/>
</linearGradient>
</defs>
</svg>
