<svg width="50" height="47" viewBox="0 0 50 47" fill="none" xmlns="http://www.w3.org/2000/svg">
<path fill-rule="evenodd" clip-rule="evenodd" d="M19.1368 0.050691C22.3086 0.367581 25.8994 1.81093 27.3983 4.6241C29.0931 7.80477 24.2866 13.266 27.262 15.2997C31.9721 18.5192 39.2846 13.0845 44.1457 16.0712C47.9834 18.4291 52.0447 25.3908 48.8439 28.5597C44.2557 33.1022 34.8811 26.302 29.7949 30.2788C26.2578 33.0444 32.1566 39.8639 29.6349 43.5788C27.5932 46.5866 22.1276 48.0466 19.1368 45.98C15.1686 43.2382 17.2372 36.1574 13.8809 32.6934C12.0064 30.7588 7.64734 34.3859 5.90919 32.328C4.19818 30.3021 7.97529 27.0156 7.00211 24.549C5.76623 21.4165 0.474747 20.755 0.0264949 17.4175C-0.355834 14.5708 3.49982 12.974 5.1299 10.6092C6.88257 8.06642 7.57404 4.74883 10.0401 2.88988C12.6089 0.953545 15.9359 -0.269102 19.1368 0.050691Z" fill="url(#paint0_linear_4_33)"/>
<defs>
<linearGradient id="paint0_linear_4_33" x1="25" y1="0" x2="25" y2="46.9454" gradientUnits="userSpaceOnUse">
<stop stop-color="#C0C0C0"/>
<stop offset="1" stop-color="#DDDDDD"/>
</linearGradient>
</defs>
</svg>
