<svg width="50" height="50" viewBox="0 0 50 50" fill="none" xmlns="http://www.w3.org/2000/svg">
<path fill-rule="evenodd" clip-rule="evenodd" d="M25.4139 4.85509C27.4333 5.61073 29.8533 4.45477 31.689 5.65219C33.5157 6.84372 33.3676 10.3987 35.3197 11.3164C39.7633 13.4054 46.5341 9.71362 49.4209 13.9882C51.6426 17.2779 46.9282 21.7771 44.4485 24.8338C42.3979 27.3616 38.0808 26.9005 36.5558 29.8468C34.6094 33.6073 37.3081 38.9062 35.2546 42.5967C33.1621 46.3572 29.3181 50.8199 25.4139 49.8707C21.0695 48.8143 19.0495 42.8574 17.4606 38.2701C16.2308 34.7195 20.417 29.0206 17.4953 27.0091C12.5398 23.5975 2.32281 32.3978 0.203829 26.3899C-1.7741 20.7818 11.2258 22.3322 14.0242 17.1675C15.7131 14.0504 10.1187 10.6419 10.676 7.06218C11.1766 3.8469 13.7624 0.47843 16.6907 0.0398995C19.9531 -0.448655 22.296 3.68835 25.4139 4.85509Z" fill="url(#paint0_linear_5_82)"/>
<defs>
<linearGradient id="paint0_linear_5_82" x1="25" y1="0" x2="25" y2="50" gradientUnits="userSpaceOnUse">
<stop stop-color="#C0C0C0"/>
<stop offset="1" stop-color="#DDDDDD"/>
</linearGradient>
</defs>
</svg>
