<svg width="43" height="50" viewBox="0 0 43 50" fill="none" xmlns="http://www.w3.org/2000/svg">
<path fill-rule="evenodd" clip-rule="evenodd" d="M18.0757 0.23313C23.2611 2.75527 16.8624 15.0143 22.3548 16.7705C29 18.8953 34.0829 5.73905 40.8313 7.50921C45.3027 8.68211 40.3118 16.7565 38.4774 20.9996C37.0932 24.2014 34.1737 26.3488 31.6471 28.7538C30.1098 30.2172 27.7404 30.6533 26.5151 32.3864C25.181 34.2733 25.4603 36.833 24.4617 38.917C22.596 42.8109 22.3934 49.9692 18.0757 49.9999C13.7771 50.0305 14.9828 41.7178 11.6457 39.0082C9.34198 37.1377 4.71024 40.1075 2.95002 37.7185C1.15501 35.2823 4.02413 31.8582 4.14984 28.8347C4.24112 26.6393 4.03781 24.5007 3.58902 22.3497C2.82589 18.6922 -1.54523 14.7763 0.574703 11.6996C2.6069 8.75029 8.18287 13.2975 11.1788 11.3346C14.869 8.91681 14.1083 -1.69656 18.0757 0.23313Z" fill="url(#paint0_linear_4_15)"/>
<defs>
<linearGradient id="paint0_linear_4_15" x1="21.321" y1="0" x2="21.321" y2="50" gradientUnits="userSpaceOnUse">
<stop stop-color="#C0C0C0"/>
<stop offset="1" stop-color="#DDDDDD"/>
</linearGradient>
</defs>
</svg>
