<svg width="69" height="92" viewBox="0 0 69 92" fill="none" xmlns="http://www.w3.org/2000/svg">
<path d="M34.776 0C34.6868 4.29153e-06 34.5947 0.00620508 34.5 0.0184493C34.4053 0.00620508 34.3132 4.29153e-06 34.224 0V0.0694075C31.3429 0.752405 26.4961 6.39201 26.4961 13.248C26.4961 18.4348 28.359 17.9322 31.0728 17.2C32.1097 16.9202 33.271 16.6069 34.5 16.5648C35.729 16.6069 36.8902 16.9202 37.9272 17.2C40.6409 17.9321 42.5039 18.4348 42.5039 13.248C42.5039 6.39201 37.6571 0.752405 34.776 0.0694075V0Z" fill="#5A5A5A"/>
<path d="M21.2565 14.3723C22.4253 18.7342 19.5417 19.5062 16.3502 20.3606L16.1073 20.4257C12.9325 21.2771 10.695 21.8772 9.52632 17.5154C8.34276 13.0983 11.1156 8.5175 13.2484 7.94603C15.3812 7.37456 20.073 9.95525 21.2565 14.3723Z" fill="#5A5A5A"/>
<path d="M52.6498 20.3606C49.4583 19.5062 46.5747 18.7342 47.7435 14.3723C48.927 9.95525 53.6188 7.37456 55.7516 7.94603C57.8844 8.5175 60.6572 13.0983 59.4737 17.5154C58.305 21.8772 56.0675 21.2771 52.8927 20.4257L52.6498 20.3606Z" fill="#5A5A5A"/>
<path fill-rule="evenodd" clip-rule="evenodd" d="M34.776 20.9797L34.5 20.9819L34.224 20.9797V20.9845C17.6146 21.1593 0 24.174 0 43.056C0 61.8545 19.4718 90.0341 34.224 91.5737V91.619C34.3158 91.6135 34.4078 91.607 34.5 91.5995C34.5922 91.607 34.6842 91.6135 34.776 91.619V91.5737C49.5282 90.0341 69 61.8545 69 43.056C69 24.174 51.3854 21.1593 34.776 20.9845V20.9797ZM43.0559 49.6799C42.4462 49.6799 41.9519 50.1742 41.9519 50.7839V57.4079C41.9519 58.0177 42.4462 58.5119 43.0559 58.5119C43.6656 58.5119 44.1599 58.0177 44.1599 57.4079V50.7839C44.1599 50.1742 43.6656 49.6799 43.0559 49.6799ZM35.3279 67.344C35.3279 66.7343 35.8222 66.24 36.4319 66.24C37.0416 66.24 37.5359 66.7343 37.5359 67.344V73.968C37.5359 74.5777 37.0416 75.072 36.4319 75.072C35.8222 75.072 35.3279 74.5777 35.3279 73.968V67.344ZM33.1201 39.7439C32.5104 39.7439 32.0161 40.2382 32.0161 40.8479V47.4719C32.0161 48.0816 32.5104 48.5759 33.1201 48.5759C33.7298 48.5759 34.2241 48.0816 34.2241 47.4719V40.8479C34.2241 40.2382 33.7298 39.7439 33.1201 39.7439ZM22.0801 55.1999C22.0801 54.5902 22.5744 54.0959 23.1841 54.0959C23.7938 54.0959 24.2881 54.5902 24.2881 55.1999V61.8239C24.2881 62.4337 23.7938 62.9279 23.1841 62.9279C22.5744 62.9279 22.0801 62.4337 22.0801 61.8239V55.1999ZM17.6641 35.328C17.0543 35.328 16.5601 35.8223 16.5601 36.432V43.056C16.5601 43.6657 17.0543 44.16 17.6641 44.16C18.2738 44.16 18.7681 43.6657 18.7681 43.056V36.432C18.7681 35.8223 18.2738 35.328 17.6641 35.328ZM48.5759 34.224C48.5759 33.6143 49.0702 33.12 49.6799 33.12C50.2896 33.12 50.7839 33.6143 50.7839 34.224V40.848C50.7839 41.4577 50.2896 41.952 49.6799 41.952C49.0702 41.952 48.5759 41.4577 48.5759 40.848V34.224Z" fill="#5A5A5A"/>
</svg>
