<svg width="50" height="50" viewBox="0 0 50 50" fill="none" xmlns="http://www.w3.org/2000/svg">
<path fill-rule="evenodd" clip-rule="evenodd" d="M25.2831 10.1981C29.6509 9.40098 30.427 1.3408 34.7284 0.189506C38.0333 -0.69506 43.0748 1.60421 43.6956 5.26991C44.5415 10.2652 36.4991 14.1027 37.9045 18.9443C39.2971 23.7419 48.0249 21.6125 49.7889 26.2611C51.0894 29.6883 46.0329 32.2921 44.1364 35.3673C42.3567 38.2531 41.1634 41.5251 38.8808 43.9488C36.4441 46.5361 33.7614 50.5824 30.4213 49.9298C26.4444 49.1528 25.7877 42.0113 21.9467 40.6404C18.6802 39.4745 15.4364 44.0954 12.064 43.3778C8.77206 42.6773 6.12937 39.7669 4.09868 36.8422C1.9865 33.8002 0.687399 30.1135 0.223585 26.3249C-0.245019 22.4972 -0.0359674 18.4587 1.41737 14.9404C2.83604 11.506 5.46909 8.80506 8.32725 6.70722C10.9362 4.79232 14.0557 2.76362 17.1417 3.39896C20.5321 4.09696 21.8803 10.8191 25.2831 10.1981Z" fill="url(#paint0_linear_4_76)"/>
<defs>
<linearGradient id="paint0_linear_4_76" x1="25" y1="0" x2="25" y2="50" gradientUnits="userSpaceOnUse">
<stop stop-color="#C0C0C0"/>
<stop offset="1" stop-color="#DDDDDD"/>
</linearGradient>
</defs>
</svg>
