<svg width="50" height="50" viewBox="0 0 50 50" fill="none" xmlns="http://www.w3.org/2000/svg">
<path fill-rule="evenodd" clip-rule="evenodd" d="M28.0999 8.73403C31.6874 7.49396 32.9887 2.04446 36.6193 0.959971C40.4362 -0.180196 46.2884 -0.999149 48.2385 2.71841C50.3771 6.79542 44.1582 11.3297 44.508 15.9986C44.7874 19.729 50.6606 21.7519 49.9385 25.4124C49.2218 29.0459 44.6573 30.1683 41.4471 31.5156C38.9585 32.56 35.2092 30.0107 33.5684 32.2827C29.9774 37.2547 33.9387 49.7308 28.0999 49.9961C22.3861 50.2557 26.0201 37.5684 22.4049 32.79C20.6798 30.5098 16.7431 33.2958 14.3683 31.8462C11.8911 30.3341 10.9501 27.0811 9.15294 24.7007C6.19512 20.7831 -1.57353 17.8287 0.283236 13.1906C2.36739 7.98449 10.3664 10.7716 15.3941 9.1105C17.6715 8.35807 19.4781 6.13262 21.859 6.06208C24.1248 5.99494 25.9414 9.48014 28.0999 8.73403Z" fill="url(#paint0_linear_5_81)"/>
<defs>
<linearGradient id="paint0_linear_5_81" x1="25" y1="0" x2="25" y2="50" gradientUnits="userSpaceOnUse">
<stop stop-color="#C0C0C0"/>
<stop offset="1" stop-color="#DDDDDD"/>
</linearGradient>
</defs>
</svg>
