<svg width="44" height="50" viewBox="0 0 44 50" fill="none" xmlns="http://www.w3.org/2000/svg">
<path fill-rule="evenodd" clip-rule="evenodd" d="M17.9986 15.8616C24.6494 15.6134 23.7841 2.54977 30.0253 0.238762C33.9509 -1.21482 37.5223 4.30273 39.8876 7.75654C42.2075 11.1441 44.3344 15.5194 43.1903 19.4625C41.9423 23.764 34.9609 24.4941 33.7778 28.8139C32.6728 32.8483 39.5603 37.099 37.3818 40.6699C35.3605 43.9831 29.6703 42.7113 25.9289 41.6796C22.6219 40.7678 21.1654 34.0066 17.9986 35.3253C12.1237 37.7716 12.3282 48.6807 6.09023 49.9404C2.02617 50.7612 1.14732 42.8988 1.01708 38.7547C0.894773 34.8631 5.37227 31.9806 5.40343 28.0871C5.4249 25.404 1.91684 23.9414 1.15623 21.3682C0.179013 18.0622 -0.456964 14.5207 0.40678 11.1833C1.39725 7.35629 2.57619 0.104385 6.39653 1.12034C12.5163 2.74779 11.6705 16.0977 17.9986 15.8616Z" fill="url(#paint0_linear_4_21)"/>
<defs>
<linearGradient id="paint0_linear_4_21" x1="21.7547" y1="0" x2="21.7547" y2="50" gradientUnits="userSpaceOnUse">
<stop stop-color="#C0C0C0"/>
<stop offset="1" stop-color="#DDDDDD"/>
</linearGradient>
</defs>
</svg>
