<svg width="50" height="50" viewBox="0 0 50 50" fill="none" xmlns="http://www.w3.org/2000/svg">
<path fill-rule="evenodd" clip-rule="evenodd" d="M27.7939 0.104391C31.397 1.06705 30.026 7.12404 33.2848 8.80736C36.1854 10.3057 40.1142 6.79775 43.1601 8.04184C45.9554 9.18359 47.0232 12.3094 48.1453 14.8771C49.363 17.6634 50.2039 20.6089 49.9568 23.594C49.6933 26.777 48.846 30.0494 46.6798 32.5793C44.5048 35.1196 40.3249 35.4757 37.8255 37.7625C33.8544 41.396 33.233 51.2927 27.7939 49.8592C21.2849 48.1437 22.9768 38.7074 20.246 33.1293C19.2031 30.9989 18.9753 28.0331 16.6273 27.0494C11.5279 24.9129 1.82072 29.5453 0.162495 24.7152C-1.42589 20.0886 9.06202 19.4454 12.8275 15.9812C14.4436 14.4945 14.4642 12.1456 15.7215 10.4014C17.0664 8.53562 18.6727 6.91337 20.4672 5.38284C22.7663 3.42184 24.7551 -0.707501 27.7939 0.104391Z" fill="url(#paint0_linear_5_92)"/>
<defs>
<linearGradient id="paint0_linear_5_92" x1="25" y1="0" x2="25" y2="50" gradientUnits="userSpaceOnUse">
<stop stop-color="#C0C0C0"/>
<stop offset="1" stop-color="#DDDDDD"/>
</linearGradient>
</defs>
</svg>
