<svg width="50" height="50" viewBox="0 0 50 50" fill="none" xmlns="http://www.w3.org/2000/svg">
<path fill-rule="evenodd" clip-rule="evenodd" d="M27.4156 0.138056C31.5744 0.921096 33.0498 6.25969 36.2221 9.06082C38.5332 11.1016 41.4551 12.2274 43.6071 14.4354C45.8954 16.7831 49.4761 19.109 49.1995 22.3757C48.8895 26.0354 44.2009 27.631 42.2271 30.7284C40.9722 32.6978 40.2258 34.9029 39.7586 37.191C38.8911 41.4392 42.5872 49.2951 38.3015 49.9526C33.169 50.7401 32.0212 41.4826 27.4156 39.0847C25.3896 38.0299 23.1621 40.6176 20.8942 40.8895C17.2728 41.3238 13.5304 42.3811 10.0928 41.1621C6.12615 39.7556 1.2293 37.6407 0.213756 33.5564C-0.794228 29.5025 1.90016 24.5916 5.40899 22.3249C9.43238 19.7257 16.8585 25.0365 19.5429 21.0695C22.5482 16.6286 14.9651 10.4329 16.8528 5.41396C18.2559 1.68345 23.4987 -0.599408 27.4156 0.138056Z" fill="url(#paint0_linear_4_27)"/>
<defs>
<linearGradient id="paint0_linear_4_27" x1="24.6073" y1="0" x2="24.6073" y2="50" gradientUnits="userSpaceOnUse">
<stop stop-color="#C0C0C0"/>
<stop offset="1" stop-color="#DDDDDD"/>
</linearGradient>
</defs>
</svg>
