<svg width="50" height="50" viewBox="0 0 50 50" fill="none" xmlns="http://www.w3.org/2000/svg">
<path fill-rule="evenodd" clip-rule="evenodd" d="M20.6963 1.28839C23.3245 2.37017 24.6781 6.46933 27.3198 7.49472C30.4717 8.71809 34.0615 5.97222 37.0852 7.64968C40.1982 9.37668 42.1947 13.3005 44.1772 16.8466C46.5751 21.1356 50.491 25.4167 49.9492 30.6589C49.4019 35.9541 45.016 39.3017 41.5536 42.2303C38.6336 44.7002 34.9389 44.64 31.6466 46.14C29.1958 47.2567 27.1256 49.7429 24.5332 49.985C22.0068 50.2209 19.8029 47.6021 17.2715 47.4826C14.1234 47.334 10.9721 50.6242 8.01995 49.2055C5.21268 47.8563 3.03671 44.1045 2.38926 40.3303C1.72451 36.4552 4.94277 32.8171 4.53379 28.8835C4.10756 24.784 -0.637404 22.078 0.0721911 18.0444C0.750099 14.1908 5.54662 14.4069 7.59687 11.4717C9.64575 8.53838 9.25869 3.17748 11.88 1.1397C14.4253 -0.838949 17.8653 0.123179 20.6963 1.28839Z" fill="url(#paint0_linear_4_62)"/>
<defs>
<linearGradient id="paint0_linear_4_62" x1="25" y1="0" x2="25" y2="50" gradientUnits="userSpaceOnUse">
<stop stop-color="#C0C0C0"/>
<stop offset="1" stop-color="#DDDDDD"/>
</linearGradient>
</defs>
</svg>
