<svg width="50" height="49" viewBox="0 0 50 49" fill="none" xmlns="http://www.w3.org/2000/svg">
<path fill-rule="evenodd" clip-rule="evenodd" d="M28.9641 13.0575C30.8338 14.1785 32.4228 9.78226 34.5993 9.90355C36.5353 10.0114 37.5863 12.2703 38.9824 13.6158C40.5414 15.1182 42.6031 16.2878 43.3374 18.3245C44.0812 20.3875 42.3292 22.7317 43.0194 24.8132C44.6384 29.6958 50.3473 33.2363 49.9834 38.3674C49.685 42.5737 45.5258 46.5235 41.4134 47.4562C37.0751 48.4402 33.4094 42.9655 28.9641 43.1346C24.2572 43.3136 20.3436 50.3588 16.0504 48.4209C11.8152 46.5092 14.5999 39.0034 11.7249 35.353C8.87601 31.7356 -1.19298 32.6036 0.116917 28.1893C1.94224 22.0381 14.4781 24.8335 16.6392 18.7921C18.4523 13.7235 7.73717 10.5155 8.35211 5.1676C8.7933 1.33082 15.1469 -0.977645 18.7537 0.402994C23.8798 2.36519 24.2566 10.235 28.9641 13.0575Z" fill="url(#paint0_linear_4_12)"/>
<defs>
<linearGradient id="paint0_linear_4_12" x1="25" y1="0" x2="25" y2="48.7579" gradientUnits="userSpaceOnUse">
<stop stop-color="#C0C0C0"/>
<stop offset="1" stop-color="#DDDDDD"/>
</linearGradient>
</defs>
</svg>
