<svg width="50" height="51" viewBox="0 0 50 51" fill="none" xmlns="http://www.w3.org/2000/svg">
<path fill-rule="evenodd" clip-rule="evenodd" d="M25.189 2.58169C28.6307 0.500665 34.2576 -1.42406 37.0514 1.46912C40.4357 4.97378 37.3948 11.0376 38.0201 15.8692C38.3287 18.2541 38.384 20.827 39.8075 22.7651C42.4589 26.3749 51.9713 27.8605 49.6337 31.681C46.8089 36.2979 37.3234 28.875 33.6417 32.8425C30.3417 36.3986 37.5245 42.8009 35.3095 47.1171C33.7134 50.2273 28.0456 51.3288 25.189 49.3136C21.3857 46.6305 24.5473 38.1252 20.2013 36.4588C15.2834 34.5732 10.634 43.0878 5.53284 41.777C1.90975 40.8459 2.05422 35.219 1.2019 31.5766C0.346802 27.9222 -0.639467 24.0377 0.548909 20.4777C1.72175 16.9643 4.2927 13.6249 7.68839 12.1454C11.0916 10.6626 15.4194 14.3595 18.677 12.5793C22.2113 10.6479 21.7425 4.66567 25.189 2.58169Z" fill="url(#paint0_linear_4_49)"/>
<defs>
<linearGradient id="paint0_linear_4_49" x1="25" y1="0" x2="25" y2="50.332" gradientUnits="userSpaceOnUse">
<stop stop-color="#C0C0C0"/>
<stop offset="1" stop-color="#DDDDDD"/>
</linearGradient>
</defs>
</svg>
