<svg width="50" height="48" viewBox="0 0 50 48" fill="none" xmlns="http://www.w3.org/2000/svg">
<path fill-rule="evenodd" clip-rule="evenodd" d="M20.5538 0.0663681C27.2996 -1.16105 20.6394 14.9839 25.5692 19.7494C28.5935 22.6729 33.4561 15.9258 37.6145 16.5585C42.3277 17.2757 49.1066 18.763 49.9378 23.4573C50.7932 28.2885 42.5764 30.2049 40.8435 34.795C39.4328 38.5319 44.7675 44.8417 41.1923 46.6227C36.479 48.9706 31.5395 41.8373 26.2781 42.0508C23.6217 42.1586 23.0914 46.6673 20.5538 47.4601C18.0263 48.2498 15.3926 46.8079 12.8017 46.2614C9.59569 45.5853 5.54965 46.3166 3.40159 43.8424C1.27932 41.398 1.71247 37.4621 2.41944 34.3031C3.05438 31.4659 7.36121 30.0036 7.14751 27.1041C6.80006 22.39 -3.05974 17.0232 0.962922 14.5408C5.80477 11.553 11.7704 24.8085 16.3465 21.4275C22.2574 17.0603 13.3232 1.38199 20.5538 0.0663681Z" fill="url(#paint0_linear_4_29)"/>
<defs>
<linearGradient id="paint0_linear_4_29" x1="25" y1="0" x2="25" y2="47.6914" gradientUnits="userSpaceOnUse">
<stop stop-color="#C0C0C0"/>
<stop offset="1" stop-color="#DDDDDD"/>
</linearGradient>
</defs>
</svg>
