<svg width="74" height="92" viewBox="0 0 74 92" fill="none" xmlns="http://www.w3.org/2000/svg">
<path d="M39.6603 25.2486C42.547 23.582 46.3507 16.8369 42.0705 9.42333C37.7903 2.00979 27.5848 -0.111175 25.6603 0.999937C23.7358 2.11105 20.4698 12.0098 24.75 19.4233C29.0302 26.8369 36.7735 26.9153 39.6603 25.2486Z" fill="#5A5A5A"/>
<path d="M35 31.621C31.9377 29.9352 28.5555 28.9999 25 28.9999C11.1929 28.9999 0 43.103 0 60.4999C0 77.8969 11.1929 91.9999 25 91.9999C29.5016 91.9999 33.7252 90.5008 37.3737 87.8772C40.9493 90.5008 45.0885 91.9999 49.5 91.9999C63.031 91.9999 74 77.8969 74 60.4999C74 43.103 63.031 28.9999 49.5 28.9999C45.7424 28.9999 42.1824 30.0875 39 32.0313V53.9999C39 55.1045 38.1046 55.9999 37 55.9999C35.8954 55.9999 35 55.1045 35 53.9999V31.621Z" fill="#5A5A5A"/>
</svg>
