<svg width="50" height="46" viewBox="0 0 50 46" fill="none" xmlns="http://www.w3.org/2000/svg">
<path fill-rule="evenodd" clip-rule="evenodd" d="M25.2621 2.1314C28.363 1.48625 31.3112 -0.477552 34.424 0.107494C37.6266 0.709429 41.6345 2.23632 42.5145 5.37397C43.5399 9.03021 37.5291 12.4763 38.8875 16.0224C40.5897 20.4655 49.0077 20.1004 49.9434 24.7656C50.6763 28.4197 44.0863 29.4308 42.2243 32.6592C39.9393 36.621 42.5308 45.8826 37.9713 45.5231C31.558 45.0175 29.867 35.8143 25.2621 31.3219C23.9802 30.0713 22.4121 28.2052 20.6778 28.6518C14.1758 30.326 9.24568 38.5745 2.68782 37.1347C-1.49016 36.2174 0.023007 28.4082 1.75587 24.4974C3.5673 20.4093 11.668 20.5652 12.0054 16.1065C12.4306 10.4883 1.12281 6.878 3.47675 1.759C5.50856 -2.65949 12.9065 3.48951 17.769 3.57263C20.3444 3.61665 22.7404 2.65606 25.2621 2.1314Z" fill="url(#paint0_linear_4_22)"/>
<defs>
<linearGradient id="paint0_linear_4_22" x1="25" y1="0" x2="25" y2="45.5333" gradientUnits="userSpaceOnUse">
<stop stop-color="#C0C0C0"/>
<stop offset="1" stop-color="#DDDDDD"/>
</linearGradient>
</defs>
</svg>
