<svg width="44" height="50" viewBox="0 0 44 50" fill="none" xmlns="http://www.w3.org/2000/svg">
<path fill-rule="evenodd" clip-rule="evenodd" d="M24.3655 0.21501C28.0378 -1.20345 31.0845 4.72849 32.7946 8.27434C34.3217 11.4406 31.2371 15.8088 33.2694 18.6769C35.1266 21.2978 40.8338 18.8253 42.2973 21.6848C43.5629 24.1577 38.4672 26.2414 38.5619 29.0178C38.7044 33.1929 46.3168 38.1294 42.9423 40.592C38.9806 43.4832 33.9675 34.6417 29.2119 35.8412C25.7397 36.717 27.1273 42.9983 24.3655 45.2777C21.273 47.8301 16.1317 51.7716 13.1251 49.1186C9.55908 45.972 12.5933 39.7878 12.7573 35.0348C12.8381 32.6926 15.3552 29.9727 13.8477 28.1782C10.4606 24.1463 2.62336 25.0683 0.381751 20.3034C-1.17088 17.0031 2.29258 12.1456 5.72509 10.9123C9.90834 9.40929 14.7251 15.9772 18.5805 13.7648C22.894 11.2893 19.7262 2.007 24.3655 0.21501Z" fill="url(#paint0_linear_4_32)"/>
<defs>
<linearGradient id="paint0_linear_4_32" x1="21.9021" y1="0" x2="21.9021" y2="50" gradientUnits="userSpaceOnUse">
<stop stop-color="#C0C0C0"/>
<stop offset="1" stop-color="#DDDDDD"/>
</linearGradient>
</defs>
</svg>
