<svg width="50" height="50" viewBox="0 0 50 50" fill="none" xmlns="http://www.w3.org/2000/svg">
<path fill-rule="evenodd" clip-rule="evenodd" d="M22.4994 6.12447C25.4544 3.10855 29.9139 -1.47064 33.6774 0.460414C37.5057 2.42476 34.1899 9.00513 35.8307 12.9648C36.917 15.5862 39.6238 17.0588 41.4557 19.2317C44.4081 22.7338 49.9389 25.2028 49.9995 29.7715C50.054 33.8872 45.7973 38.0756 41.7146 38.764C36.6358 39.6204 31.8551 31.0672 27.3707 33.587C22.436 36.3599 27.2895 46.5481 22.4994 49.5611C19.1795 51.6493 15.309 45.7906 13.3579 42.4011C11.5408 39.2445 14.4069 34.5969 12.2108 31.688C10.1153 28.9123 4.87856 30.6326 2.53279 28.0623C0.275226 25.5887 0.107801 21.7988 0.13758 18.4591C0.170434 14.7745 -0.954046 8.38702 2.71303 7.84801C8.67743 6.97134 12.7121 16.2512 18.7183 15.728C22.2072 15.4241 20.0559 8.6184 22.4994 6.12447Z" fill="url(#paint0_linear_5_86)"/>
<defs>
<linearGradient id="paint0_linear_5_86" x1="25" y1="0" x2="25" y2="50" gradientUnits="userSpaceOnUse">
<stop stop-color="#C0C0C0"/>
<stop offset="1" stop-color="#DDDDDD"/>
</linearGradient>
</defs>
</svg>
