<svg width="50" height="50" viewBox="0 0 50 50" fill="none" xmlns="http://www.w3.org/2000/svg">
<path fill-rule="evenodd" clip-rule="evenodd" d="M24.3488 0.369483C28.0225 -0.766677 32.7914 0.827162 35.28 3.64886C38.0432 6.78192 34.9348 12.4914 37.7588 15.5745C40.5231 18.5923 47.6495 15.7206 49.5935 19.2752C51.3545 22.4951 46.927 25.9665 45.2167 29.2112C43.9218 31.6677 41.3682 33.4636 40.7038 36.1399C39.7117 40.136 43.3536 45.2782 40.4715 48.3245C37.8979 51.0446 32.5543 49.9885 29.0866 48.4187C25.4934 46.7921 24.9475 41.7084 21.5381 39.7535C19.5046 38.5874 16.6379 41.0579 14.5088 40.0596C12.4432 39.091 12.0025 36.4566 10.6754 34.6601C9.23117 32.705 7.67075 30.9242 6.28705 28.9294C4.15499 25.8557 -1.21794 23.0415 0.250674 19.6313C1.79228 16.0515 8.36364 18.4016 11.741 16.2648C14.0728 14.7895 14.4813 11.6887 16.1707 9.55884C18.7406 6.31886 20.3015 1.6212 24.3488 0.369483Z" fill="url(#paint0_linear_4_70)"/>
<defs>
<linearGradient id="paint0_linear_4_70" x1="25" y1="0" x2="25" y2="50" gradientUnits="userSpaceOnUse">
<stop stop-color="#C0C0C0"/>
<stop offset="1" stop-color="#DDDDDD"/>
</linearGradient>
</defs>
</svg>
