<svg width="50" height="50" viewBox="0 0 50 50" fill="none" xmlns="http://www.w3.org/2000/svg">
<path fill-rule="evenodd" clip-rule="evenodd" d="M22.6703 10.7042C26.6937 7.92822 28.0293 0.0491051 32.8005 0.000129163C36.3937 -0.0367543 34.5392 7.83578 37.1071 10.556C39.92 13.5355 45.344 12.4232 47.7281 15.8125C49.9756 19.0076 50.7752 24.0389 49.1188 27.6322C47.295 31.5885 41.5729 31.4 38.9711 34.8088C36.9238 37.4911 38.1488 41.9602 36.1219 44.6606C34.0452 47.4275 30.8908 49.3574 27.6367 49.9099C24.4019 50.4591 21.3573 48.3445 18.1352 47.7144C14.8175 47.0656 11.31 47.6273 8.2411 46.1169C4.96895 44.5064 -0.0342925 42.6786 0.000177161 38.7886C0.046469 33.5643 6.88288 31.1986 8.41718 26.245C9.18944 23.7517 5.87923 21.4352 6.1832 18.8263C6.48445 16.2405 8.04569 13.7771 10.04 12.3162C12.0224 10.864 14.6421 11.1917 17.0195 10.8883C18.9117 10.6468 21.0638 11.8126 22.6703 10.7042Z" fill="url(#paint0_linear_4_63)"/>
<defs>
<linearGradient id="paint0_linear_4_63" x1="25" y1="0" x2="25" y2="50" gradientUnits="userSpaceOnUse">
<stop stop-color="#C0C0C0"/>
<stop offset="1" stop-color="#DDDDDD"/>
</linearGradient>
</defs>
</svg>
