<svg width="50" height="50" viewBox="0 0 50 50" fill="none" xmlns="http://www.w3.org/2000/svg">
<path fill-rule="evenodd" clip-rule="evenodd" d="M24.144 4.53036C27.7261 2.25938 31.8941 -0.684509 36.1825 0.142565C40.1577 0.909237 41.6341 5.39617 44.0033 8.3605C46.2793 11.2081 50.75 13.8773 49.8921 17.2957C48.8603 21.4073 42.9438 22.7429 39.6417 25.7408C38.0052 27.2265 37.3083 29.4944 35.2968 30.5462C33.4036 31.5362 29.8854 29.6304 28.8709 31.3728C25.5936 37.0014 30.4275 46.776 24.144 49.7003C19.3589 51.9273 19.4519 41.1405 16.2685 37.2379C14.6695 35.2776 12.4103 33.9272 10.1675 32.5663C6.95518 30.617 1.46049 30.758 0.178817 27.4745C-1.03641 24.3612 4.32632 21.8693 4.71158 18.5889C5.16958 14.689 -1.2095 9.10603 2.56783 7.13231C7.35197 4.63251 12.732 12.1926 18.2191 11.5309C21.4972 11.1356 21.4429 6.24277 24.144 4.53036Z" fill="url(#paint0_linear_5_85)"/>
<defs>
<linearGradient id="paint0_linear_5_85" x1="25" y1="0" x2="25" y2="50" gradientUnits="userSpaceOnUse">
<stop stop-color="#C0C0C0"/>
<stop offset="1" stop-color="#DDDDDD"/>
</linearGradient>
</defs>
</svg>
