<svg width="50" height="42" viewBox="0 0 50 42" fill="none" xmlns="http://www.w3.org/2000/svg">
<path fill-rule="evenodd" clip-rule="evenodd" d="M23.233 10.7273C26.7068 8.19471 28.2663 3.28202 32.2935 1.77768C36.7876 0.0989581 43.0604 -1.30629 46.5028 2.03497C49.7252 5.16259 45.731 10.8767 46.2623 15.3358C46.7285 19.2481 51.6486 23.3169 49.4266 26.5706C46.7231 30.5291 40.5939 30.2139 35.8183 30.6285C32.7842 30.8919 29.3914 26.5687 27.0478 28.5136C23.6382 31.3433 26.8902 38.5715 23.233 41.0731C20.7407 42.7779 18.6707 36.6358 15.6704 36.296C10.6082 35.7228 3.73623 42.6496 0.744136 38.5263C-2.3337 34.2849 5.00552 29.1633 6.96846 24.3043C7.88814 22.0278 9.07475 19.8535 9.27613 17.4065C9.52023 14.4403 5.71501 10.1972 8.2568 8.64894C11.4323 6.71464 15.1983 11.0446 18.8813 11.5557C20.3625 11.7613 22.0247 11.6082 23.233 10.7273Z" fill="url(#paint0_linear_4_48)"/>
<defs>
<linearGradient id="paint0_linear_4_48" x1="25" y1="0" x2="25" y2="41.3715" gradientUnits="userSpaceOnUse">
<stop stop-color="#C0C0C0"/>
<stop offset="1" stop-color="#DDDDDD"/>
</linearGradient>
</defs>
</svg>
