<svg width="50" height="47" viewBox="0 0 50 47" fill="none" xmlns="http://www.w3.org/2000/svg">
<path fill-rule="evenodd" clip-rule="evenodd" d="M26.7818 1.58733C29.3435 -0.317838 33.9139 -0.695259 36.2389 1.49261C38.8991 3.99594 35.5413 9.48553 38.0233 12.1657C40.8149 15.1805 47.7248 12.2668 49.601 15.9222C51.22 19.0767 47.5744 23.1142 44.7265 25.2263C41.8742 27.3417 37.1889 25.0106 34.3935 27.2007C32.4743 28.7044 34.0104 32.0385 33.1296 34.312C31.416 38.7355 31.3983 45.7582 26.7818 46.8495C22.7934 47.7923 21.7247 40.5727 18.8029 37.6989C16.8289 35.7573 14.2779 34.6253 12.3414 32.6463C10.2631 30.5225 8.66901 28.1072 7.00675 25.6441C4.67571 22.1899 -1.89052 18.5329 0.52559 15.1377C3.63315 10.771 10.9157 13.5039 16.2153 12.7041C18.2703 12.3939 20.8805 13.356 22.3123 11.8496C24.9155 9.11093 23.7498 3.84216 26.7818 1.58733Z" fill="url(#paint0_linear_4_38)"/>
<defs>
<linearGradient id="paint0_linear_4_38" x1="25" y1="0" x2="25" y2="46.9338" gradientUnits="userSpaceOnUse">
<stop stop-color="#C0C0C0"/>
<stop offset="1" stop-color="#DDDDDD"/>
</linearGradient>
</defs>
</svg>
