<svg width="50" height="50" viewBox="0 0 50 50" fill="none" xmlns="http://www.w3.org/2000/svg">
<path fill-rule="evenodd" clip-rule="evenodd" d="M25.2091 0.67272C28.1901 1.23838 31.3834 2.09342 33.4105 4.35107C35.3937 6.55963 33.6177 11.0316 36.0449 12.7403C39.8996 15.454 47.3736 11.6818 49.671 15.7983C51.5905 19.2379 44.5443 21.792 43.1531 25.4771C42.0042 28.5204 45.3059 33.6405 42.3905 35.0832C38.5917 36.9632 33.5812 29.2327 30.2552 31.8599C25.6099 35.5293 29.8336 44.9593 25.2091 48.6548C22.0598 51.1715 16.0747 48.3316 13.8495 44.97C11.2087 40.9807 16.3271 34.5835 13.3928 30.8047C10.5179 27.1024 -0.0708981 31.8222 0.000357917 27.1353C0.082304 21.7452 11.1529 23.5416 13.5764 18.7265C15.2337 15.4338 8.92002 12.3521 9.28712 8.68419C9.61829 5.37519 12.3873 2.42029 15.358 0.925537C18.3295 -0.569642 21.9409 0.0525744 25.2091 0.67272Z" fill="url(#paint0_linear_4_46)"/>
<defs>
<linearGradient id="paint0_linear_4_46" x1="25" y1="0" x2="25" y2="49.6171" gradientUnits="userSpaceOnUse">
<stop stop-color="#C0C0C0"/>
<stop offset="1" stop-color="#DDDDDD"/>
</linearGradient>
</defs>
</svg>
