<svg width="50" height="50" viewBox="0 0 50 50" fill="none" xmlns="http://www.w3.org/2000/svg">
<path fill-rule="evenodd" clip-rule="evenodd" d="M28.2502 1.04491C32.4513 2.01211 35.4747 4.61925 39.0438 6.54779C42.0492 8.17174 45.7657 9.2305 47.7496 11.5813C49.6895 13.8799 49.7211 16.7709 49.9647 19.4881C50.1754 21.8392 49.387 24.1034 49.0823 26.4487C48.7756 28.8089 48.6125 31.1046 48.1505 33.4505C47.5126 36.6901 48.8604 40.6656 45.8211 43.0085C42.955 45.2179 37.6534 43.4186 33.8127 44.5031C29.203 45.8047 26.0526 49.7091 21.1423 49.9771C16.3274 50.2398 11.6216 48.2069 7.87107 45.9185C4.17048 43.6606 0.134576 40.6637 0.00288739 37.0788C-0.14436 33.0705 5.38138 30.25 7.15661 26.4694C8.14717 24.3598 8.47383 22.0853 8.08483 19.8671C7.3859 15.8815 2.75369 12.259 3.97844 8.34605C5.07743 4.83484 9.60507 2.13305 14.0544 0.794642C18.4984 -0.542132 23.6739 -0.00866801 28.2502 1.04491Z" fill="url(#paint0_linear_6_97)"/>
<defs>
<linearGradient id="paint0_linear_6_97" x1="25" y1="0" x2="25" y2="50" gradientUnits="userSpaceOnUse">
<stop stop-color="#C0C0C0"/>
<stop offset="1" stop-color="#DDDDDD"/>
</linearGradient>
</defs>
</svg>
