<svg width="50" height="50" viewBox="0 0 50 50" fill="none" xmlns="http://www.w3.org/2000/svg">
<path fill-rule="evenodd" clip-rule="evenodd" d="M28.4054 0.391635C31.7063 -0.728807 35.6247 0.763479 38.7233 2.24409C41.7556 3.69297 43.8159 6.21574 45.7459 8.67726C47.5299 10.9527 49.1363 13.3971 49.5909 16.1049C50.023 18.679 48.2111 21.1389 48.2744 23.7385C48.3477 26.7531 50.1401 29.5527 49.9912 32.5653C49.7961 36.5113 49.9653 40.8379 47.2701 44.0535C44.5785 47.2648 40.0185 50.3345 35.4026 49.9705C30.3223 49.5699 27.3333 44.8884 23.3575 42.1678C20.7536 40.3861 18.4208 38.4746 15.8897 36.6185C13.5422 34.8969 11.1861 33.3156 8.88201 31.5521C5.84721 29.2293 0.68817 27.928 0.0528966 24.4971C-0.568595 21.1408 4.4616 18.9063 5.95705 15.7558C7.33663 12.8493 5.31366 8.28843 8.49608 6.7093C12.2291 4.85693 17.1509 9.477 21.2 8.19214C24.8821 7.02373 24.7553 1.63061 28.4054 0.391635Z" fill="url(#paint0_linear_6_94)"/>
<defs>
<linearGradient id="paint0_linear_6_94" x1="25" y1="0" x2="25" y2="50" gradientUnits="userSpaceOnUse">
<stop stop-color="#C0C0C0"/>
<stop offset="1" stop-color="#DDDDDD"/>
</linearGradient>
</defs>
</svg>
