<svg width="50" height="45" viewBox="0 0 50 45" fill="none" xmlns="http://www.w3.org/2000/svg">
<path fill-rule="evenodd" clip-rule="evenodd" d="M25.232 1.29398C29.0112 1.94627 33.8406 1.79815 35.9776 4.98266C38.4725 8.70044 33.7184 14.8036 36.5984 18.2317C39.597 21.8009 49.506 17.0102 49.9788 21.6478C50.4873 26.6351 41.7248 27.03 37.8154 30.1682C36.3396 31.3529 34.7389 32.5939 34.1163 34.3811C33.0795 37.3572 35.5677 41.6854 33.114 43.6631C30.9687 45.3923 27.5279 43.0655 25.232 41.5421C23.2386 40.2193 22.782 37.5017 21.1675 35.7362C20.2023 34.6808 19.0481 33.7766 17.6982 33.3041C14.5903 32.2164 10.9162 33.0146 8.17587 31.1891C4.63445 28.8298 0.658117 25.7612 0.0530005 21.5492C-0.494964 17.7349 3.34091 14.7265 5.33732 11.4306C7.56306 7.75607 8.71031 2.88737 12.5382 0.937033C16.3576 -1.00905 21.0078 0.564878 25.232 1.29398Z" fill="url(#paint0_linear_4_51)"/>
<defs>
<linearGradient id="paint0_linear_4_51" x1="25" y1="0" x2="25" y2="44.2754" gradientUnits="userSpaceOnUse">
<stop stop-color="#C0C0C0"/>
<stop offset="1" stop-color="#DDDDDD"/>
</linearGradient>
</defs>
</svg>
