<svg width="57" height="56" viewBox="0 0 57 56" fill="none" xmlns="http://www.w3.org/2000/svg">
<rect x="12" y="30" width="4" height="24" rx="2" fill="#FFE9C8"/>
<rect x="40" y="24" width="4" height="24" rx="2" fill="#FFE9C8"/>
<rect x="5" y="8" width="19" height="31" rx="9.5" fill="#A172EA"/>
<rect x="33" y="2" width="19" height="31" rx="9.5" fill="#C9AEF3"/>
<rect width="2" height="2" transform="matrix(-1 0 0 1 16 7)" fill="#482978"/>
<rect width="2" height="2" transform="matrix(-1 0 0 1 44 1)" fill="#482978"/>
<rect width="2" height="2" transform="matrix(-1 0 0 1 18 8)" fill="#482978"/>
<rect width="2" height="2" transform="matrix(-1 0 0 1 46 2)" fill="#482978"/>
<rect width="2" height="2" transform="matrix(-1 0 0 1 20 9)" fill="#482978"/>
<rect width="2" height="2" transform="matrix(-1 0 0 1 48 3)" fill="#482978"/>
<rect width="2" height="2" transform="matrix(-1 0 0 1 22 10)" fill="#482978"/>
<rect width="2" height="2" transform="matrix(-1 0 0 1 50 4)" fill="#482978"/>
<rect width="2" height="2" transform="matrix(-1 0 0 1 23 11)" fill="#482978"/>
<rect width="2" height="2" transform="matrix(-1 0 0 1 51 5)" fill="#482978"/>
<rect width="2" height="2" transform="matrix(-1 0 0 1 24 13)" fill="#482978"/>
<rect width="2" height="2" transform="matrix(-1 0 0 1 52 7)" fill="#482978"/>
<rect width="6" height="2" transform="matrix(-1 0 0 1 18 38)" fill="#482978"/>
<rect width="6" height="2" transform="matrix(-1 0 0 1 46 32)" fill="#482978"/>
<rect width="2" height="14" transform="matrix(-1 0 0 1 17 38)" fill="#482978"/>
<rect width="2" height="14" transform="matrix(-1 0 0 1 45 32)" fill="#482978"/>
<rect width="2" height="2" transform="matrix(-1 0 0 1 19 37)" fill="#482978"/>
<rect width="2" height="2" transform="matrix(-1 0 0 1 47 31)" fill="#482978"/>
<rect width="2" height="2" transform="matrix(-1 0 0 1 7 32)" fill="#482978"/>
<rect width="2" height="2" transform="matrix(-1 0 0 1 35 26)" fill="#482978"/>
<rect width="2" height="2" transform="matrix(-1 0 0 1 8 34)" fill="#482978"/>
<rect width="2" height="2" transform="matrix(-1 0 0 1 36 28)" fill="#482978"/>
<rect width="2" height="2" transform="matrix(-1 0 0 1 9 36)" fill="#482978"/>
<rect width="2" height="2" transform="matrix(-1 0 0 1 37 30)" fill="#482978"/>
<rect width="2" height="2" transform="matrix(-1 0 0 1 15 53)" fill="#482978"/>
<rect width="2" height="2" transform="matrix(-1 0 0 1 43 47)" fill="#482978"/>
<rect width="2" height="2" transform="matrix(-1 0 0 1 16 52)" fill="#482978"/>
<rect width="2" height="2" transform="matrix(-1 0 0 1 44 46)" fill="#482978"/>
<rect width="2" height="2" transform="matrix(-1 0 0 1 14 52)" fill="#482978"/>
<rect width="2" height="2" transform="matrix(-1 0 0 1 42 46)" fill="#482978"/>
<rect width="2" height="12" transform="matrix(-1 0 0 1 13 40)" fill="#482978"/>
<rect width="2" height="12" transform="matrix(-1 0 0 1 41 34)" fill="#482978"/>
<rect width="2" height="2" transform="matrix(-1 0 0 1 11 37)" fill="#482978"/>
<rect width="2" height="2" transform="matrix(-1 0 0 1 39 31)" fill="#482978"/>
<rect width="2" height="2" transform="matrix(-1 0 0 1 12 38)" fill="#482978"/>
<rect width="2" height="2" transform="matrix(-1 0 0 1 40 32)" fill="#482978"/>
<rect width="2" height="2" transform="matrix(-1 0 0 1 21 36)" fill="#482978"/>
<rect width="2" height="2" transform="matrix(-1 0 0 1 49 30)" fill="#482978"/>
<rect width="2" height="2" transform="matrix(-1 0 0 1 23 35)" fill="#482978"/>
<rect width="2" height="2" transform="matrix(-1 0 0 1 51 29)" fill="#482978"/>
<rect width="2" height="2" transform="matrix(-1 0 0 1 24 33)" fill="#482978"/>
<rect width="2" height="2" transform="matrix(-1 0 0 1 52 27)" fill="#482978"/>
<rect width="2" height="2" transform="matrix(-1 0 0 1 24 32)" fill="#482978"/>
<rect width="2" height="2" transform="matrix(-1 0 0 1 52 26)" fill="#482978"/>
<rect width="2" height="17" transform="matrix(-1 0 0 1 25 15)" fill="#482978"/>
<rect width="2" height="17" transform="matrix(-1 0 0 1 53 9)" fill="#482978"/>
<rect width="2" height="2" transform="matrix(-1 0 0 1 14 7)" fill="#482978"/>
<rect width="2" height="2" transform="matrix(-1 0 0 1 42 1)" fill="#482978"/>
<rect width="2" height="2" transform="matrix(-1 0 0 1 12 8)" fill="#482978"/>
<rect width="2" height="2" transform="matrix(-1 0 0 1 40 2)" fill="#482978"/>
<rect width="2" height="2" transform="matrix(-1 0 0 1 10 9)" fill="#482978"/>
<rect width="2" height="2" transform="matrix(-1 0 0 1 38 3)" fill="#482978"/>
<rect width="2" height="2" transform="matrix(-1 0 0 1 8 10)" fill="#482978"/>
<rect width="2" height="2" transform="matrix(-1 0 0 1 36 4)" fill="#482978"/>
<rect width="2" height="2" transform="matrix(-1 0 0 1 7 12)" fill="#482978"/>
<rect width="2" height="2" transform="matrix(-1 0 0 1 35 6)" fill="#482978"/>
<rect width="2" height="18" transform="matrix(-1 0 0 1 6 14)" fill="#482978"/>
<rect width="2" height="18" transform="matrix(-1 0 0 1 34 8)" fill="#482978"/>
<rect x="10" y="17" width="2" height="4" fill="#482978"/>
<rect x="38" y="11" width="2" height="4" fill="#482978"/>
<rect x="16" y="17" width="2" height="4" fill="#482978"/>
<rect x="44" y="11" width="2" height="4" fill="#482978"/>
</svg>
