<svg width="50" height="49" viewBox="0 0 50 49" fill="none" xmlns="http://www.w3.org/2000/svg">
<path fill-rule="evenodd" clip-rule="evenodd" d="M30.7934 7.99159C32.7743 9.3777 34.1478 11.7814 36.5069 12.3103C39.852 13.0602 44.6366 8.75611 46.6333 11.5427C48.6956 14.4209 42.9983 17.8455 43.0102 21.3862C43.0186 23.8827 45.8466 25.452 46.6879 27.8024C47.9869 31.4319 51.4958 35.7634 49.2867 38.9225C47.1568 41.9684 41.667 38.1879 38.3101 39.7832C34.9792 41.3662 34.2618 46.4581 30.7934 47.7112C27.3746 48.9463 23.6366 47.2407 20.1103 46.3583C16.0068 45.3314 9.90558 46.0147 8.32874 42.0896C6.49945 37.536 14.3796 32.9323 12.8443 28.2714C11.0614 22.8585 -1.35546 22.6781 0.121767 17.174C1.63364 11.5408 12.5439 16.9688 16.9144 13.1065C20.2205 10.1847 15.132 1.77598 19.272 0.250251C23.6686 -1.37002 26.9543 5.30524 30.7934 7.99159Z" fill="url(#paint0_linear_4_52)"/>
<defs>
<linearGradient id="paint0_linear_4_52" x1="25" y1="0" x2="25" y2="48.1449" gradientUnits="userSpaceOnUse">
<stop stop-color="#C0C0C0"/>
<stop offset="1" stop-color="#DDDDDD"/>
</linearGradient>
</defs>
</svg>
