<svg width="43" height="50" viewBox="0 0 43 50" fill="none" xmlns="http://www.w3.org/2000/svg">
<path fill-rule="evenodd" clip-rule="evenodd" d="M21.814 10.2727C23.6957 11.4648 26.017 11.7983 28.244 11.7552C32.5538 11.6717 37.3949 7.36508 40.8788 9.90358C43.8535 12.0711 40.5359 17.1265 40.6639 20.8049C40.7679 23.7926 43.8505 27.6884 41.5646 29.6152C38.2771 32.3863 30.5386 26.7743 28.8772 30.74C26.4066 36.6373 36.9875 43.8536 33.3861 49.1369C30.7075 53.0665 26.3958 42.3762 21.814 41.1019C18.8391 40.2744 15.6271 45.0429 12.9757 43.4601C10.2006 41.8035 10.798 37.4545 10.3435 34.2546C10.0289 32.0394 11.7348 29.6358 10.7284 27.6374C9.25085 24.7036 5.18335 23.8655 3.64871 20.9611C1.53722 16.965 -0.917599 12.3259 0.344889 7.98616C1.50557 3.99638 5.6059 -0.409564 9.73771 0.0304806C15.0529 0.596558 17.2987 7.41196 21.814 10.2727Z" fill="url(#paint0_linear_4_24)"/>
<defs>
<linearGradient id="paint0_linear_4_24" x1="21.2032" y1="0" x2="21.2032" y2="50" gradientUnits="userSpaceOnUse">
<stop stop-color="#C0C0C0"/>
<stop offset="1" stop-color="#DDDDDD"/>
</linearGradient>
</defs>
</svg>
