<svg width="50" height="50" viewBox="0 0 50 50" fill="none" xmlns="http://www.w3.org/2000/svg">
<path fill-rule="evenodd" clip-rule="evenodd" d="M24.6014 0.900284C27.2702 1.78831 29.4461 4.01533 31.7635 5.90379C33.8258 7.58439 35.4632 9.85814 37.5631 11.4631C40.4589 13.6762 44.366 13.9035 46.5276 17.1874C48.7089 20.5015 51.1622 25.754 49.3946 29.4381C47.1771 34.0596 40.7526 31.9051 37.6669 35.6547C35.6691 38.0822 37.6799 43.0774 35.9335 45.795C34.2382 48.4329 31.1756 50.7346 28.5894 49.7798C25.4626 48.6253 25.4002 40.903 22.1455 40.7042C17.9875 40.4502 15.5343 50.339 11.5698 48.74C8.35226 47.4423 12.7228 39.6942 10.8543 36.1501C8.79911 32.2521 3.29443 33.1817 1.28996 29.242C-0.562096 25.6019 -0.14105 20.5786 0.820113 16.4285C1.78674 12.2548 4.08551 8.70204 6.70353 5.86727C9.20776 3.15573 12.3036 1.39699 15.5291 0.501857C18.5167 -0.327274 21.6436 -0.0839186 24.6014 0.900284Z" fill="url(#paint0_linear_4_72)"/>
<defs>
<linearGradient id="paint0_linear_4_72" x1="25" y1="0" x2="25" y2="50" gradientUnits="userSpaceOnUse">
<stop stop-color="#C0C0C0"/>
<stop offset="1" stop-color="#DDDDDD"/>
</linearGradient>
</defs>
</svg>
