<svg width="50" height="50" viewBox="0 0 50 50" fill="none" xmlns="http://www.w3.org/2000/svg">
<path fill-rule="evenodd" clip-rule="evenodd" d="M21.9218 2.56635C25.245 1.64989 28.9693 -1.22045 31.9418 0.583643C35.063 2.478 32.949 8.7549 35.84 11.0137C39.7477 14.0668 48.7562 9.65387 49.8982 14.6133C51.0988 19.8273 41.3255 21.1038 39.2977 26.0297C38.0327 29.1027 41.9327 32.5013 41.1946 35.7567C40.4642 38.9783 37.8055 41.3587 35.3488 43.4471C32.8334 45.5853 29.9958 48.419 26.7777 48.0117C23.2556 47.5659 21.9658 41.0143 18.4289 41.3055C12.8586 41.7643 9.48062 51.1326 4.02171 49.8859C-0.164491 48.9298 0.918694 41.6039 0.311722 37.168C-0.178583 33.5847 -0.146507 29.9178 0.81362 26.44C1.64373 23.4332 4.90277 21.6007 5.45846 18.5255C6.12434 14.8405 2.20891 10.5606 4.24134 7.47092C6.14022 4.5843 10.7692 6.42782 14.0075 5.52952C16.7458 4.7699 19.1824 3.32181 21.9218 2.56635Z" fill="url(#paint0_linear_6_112)"/>
<defs>
<linearGradient id="paint0_linear_6_112" x1="25" y1="0" x2="25" y2="50" gradientUnits="userSpaceOnUse">
<stop stop-color="#C0C0C0"/>
<stop offset="1" stop-color="#DDDDDD"/>
</linearGradient>
</defs>
</svg>
