<svg width="75" height="94" viewBox="0 0 75 94" fill="none" xmlns="http://www.w3.org/2000/svg">
<path fill-rule="evenodd" clip-rule="evenodd" d="M33.8231 2.58368C35.2081 -0.649639 39.7919 -0.649638 41.1769 2.58368L44.6675 10.7326C58.4289 13.4117 68.8497 23.1424 69.9108 35H75.0001C74.8886 41.4658 73.461 47.5722 71.0036 53H75.0001C74.6083 75.7181 57.969 94.0001 37.5 94.0001C17.0311 94.0001 0.391831 75.7181 0 53H3.99647C1.5391 47.5722 0.111518 41.4658 0 35H4.08916C5.17799 22.8331 16.1211 12.9055 30.4161 10.5375L33.8231 2.58368ZM29.3013 40.6045C28.7629 38.7584 26.1839 38.6617 25.5087 40.4623L22.0637 49.6489C21.8698 50.166 22.1318 50.7424 22.6489 50.9363C23.166 51.1302 23.7424 50.8682 23.9363 50.3511L27.3813 41.1645L30.04 50.28C30.1946 50.8102 30.7498 51.1146 31.28 50.96C31.8102 50.8054 32.1146 50.2502 31.96 49.72L29.3013 40.6045ZM44.5087 25.4623C45.1839 23.6617 47.7629 23.7584 48.3013 25.6045L50.96 34.72C51.1146 35.2502 50.8102 35.8054 50.28 35.96C49.7498 36.1146 49.1946 35.8102 49.04 35.28L46.3813 26.1645L42.9363 35.3511C42.7424 35.8682 42.166 36.1302 41.6489 35.9363C41.1318 35.7424 40.8698 35.166 41.0637 34.6489L44.5087 25.4623ZM51.3013 59.6045C50.7629 57.7584 48.1839 57.6617 47.5087 59.4623L44.0637 68.6489C43.8698 69.166 44.1318 69.7424 44.6489 69.9363C45.166 70.1302 45.7424 69.8682 45.9363 69.3511L49.3813 60.1645L52.04 69.28C52.1946 69.8102 52.7498 70.1146 53.28 69.96C53.8102 69.8054 54.1146 69.2502 53.96 68.72L51.3013 59.6045Z" fill="#5A5A5A"/>
</svg>
