<svg width="50" height="50" viewBox="0 0 50 50" fill="none" xmlns="http://www.w3.org/2000/svg">
<path fill-rule="evenodd" clip-rule="evenodd" d="M19.4665 0.150986C24.2071 -1.13966 27.3242 6.20877 31.8229 8.3285C37.6928 11.0943 47.8011 7.58777 49.7297 14.4104C51.778 21.6564 41.6003 26.1575 38.8223 33.0892C37.093 37.404 40.4981 44.6595 36.7473 46.8037C32.3152 49.3376 27.6366 42.8804 22.6907 42.3114C20.2445 42.03 18.0913 43.7303 15.7017 44.3825C10.5789 45.7809 3.53494 53.2731 0.611736 48.3381C-2.51609 43.0576 7.32276 38.0374 8.23395 31.7753C8.7457 28.2583 3.97056 25.7529 4.41157 22.2238C4.85536 18.6725 8.49578 16.9962 10.4363 14.1511C13.6208 9.48213 14.3821 1.53525 19.4665 0.150986Z" fill="url(#paint0_linear_5_80)"/>
<defs>
<linearGradient id="paint0_linear_5_80" x1="25" y1="0" x2="25" y2="50" gradientUnits="userSpaceOnUse">
<stop stop-color="#C0C0C0"/>
<stop offset="1" stop-color="#DDDDDD"/>
</linearGradient>
</defs>
</svg>
