<svg width="50" height="50" viewBox="0 0 50 50" fill="none" xmlns="http://www.w3.org/2000/svg">
<path fill-rule="evenodd" clip-rule="evenodd" d="M27.4916 10.3685C32.6776 6.91432 36.3625 -0.68626 42.6146 0.0498831C47.731 0.652296 51.0229 8.16767 49.711 12.9846C48.1742 18.6277 37.2784 18.2641 36.0958 23.9863C35.0187 29.1975 44.783 31.8916 44.7052 37.2051C44.6288 42.4275 40.9781 48.6671 35.7171 49.8626C30.3742 51.0767 26.8019 43.885 21.5106 42.4758C16.0713 41.0272 9.37637 45.0471 4.94842 41.6681C0.607195 38.3553 -0.994567 31.6419 0.609421 26.526C2.20549 21.4353 8.20005 19.1334 12.8877 16.3456C15.5222 14.7789 18.8047 15.1771 21.6532 14.0113C23.8304 13.1202 25.5448 11.6651 27.4916 10.3685Z" fill="url(#paint0_linear_5_79)"/>
<defs>
<linearGradient id="paint0_linear_5_79" x1="25" y1="0" x2="25" y2="50" gradientUnits="userSpaceOnUse">
<stop stop-color="#C0C0C0"/>
<stop offset="1" stop-color="#DDDDDD"/>
</linearGradient>
</defs>
</svg>
