<svg width="50" height="42" viewBox="0 0 50 42" fill="none" xmlns="http://www.w3.org/2000/svg">
<path fill-rule="evenodd" clip-rule="evenodd" d="M23.5288 2.34764C26.5373 1.98789 31.0474 -1.72763 32.4005 0.983437C34.4881 5.16604 26.3813 11.1772 29.6187 14.5492C33.2881 18.3712 40.6808 11.8631 45.3137 14.4335C48.6386 16.2782 51.8391 22.9495 48.7465 25.1616C43.7484 28.7368 35.6534 21.5868 30.5428 24.9993C27.2953 27.1676 33.285 32.9068 31.7621 36.5025C30.49 39.506 26.3026 43.2762 23.5288 41.56C19.6094 39.1351 23.4262 30.1741 19.0755 28.6532C13.9498 26.8614 9.52763 35.9282 4.21459 34.8084C0.637773 34.0544 -0.67817 28.2159 0.327177 24.7014C1.4899 20.6368 8.59659 20.334 9.53439 16.2117C10.4732 12.0847 3.1394 8.40199 4.90975 4.5576C6.43857 1.2377 11.9936 3.42042 15.6232 2.98962C18.282 2.67404 20.8703 2.66554 23.5288 2.34764Z" fill="url(#paint0_linear_4_50)"/>
<defs>
<linearGradient id="paint0_linear_4_50" x1="25" y1="0" x2="25" y2="41.9905" gradientUnits="userSpaceOnUse">
<stop stop-color="#C0C0C0"/>
<stop offset="1" stop-color="#DDDDDD"/>
</linearGradient>
</defs>
</svg>
