<svg width="50" height="50" viewBox="0 0 50 50" fill="none" xmlns="http://www.w3.org/2000/svg">
<path fill-rule="evenodd" clip-rule="evenodd" d="M22.7109 0.0374411C27.0274 -0.665439 26.5364 8.73822 30.5139 10.5889C34.6271 12.5027 41.0938 6.2614 43.8868 9.89034C46.6922 13.5354 38.967 18.5927 40.1242 23.0755C41.3444 27.8023 50.4976 28.6295 49.9788 33.4889C49.4955 38.0153 42.3413 37.8603 38.3327 39.8546C35.6981 41.1654 32.8529 41.7626 30.3206 43.269C27.5373 44.9248 25.7672 48.1091 22.7109 49.148C19.3417 50.2934 15.6702 50.1767 12.1952 49.4306C8.27077 48.588 3.5699 47.9424 1.31726 44.5547C-0.970547 41.114 0.322511 36.3811 0.769517 32.2475C1.13238 28.892 3.13976 26.0291 3.68073 22.6987C4.26247 19.1174 1.25444 14.1732 4.06627 11.9516C7.26852 9.42153 12.5887 15.1421 16.0209 12.9489C20.1144 10.3331 17.9422 0.813968 22.7109 0.0374411Z" fill="url(#paint0_linear_4_55)"/>
<defs>
<linearGradient id="paint0_linear_4_55" x1="25" y1="0" x2="25" y2="50" gradientUnits="userSpaceOnUse">
<stop stop-color="#C0C0C0"/>
<stop offset="1" stop-color="#DDDDDD"/>
</linearGradient>
</defs>
</svg>
