<svg width="50" height="50" viewBox="0 0 50 50" fill="none" xmlns="http://www.w3.org/2000/svg">
<path fill-rule="evenodd" clip-rule="evenodd" d="M25.9466 0.227303C30.5471 -1.69712 29.746 9.15691 33.9287 11.7488C37.2221 13.7896 42.4746 10.3762 45.7195 12.4799C48.7581 14.4499 50.9761 18.7506 49.5652 21.8861C47.7754 25.8637 38.9137 25.0574 38.1522 29.2973C37.3142 33.9635 48.3207 37.0545 46.0746 41.3212C44.1167 45.0406 37.1993 38.7406 32.7453 39.5684C29.7334 40.1282 28.5885 43.6366 25.9466 45.0621C22.0729 47.1523 18.0762 50.7705 13.6829 49.8541C9.64698 49.0123 8.67203 44.0494 6.3096 40.9663C4.08163 38.0586 -0.733222 35.5801 0.0946338 32.1204C1.09803 27.9272 7.32092 26.7729 10.4721 23.5709C12.0387 21.979 11.965 19.2695 13.9159 18.0762C15.8792 16.8753 19.6326 19.0445 20.8674 17.2125C24.2843 12.1432 19.9958 2.71659 25.9466 0.227303Z" fill="url(#paint0_linear_5_89)"/>
<defs>
<linearGradient id="paint0_linear_5_89" x1="25" y1="0" x2="25" y2="50" gradientUnits="userSpaceOnUse">
<stop stop-color="#C0C0C0"/>
<stop offset="1" stop-color="#DDDDDD"/>
</linearGradient>
</defs>
</svg>
