<svg width="50" height="50" viewBox="0 0 50 50" fill="none" xmlns="http://www.w3.org/2000/svg">
<path fill-rule="evenodd" clip-rule="evenodd" d="M27.601 10.7973C31.9737 8.3403 33.8675 -0.636261 38.6821 0.035826C42.6416 0.588555 41.7363 8.5191 43.0148 12.949C43.9278 16.1125 44.0732 19.4497 45.174 22.5299C46.3836 25.9145 50.9831 28.5621 49.8103 31.9645C48.4274 35.9762 41.9888 33.9799 39.9767 37.607C38.1231 40.9485 42.8775 47.1054 40.1191 49.4348C37.353 51.7706 33.9317 46.1499 30.5608 45.5582C28.4951 45.1956 26.5142 46.4184 24.4376 46.6821C21.7269 47.0263 18.5501 49.2778 16.368 47.3604C14.1705 45.4295 16.7423 40.041 14.5952 38.0336C10.6926 34.385 3.16823 37.5389 0.540229 32.5626C-1.44456 28.8042 2.45603 23.4172 5.49541 20.8025C8.72959 18.0202 13.7547 20.6568 17.1937 18.236C19.3595 16.7115 18.2592 11.8412 20.4161 10.2995C22.4875 8.81905 25.4135 12.0265 27.601 10.7973Z" fill="url(#paint0_linear_6_104)"/>
<defs>
<linearGradient id="paint0_linear_6_104" x1="25" y1="0" x2="25" y2="50" gradientUnits="userSpaceOnUse">
<stop stop-color="#C0C0C0"/>
<stop offset="1" stop-color="#DDDDDD"/>
</linearGradient>
</defs>
</svg>
