<svg width="50" height="50" viewBox="0 0 50 50" fill="none" xmlns="http://www.w3.org/2000/svg">
<path fill-rule="evenodd" clip-rule="evenodd" d="M26.1872 0.151247C29.5797 -0.75694 32.8293 2.62364 35.2987 4.9892C37.5288 7.12545 37.182 10.9026 39.5258 12.9286C42.2042 15.2439 48.5459 13.805 49.3534 17.1384C50.2078 20.6652 42.5347 22.2165 42.6516 25.8319C42.7958 30.2878 49.9572 32.6594 49.9998 37.1172C50.0349 40.7999 45.9707 43.5128 42.8416 45.7328C39.6929 47.9666 35.9325 49.5781 32 49.8873C28.1802 50.1876 23.5865 50.0461 20.9248 47.4558C17.8613 44.4745 21.0829 37.8372 17.3494 35.6298C13.2211 33.1891 7.19152 39.0453 2.92951 36.8164C-0.313659 35.1204 -0.336007 30.1752 0.37767 26.7542C1.09457 23.3179 5.58258 21.6013 6.79456 18.2897C7.9789 15.0537 4.30824 10.2386 7.18898 8.14313C10.3874 5.81658 15.436 10.8714 19.1282 9.3182C22.8334 7.75958 22.2829 1.19648 26.1872 0.151247Z" fill="url(#paint0_linear_6_107)"/>
<defs>
<linearGradient id="paint0_linear_6_107" x1="25" y1="0" x2="25" y2="50" gradientUnits="userSpaceOnUse">
<stop stop-color="#C0C0C0"/>
<stop offset="1" stop-color="#DDDDDD"/>
</linearGradient>
</defs>
</svg>
