<svg width="50" height="45" viewBox="0 0 50 45" fill="none" xmlns="http://www.w3.org/2000/svg">
<path fill-rule="evenodd" clip-rule="evenodd" d="M25.5906 0.209545C28.6637 0.499877 32.568 1.2808 33.8771 4.07627C35.5277 7.60101 29.7207 13.142 32.7758 15.5534C37.0572 18.9327 44.5165 12.75 48.9287 15.9566C51.7771 18.0268 48.1054 22.819 47.5593 26.2976C46.9777 30.0026 47.5602 34.041 45.5888 37.2315C43.5792 40.4839 40.3596 44.5887 36.5701 44.0826C31.7073 43.4331 30.1071 36.4761 25.5906 34.5606C23.2684 33.5757 20.1448 38.1064 18.3354 36.349C16.136 34.2129 20.798 28.696 18.0838 27.2698C12.8418 24.5154 4.18767 31.6679 0.543527 27.0002C-2.29995 23.3581 6.74391 20.1697 10.7689 17.9005C13.3518 16.4442 18.384 19.1394 19.4166 16.3598C21.0887 11.8591 14.7997 6.92064 16.5141 2.4359C17.6406 -0.510854 22.4498 -0.0871762 25.5906 0.209545Z" fill="url(#paint0_linear_4_31)"/>
<defs>
<linearGradient id="paint0_linear_4_31" x1="25" y1="0" x2="25" y2="44.1252" gradientUnits="userSpaceOnUse">
<stop stop-color="#C0C0C0"/>
<stop offset="1" stop-color="#DDDDDD"/>
</linearGradient>
</defs>
</svg>
