<svg width="56" height="56" viewBox="0 0 56 56" fill="none" xmlns="http://www.w3.org/2000/svg">
<ellipse cx="30.8479" cy="14.704" rx="13.056" ry="8.70397" fill="#FEC4E6"/>
<path d="M18.8799 14.704L7.99998 21.232L7.99998 7.08801L18.8799 14.704Z" fill="#FEC4E6"/>
<ellipse cx="26.8479" cy="41.704" rx="13.056" ry="8.70397" fill="#F779C2"/>
<path d="M38.8159 41.704L49.6958 35.176V49.3199L38.8159 41.704Z" fill="#F779C2"/>
<path d="M14.8799 41.704L3.99998 48.232L3.99998 34.088L14.8799 41.704Z" fill="#F779C2"/>
<path d="M42.208 14.704L53.088 21.232V7.08801L42.208 14.704Z" fill="#FEC4E6"/>
<rect x="15" y="11" width="2" height="2" fill="#BD3785"/>
<rect x="13" y="10" width="3" height="2" fill="#BD3785"/>
<rect x="7" y="6" width="2" height="14" fill="#BD3785"/>
<rect x="9" y="7" width="2" height="2" fill="#BD3785"/>
<rect x="10" y="8" width="2" height="2" fill="#BD3785"/>
<rect x="12" y="9" width="2" height="2" fill="#BD3785"/>
<rect width="2" height="2" transform="matrix(1 0 0 -1 15 17)" fill="#BD3785"/>
<rect width="3" height="2" transform="matrix(1 0 0 -1 13 18)" fill="#BD3785"/>
<rect width="2" height="2" transform="matrix(1 0 0 -1 7 22)" fill="#BD3785"/>
<rect width="2" height="2" transform="matrix(1 0 0 -1 9 21)" fill="#BD3785"/>
<rect width="2" height="2" transform="matrix(1 0 0 -1 10 20)" fill="#BD3785"/>
<rect width="2" height="2" transform="matrix(1 0 0 -1 12 19)" fill="#BD3785"/>
<rect x="46" y="17" width="2" height="2" transform="rotate(180 46 17)" fill="#BD3785"/>
<rect x="48" y="18" width="3" height="2" transform="rotate(180 48 18)" fill="#BD3785"/>
<rect x="54" y="22" width="2" height="2" transform="rotate(180 54 22)" fill="#BD3785"/>
<rect x="52" y="21" width="2" height="2" transform="rotate(180 52 21)" fill="#BD3785"/>
<rect x="51" y="20" width="2" height="2" transform="rotate(180 51 20)" fill="#BD3785"/>
<rect x="49" y="19" width="2" height="2" transform="rotate(180 49 19)" fill="#BD3785"/>
<rect width="2" height="2" transform="matrix(-1 0 0 1 46 12)" fill="#BD3785"/>
<rect width="3" height="2" transform="matrix(-1 0 0 1 48 11)" fill="#BD3785"/>
<rect width="2" height="13" transform="matrix(-1 0 0 1 54 7)" fill="#BD3785"/>
<rect width="2" height="2" transform="matrix(-1 0 0 1 52 8)" fill="#BD3785"/>
<rect width="2" height="2" transform="matrix(-1 0 0 1 51 9)" fill="#BD3785"/>
<rect width="2" height="2" transform="matrix(-1 0 0 1 49 10)" fill="#BD3785"/>
<rect x="27" y="5" width="4" height="2" fill="#BD3785"/>
<rect x="16" y="12" width="3" height="2" fill="#BD3785"/>
<rect x="18" y="10" width="2" height="2" fill="#BD3785"/>
<rect x="19" y="9" width="2" height="2" fill="#BD3785"/>
<rect x="20" y="8" width="2" height="2" fill="#BD3785"/>
<rect x="21" y="7" width="2" height="2" fill="#BD3785"/>
<rect x="23" y="6" width="2" height="2" fill="#BD3785"/>
<rect x="25" y="5" width="2" height="2" fill="#BD3785"/>
<rect width="4" height="2" transform="matrix(-1 0 0 1 35 5)" fill="#BD3785"/>
<rect width="3" height="2" transform="matrix(-1 0 0 1 46 12)" fill="#BD3785"/>
<rect width="2" height="2" transform="matrix(-1 0 0 1 44 10)" fill="#BD3785"/>
<rect width="2" height="2" transform="matrix(-1 0 0 1 43 9)" fill="#BD3785"/>
<rect width="2" height="2" transform="matrix(-1 0 0 1 42 8)" fill="#BD3785"/>
<rect width="2" height="2" transform="matrix(-1 0 0 1 41 7)" fill="#BD3785"/>
<rect width="2" height="2" transform="matrix(-1 0 0 1 39 6)" fill="#BD3785"/>
<rect width="2" height="2" transform="matrix(-1 0 0 1 37 5)" fill="#BD3785"/>
<rect x="35" y="24" width="4" height="2" transform="rotate(-180 35 24)" fill="#BD3785"/>
<rect x="46" y="17" width="3" height="2" transform="rotate(-180 46 17)" fill="#BD3785"/>
<rect x="44" y="19" width="2" height="2" transform="rotate(-180 44 19)" fill="#BD3785"/>
<rect x="43" y="20" width="2" height="2" transform="rotate(-180 43 20)" fill="#BD3785"/>
<rect x="42" y="21" width="2" height="2" transform="rotate(-180 42 21)" fill="#BD3785"/>
<rect x="41" y="22" width="2" height="2" transform="rotate(-180 41 22)" fill="#BD3785"/>
<rect x="39" y="23" width="2" height="2" transform="rotate(-180 39 23)" fill="#BD3785"/>
<rect x="37" y="24" width="2" height="2" transform="rotate(-180 37 24)" fill="#BD3785"/>
<rect width="4" height="2" transform="matrix(1 0 0 -1 27 24)" fill="#BD3785"/>
<rect width="3" height="2" transform="matrix(1 0 0 -1 16 17)" fill="#BD3785"/>
<rect width="2" height="2" transform="matrix(1 0 0 -1 18 19)" fill="#BD3785"/>
<rect width="2" height="2" transform="matrix(1 0 0 -1 19 20)" fill="#BD3785"/>
<rect width="2" height="2" transform="matrix(1 0 0 -1 20 21)" fill="#BD3785"/>
<rect width="2" height="2" transform="matrix(1 0 0 -1 21 22)" fill="#BD3785"/>
<rect width="2" height="2" transform="matrix(1 0 0 -1 23 23)" fill="#BD3785"/>
<rect width="2" height="2" transform="matrix(1 0 0 -1 25 24)" fill="#BD3785"/>
<rect x="11" y="38" width="2" height="2" fill="#BD3785"/>
<rect x="9" y="37" width="3" height="2" fill="#BD3785"/>
<rect x="3" y="33" width="2" height="14" fill="#BD3785"/>
<rect x="5" y="34" width="2" height="2" fill="#BD3785"/>
<rect x="6" y="35" width="2" height="2" fill="#BD3785"/>
<rect x="8" y="36" width="2" height="2" fill="#BD3785"/>
<rect width="2" height="2" transform="matrix(1 0 0 -1 11 44)" fill="#BD3785"/>
<rect width="3" height="2" transform="matrix(1 0 0 -1 9 45)" fill="#BD3785"/>
<rect width="2" height="2" transform="matrix(1 0 0 -1 3 49)" fill="#BD3785"/>
<rect width="2" height="2" transform="matrix(1 0 0 -1 5 48)" fill="#BD3785"/>
<rect width="2" height="2" transform="matrix(1 0 0 -1 6 47)" fill="#BD3785"/>
<rect width="2" height="2" transform="matrix(1 0 0 -1 8 46)" fill="#BD3785"/>
<rect x="42" y="44" width="2" height="2" transform="rotate(180 42 44)" fill="#BD3785"/>
<rect x="44" y="45" width="3" height="2" transform="rotate(180 44 45)" fill="#BD3785"/>
<rect x="50" y="49" width="2" height="2" transform="rotate(180 50 49)" fill="#BD3785"/>
<rect x="48" y="48" width="2" height="2" transform="rotate(180 48 48)" fill="#BD3785"/>
<rect x="47" y="47" width="2" height="2" transform="rotate(180 47 47)" fill="#BD3785"/>
<rect x="45" y="46" width="2" height="2" transform="rotate(180 45 46)" fill="#BD3785"/>
<rect width="2" height="2" transform="matrix(-1 0 0 1 42 39)" fill="#BD3785"/>
<rect width="3" height="2" transform="matrix(-1 0 0 1 44 38)" fill="#BD3785"/>
<rect width="2" height="13" transform="matrix(-1 0 0 1 50 34)" fill="#BD3785"/>
<rect width="2" height="2" transform="matrix(-1 0 0 1 48 35)" fill="#BD3785"/>
<rect width="2" height="2" transform="matrix(-1 0 0 1 47 36)" fill="#BD3785"/>
<rect width="2" height="2" transform="matrix(-1 0 0 1 45 37)" fill="#BD3785"/>
<rect x="23" y="32" width="4" height="2" fill="#BD3785"/>
<rect x="12" y="39" width="3" height="2" fill="#BD3785"/>
<rect x="14" y="37" width="2" height="2" fill="#BD3785"/>
<rect x="15" y="36" width="2" height="2" fill="#BD3785"/>
<rect x="16" y="35" width="2" height="2" fill="#BD3785"/>
<rect x="17" y="34" width="2" height="2" fill="#BD3785"/>
<rect x="19" y="33" width="2" height="2" fill="#BD3785"/>
<rect x="21" y="32" width="2" height="2" fill="#BD3785"/>
<rect width="4" height="2" transform="matrix(-1 0 0 1 31 32)" fill="#BD3785"/>
<rect width="3" height="2" transform="matrix(-1 0 0 1 42 39)" fill="#BD3785"/>
<rect width="2" height="2" transform="matrix(-1 0 0 1 40 37)" fill="#BD3785"/>
<rect width="2" height="2" transform="matrix(-1 0 0 1 39 36)" fill="#BD3785"/>
<rect width="2" height="2" transform="matrix(-1 0 0 1 38 35)" fill="#BD3785"/>
<rect width="2" height="2" transform="matrix(-1 0 0 1 37 34)" fill="#BD3785"/>
<rect width="2" height="2" transform="matrix(-1 0 0 1 35 33)" fill="#BD3785"/>
<rect width="2" height="2" transform="matrix(-1 0 0 1 33 32)" fill="#BD3785"/>
<rect x="31" y="51" width="4" height="2" transform="rotate(-180 31 51)" fill="#BD3785"/>
<rect x="42" y="44" width="3" height="2" transform="rotate(-180 42 44)" fill="#BD3785"/>
<rect x="40" y="46" width="2" height="2" transform="rotate(-180 40 46)" fill="#BD3785"/>
<rect x="39" y="47" width="2" height="2" transform="rotate(-180 39 47)" fill="#BD3785"/>
<rect x="38" y="48" width="2" height="2" transform="rotate(-180 38 48)" fill="#BD3785"/>
<rect x="37" y="49" width="2" height="2" transform="rotate(-180 37 49)" fill="#BD3785"/>
<rect x="35" y="50" width="2" height="2" transform="rotate(-180 35 50)" fill="#BD3785"/>
<rect x="33" y="51" width="2" height="2" transform="rotate(-180 33 51)" fill="#BD3785"/>
<rect width="4" height="2" transform="matrix(1 0 0 -1 23 51)" fill="#BD3785"/>
<rect width="3" height="2" transform="matrix(1 0 0 -1 12 44)" fill="#BD3785"/>
<rect width="2" height="2" transform="matrix(1 0 0 -1 14 46)" fill="#BD3785"/>
<rect width="2" height="2" transform="matrix(1 0 0 -1 15 47)" fill="#BD3785"/>
<rect width="2" height="2" transform="matrix(1 0 0 -1 16 48)" fill="#BD3785"/>
<rect width="2" height="2" transform="matrix(1 0 0 -1 17 49)" fill="#BD3785"/>
<rect width="2" height="2" transform="matrix(1 0 0 -1 19 50)" fill="#BD3785"/>
<rect width="2" height="2" transform="matrix(1 0 0 -1 21 51)" fill="#BD3785"/>
</svg>
