<svg width="56" height="57" viewBox="0 0 56 57" fill="none" xmlns="http://www.w3.org/2000/svg">
<ellipse cx="28" cy="16" rx="16" ry="6" fill="#FBD9B6"/>
<path d="M11 16H44L36.8923 54H18.6154L11 16Z" fill="#FFC281"/>
<rect x="22" y="24" width="2" height="4" fill="#FA9E3C"/>
<rect x="32" y="24" width="2" height="4" fill="#FA9E3C"/>
<rect x="11" y="15" width="34" height="2" fill="#FA9E3C"/>
<rect x="18" y="52" width="2" height="2" fill="#FA9E3C"/>
<rect x="17" y="50" width="2" height="2" fill="#FA9E3C"/>
<rect x="17" y="48" width="2" height="2" fill="#FA9E3C"/>
<rect x="17" y="46" width="2" height="2" fill="#FA9E3C"/>
<rect x="16" y="44" width="2" height="2" fill="#FA9E3C"/>
<rect x="15" y="42" width="2" height="2" fill="#FA9E3C"/>
<rect x="15" y="40" width="2" height="2" fill="#FA9E3C"/>
<rect x="15" y="38" width="2" height="2" fill="#FA9E3C"/>
<rect x="14" y="33" width="2" height="2" fill="#FA9E3C"/>
<rect x="14" y="35" width="2" height="2" fill="#FA9E3C"/>
<rect x="14" y="36" width="2" height="2" fill="#FA9E3C"/>
<rect x="13" y="30" width="2" height="2" fill="#FA9E3C"/>
<rect x="13" y="31" width="2" height="2" fill="#FA9E3C"/>
<rect x="13" y="28" width="2" height="2" fill="#FA9E3C"/>
<rect x="12" y="26" width="2" height="2" fill="#FA9E3C"/>
<rect x="12" y="24" width="2" height="2" fill="#FA9E3C"/>
<rect x="12" y="20" width="2" height="2" fill="#FA9E3C"/>
<rect x="11" y="17" width="2" height="2" fill="#FA9E3C"/>
<rect x="12" y="13" width="2" height="2" fill="#FA9E3C"/>
<rect x="42" y="13" width="2" height="2" fill="#FA9E3C"/>
<rect x="40" y="12" width="2" height="2" fill="#FA9E3C"/>
<rect x="38" y="11" width="2" height="2" fill="#FA9E3C"/>
<rect x="35" y="11" width="2" height="2" fill="#FA9E3C"/>
<rect x="36" y="10" width="2" height="2" fill="#FA9E3C"/>
<rect x="35" y="1" width="2" height="10" fill="#FA9E3C"/>
<rect x="30" y="1" width="2" height="12" fill="#FA9E3C"/>
<rect x="13" y="12" width="2" height="2" fill="#FA9E3C"/>
<rect x="14" y="11" width="2" height="2" fill="#FA9E3C"/>
<rect x="16" y="10" width="2" height="2" fill="#FA9E3C"/>
<rect x="31" y="1" width="4" height="2" fill="#FA9E3C"/>
<rect x="18" y="10" width="2" height="2" fill="#FA9E3C"/>
<rect x="19" y="9" width="16" height="2" fill="#FA9E3C"/>
<rect x="12" y="19" width="2" height="2" fill="#FA9E3C"/>
<rect x="12" y="22" width="2" height="2" fill="#FA9E3C"/>
<rect width="2" height="2" transform="matrix(-1 0 0 1 38 52)" fill="#FA9E3C"/>
<rect width="2" height="2" transform="matrix(-1 0 0 1 39 50)" fill="#FA9E3C"/>
<rect width="2" height="2" transform="matrix(-1 0 0 1 39 48)" fill="#FA9E3C"/>
<rect width="2" height="2" transform="matrix(-1 0 0 1 39 46)" fill="#FA9E3C"/>
<rect width="2" height="2" transform="matrix(-1 0 0 1 40 44)" fill="#FA9E3C"/>
<rect width="2" height="2" transform="matrix(-1 0 0 1 41 42)" fill="#FA9E3C"/>
<rect width="2" height="2" transform="matrix(-1 0 0 1 41 40)" fill="#FA9E3C"/>
<rect width="2" height="2" transform="matrix(-1 0 0 1 41 38)" fill="#FA9E3C"/>
<rect width="2" height="2" transform="matrix(-1 0 0 1 42 33)" fill="#FA9E3C"/>
<rect width="2" height="2" transform="matrix(-1 0 0 1 42 35)" fill="#FA9E3C"/>
<rect width="2" height="2" transform="matrix(-1 0 0 1 42 36)" fill="#FA9E3C"/>
<rect width="2" height="2" transform="matrix(-1 0 0 1 43 30)" fill="#FA9E3C"/>
<rect width="2" height="2" transform="matrix(-1 0 0 1 43 31)" fill="#FA9E3C"/>
<rect width="2" height="2" transform="matrix(-1 0 0 1 43 28)" fill="#FA9E3C"/>
<rect width="2" height="2" transform="matrix(-1 0 0 1 44 26)" fill="#FA9E3C"/>
<rect width="2" height="2" transform="matrix(-1 0 0 1 44 24)" fill="#FA9E3C"/>
<rect width="2" height="2" transform="matrix(-1 0 0 1 44 20)" fill="#FA9E3C"/>
<rect width="2" height="2" transform="matrix(-1 0 0 1 45 17)" fill="#FA9E3C"/>
<rect width="2" height="2" transform="matrix(-1 0 0 1 44 19)" fill="#FA9E3C"/>
<rect width="2" height="2" transform="matrix(-1 0 0 1 44 22)" fill="#FA9E3C"/>
<rect x="19" y="54" width="18" height="2" fill="#FA9E3C"/>
<rect x="32" y="3" width="3" height="10" fill="#FFC281"/>
</svg>
