<svg width="50" height="50" viewBox="0 0 50 50" fill="none" xmlns="http://www.w3.org/2000/svg">
<path fill-rule="evenodd" clip-rule="evenodd" d="M26.9543 0.199761C31.8069 2.19872 28.0413 12.3823 32.6486 14.9124C36.7688 17.1749 41.414 9.14257 45.8743 10.5897C49.205 11.6703 50.7518 17.0509 49.6459 20.427C48.2394 24.7208 40.2208 24.8017 39.7446 29.3018C39.2703 33.7848 47.666 35.5427 47.5694 40.0505C47.4982 43.3775 42.3849 44.0162 39.4005 45.3735C36.7479 46.5799 33.8698 46.8402 31.0525 47.5622C28.1415 48.3081 25.2071 50.8214 22.4037 49.7289C19.4602 48.5818 19.2251 44.1921 16.8861 42.0414C14.8444 40.164 12.02 39.5983 9.71819 38.0643C6.32939 35.806 0.607469 34.8959 0.0379218 30.8134C-0.519888 26.815 5.22621 24.8421 7.40252 21.4657C9.01184 18.9689 9.19072 15.6673 11.2017 13.4932C13.2021 11.3307 16.5111 11.0858 18.7575 9.19012C21.8837 6.55193 23.1901 -1.35081 26.9543 0.199761Z" fill="url(#paint0_linear_4_61)"/>
<defs>
<linearGradient id="paint0_linear_4_61" x1="25" y1="0" x2="25" y2="50" gradientUnits="userSpaceOnUse">
<stop stop-color="#C0C0C0"/>
<stop offset="1" stop-color="#DDDDDD"/>
</linearGradient>
</defs>
</svg>
