<svg width="94" height="94" viewBox="0 0 94 94" fill="none" xmlns="http://www.w3.org/2000/svg">
<path d="M46 40.2104V10.2361C46 8.74931 44.4354 7.78231 43.1056 8.44721L20.7248 19.6376C19.4374 20.2813 19.231 22.0331 20.3334 22.9584L42.7143 41.7423C44.0156 42.8345 46 41.9093 46 40.2104Z" fill="#5A5A5A"/>
<path d="M49 10.6846V39.7689C49 41.458 50.9643 42.3865 52.2695 41.3144L74.5807 22.9873C75.7095 22.06 75.4957 20.2747 74.1798 19.6403L51.8686 8.88307C50.5407 8.24282 49 9.2104 49 10.6846Z" fill="#5A5A5A"/>
<path d="M40.1063 47.4456L12.1211 54.242C10.6821 54.5915 9.3755 53.3103 9.69674 51.8646L15.2938 26.678C15.6173 25.2221 17.3632 24.6197 18.5156 25.5664L40.9038 43.9567C42.1783 45.0036 41.709 47.0564 40.1063 47.4456Z" fill="#5A5A5A"/>
<path d="M75.9778 25.6095L54.0273 43.968C52.7708 45.019 53.2414 47.0522 54.832 47.4441L82.3699 54.2288C83.8105 54.5838 85.1226 53.3015 84.8007 51.853L79.2133 26.7098C78.8881 25.2463 77.1278 24.6477 75.9778 25.6095Z" fill="#5A5A5A"/>
<path d="M12.9788 57.2766L41.0013 50.4711C42.623 50.0773 43.9853 51.7257 43.2931 53.2443L30.8831 80.4661C30.2567 81.8401 28.3919 82.0509 27.4746 80.8514L11.8621 60.435C10.9848 59.2878 11.5754 57.6174 12.9788 57.2766Z" fill="#5A5A5A"/>
<path d="M33.3139 81.6602L45.6849 54.923C46.4006 53.3761 48.5994 53.3761 49.3151 54.923L61.686 81.6602C62.2993 82.9856 61.3313 84.5 59.8709 84.5H35.1291C33.6687 84.5 32.7007 82.9856 33.3139 81.6602Z" fill="#5A5A5A"/>
<path d="M51.7404 53.2614L64.1237 80.0254C64.7522 81.3838 66.5953 81.5958 67.5158 80.4156L83.0948 60.4425C83.9881 59.2973 83.4013 57.6117 81.9898 57.269L54.0275 50.4781C52.4007 50.083 51.0374 51.7421 51.7404 53.2614Z" fill="#5A5A5A"/>
<path fill-rule="evenodd" clip-rule="evenodd" d="M94 47C94 72.9574 72.9574 94 47 94C21.0426 94 0 72.9574 0 47C0 21.0426 21.0426 0 47 0C72.9574 0 94 21.0426 94 47ZM89 47C89 70.196 70.196 89 47 89C23.804 89 5 70.196 5 47C5 23.804 23.804 5 47 5C70.196 5 89 23.804 89 47Z" fill="#5A5A5A"/>
</svg>
