<svg width="50" height="50" viewBox="0 0 50 50" fill="none" xmlns="http://www.w3.org/2000/svg">
<path fill-rule="evenodd" clip-rule="evenodd" d="M25.3851 4.44024C30.8544 3.10048 37.6733 -2.3248 41.6566 1.13601C46.127 5.02007 38.1409 11.8211 39.8979 17.0494C41.2323 21.0204 51.0409 21.6777 49.9093 25.6942C48.7212 29.9112 38.5132 26.7735 36.0842 30.5852C32.4513 36.286 41.3681 46.5229 34.6687 49.6104C28.6893 52.3662 26.6192 39.6583 20.1265 37.9396C13.8191 36.27 4.92348 45.2075 0.983571 40.6939C-3.12083 35.9918 6.83507 30.4059 8.60965 24.7457C9.49126 21.9337 7.73919 18.9929 8.66555 16.1914C9.70135 13.0589 11.2443 9.9354 14.1919 7.86368C17.3124 5.67046 21.4964 5.3928 25.3851 4.44024Z" fill="url(#paint0_linear_5_77)"/>
<defs>
<linearGradient id="paint0_linear_5_77" x1="25" y1="0" x2="25" y2="50" gradientUnits="userSpaceOnUse">
<stop stop-color="#C0C0C0"/>
<stop offset="1" stop-color="#DDDDDD"/>
</linearGradient>
</defs>
</svg>
