<svg width="50" height="50" viewBox="0 0 50 50" fill="none" xmlns="http://www.w3.org/2000/svg">
<path fill-rule="evenodd" clip-rule="evenodd" d="M22.3969 5.22419C26.3754 3.56712 29.7648 -0.151182 34.0717 0.00475696C38.2232 0.155071 42.0076 2.98033 44.8228 6.03616C47.6449 9.09963 50.2727 13.1151 49.9772 17.2704C49.6656 21.6529 43.7048 24.0568 43.2309 28.4248C42.7593 32.7706 50.8419 37.9564 47.4354 40.6946C43.0891 44.1883 36.5118 36.9263 31.0812 38.1908C28.2322 38.8542 28.752 43.6946 26.5052 45.5683C23.9402 47.7073 20.335 51.2307 17.4386 49.5678C13.9452 47.5621 17.0193 40.4901 13.6958 38.2139C10.2268 35.8381 4.53472 41.0537 1.22346 38.4624C-1.43088 36.3852 1.03044 31.8247 1.23127 28.4596C1.40823 25.4946 1.96168 22.6622 2.34223 19.7163C2.7919 16.2354 1.15859 11.8156 3.6947 9.38999C6.3118 6.88688 10.8394 8.99617 14.3737 8.20891C17.1896 7.58169 19.7336 6.33342 22.3969 5.22419Z" fill="url(#paint0_linear_4_68)"/>
<defs>
<linearGradient id="paint0_linear_4_68" x1="25" y1="0" x2="25" y2="50" gradientUnits="userSpaceOnUse">
<stop stop-color="#C0C0C0"/>
<stop offset="1" stop-color="#DDDDDD"/>
</linearGradient>
</defs>
</svg>
