<svg width="50" height="50" viewBox="0 0 50 50" fill="none" xmlns="http://www.w3.org/2000/svg">
<path fill-rule="evenodd" clip-rule="evenodd" d="M23.21 6.01712C25.8103 6.88792 29.0179 4.93613 31.3318 6.41414C33.7056 7.93042 33.0542 12.1411 35.3515 13.7725C38.5525 16.0457 43.6873 14.3975 46.4748 17.1681C49.0269 19.7048 51.2506 24.5721 49.1894 27.5267C46.4783 31.4128 40.1768 30.0237 35.9859 32.2034C34.1626 33.1517 32.6473 34.7462 31.7428 36.6008C29.945 40.2875 31.1856 45.4825 28.1644 48.2423C25.6385 50.5497 21.2617 50.3156 18.0782 49.083C14.8658 47.8393 13.2118 44.3193 11.056 41.6184C9.27796 39.3908 7.9078 36.9711 6.45248 34.5176C4.97972 32.0347 3.37434 29.6935 2.3746 26.9824C1.20426 23.8086 -0.34878 20.5679 0.0697611 17.2088C0.499287 13.7616 2.72936 10.859 4.73579 8.03227C6.88112 5.00981 8.5956 0.428782 12.2642 0.0286132C16.4383 -0.42669 19.2262 4.68297 23.21 6.01712Z" fill="url(#paint0_linear_4_59)"/>
<defs>
<linearGradient id="paint0_linear_4_59" x1="25" y1="0" x2="25" y2="50" gradientUnits="userSpaceOnUse">
<stop stop-color="#C0C0C0"/>
<stop offset="1" stop-color="#DDDDDD"/>
</linearGradient>
</defs>
</svg>
