<svg width="79" height="91" viewBox="0 0 79 91" fill="none" xmlns="http://www.w3.org/2000/svg">
<path d="M60.2467 22.0077C60.8934 22.8975 61.6097 23.564 62.2751 23.9481C65.0335 25.5407 72.4325 25.4657 76.5223 18.3818C80.6122 11.298 77.4915 1.83937 75.6526 0.777668C73.8136 -0.284036 64.0619 1.74262 59.972 8.8265C59.2107 10.1451 58.7171 11.4415 58.4356 12.6886C57.9987 11.9793 57.4923 11.2999 56.9177 10.6618C56.1786 9.8409 54.914 9.77463 54.0932 10.5137C53.2723 11.2528 53.2061 12.5174 53.9452 13.3383C57.394 17.1686 57.1755 22.5404 54.0222 25.3796C53.2013 26.1187 53.135 27.3833 53.8741 28.2042C54.6132 29.025 55.8778 29.0913 56.6987 28.3522C58.6262 26.6167 59.7962 24.3886 60.2467 22.0077Z" fill="#5A5A5A"/>
<path d="M49 24.9999C49 30.5228 44.5228 34.9999 39 34.9999C33.4772 34.9999 29 30.5228 29 24.9999C29 19.4771 33.4772 14.9999 39 14.9999C44.5228 14.9999 49 19.4771 49 24.9999Z" fill="#5A5A5A"/>
<path d="M16 44.9999C21.5228 44.9999 26 40.5228 26 34.9999C26 29.4771 21.5228 24.9999 16 24.9999C10.4772 24.9999 6 29.4771 6 34.9999C6 40.5228 10.4772 44.9999 16 44.9999Z" fill="#5A5A5A"/>
<path d="M36 57.9999C41.5228 57.9999 46 53.5228 46 47.9999C46 42.4771 41.5228 37.9999 36 37.9999C30.4772 37.9999 26 42.4771 26 47.9999C26 53.5228 30.4772 57.9999 36 57.9999Z" fill="#5A5A5A"/>
<path d="M10 90.9999C15.5228 90.9999 20 86.5228 20 80.9999C20 75.4771 15.5228 70.9999 10 70.9999C4.47715 70.9999 0 75.4771 0 80.9999C0 86.5228 4.47715 90.9999 10 90.9999Z" fill="#5A5A5A"/>
<path d="M66 63.9999C66 69.5228 61.5228 73.9999 56 73.9999C50.4772 73.9999 46 69.5228 46 63.9999C46 58.4771 50.4772 53.9999 56 53.9999C61.5228 53.9999 66 58.4771 66 63.9999Z" fill="#5A5A5A"/>
<path d="M59 51.9999C64.5229 51.9999 69 47.5228 69 41.9999C69 36.4771 64.5229 31.9999 59 31.9999C53.4772 31.9999 49 36.4771 49 41.9999C49 47.5228 53.4772 51.9999 59 51.9999Z" fill="#5A5A5A"/>
<path d="M23 57.9999C23 63.5228 18.5228 67.9999 13 67.9999C7.47715 67.9999 3 63.5228 3 57.9999C3 52.4771 7.47715 47.9999 13 47.9999C18.5228 47.9999 23 52.4771 23 57.9999Z" fill="#5A5A5A"/>
<path d="M33 80.9999C38.5228 80.9999 43 76.5228 43 70.9999C43 65.4771 38.5228 60.9999 33 60.9999C27.4772 60.9999 23 65.4771 23 70.9999C23 76.5228 27.4772 80.9999 33 80.9999Z" fill="#5A5A5A"/>
</svg>
