<svg width="56" height="56" viewBox="0 0 56 56" fill="none" xmlns="http://www.w3.org/2000/svg">
<ellipse cx="36.5" cy="19" rx="6.5" ry="6" fill="#26DDF6"/>
<ellipse cx="14.5" cy="18" rx="6.5" ry="6" fill="#26DDF6"/>
<rect x="17" y="13" width="2" height="2" fill="#3A3A3A"/>
<rect x="14" y="17" width="2" height="2" fill="#3A3A3A"/>
<rect x="40" y="23" width="2" height="2" fill="#3A3A3A"/>
<rect x="38" y="24" width="2" height="2" fill="#3A3A3A"/>
<rect x="42" y="19" width="2" height="2" fill="#3A3A3A"/>
<rect x="41" y="21" width="2" height="2" fill="#3A3A3A"/>
<ellipse cx="25.5" cy="14" rx="9.5" ry="10" fill="#26DDF6"/>
<rect x="20" y="4" width="2" height="2" fill="#3A3A3A"/>
<rect x="40" y="14" width="2" height="2" fill="#3A3A3A"/>
<rect x="23" y="3" width="4" height="2" fill="#3A3A3A"/>
<rect x="16" y="9" width="2" height="2" fill="#3A3A3A"/>
<rect x="15" y="11" width="2" height="2" fill="#3A3A3A"/>
<rect x="12" y="23" width="2" height="2" fill="#3A3A3A"/>
<rect x="10" y="22" width="2" height="2" fill="#3A3A3A"/>
<rect x="8" y="21" width="2" height="2" fill="#3A3A3A"/>
<rect x="8" y="19" width="2" height="2" fill="#3A3A3A"/>
<rect x="7" y="17" width="2" height="2" fill="#3A3A3A"/>
<rect x="8" y="15" width="2" height="2" fill="#3A3A3A"/>
<rect x="9" y="13" width="2" height="2" fill="#3A3A3A"/>
<rect x="10" y="12" width="2" height="2" fill="#3A3A3A"/>
<rect x="12" y="11" width="3" height="2" fill="#3A3A3A"/>
<rect x="34" y="13" width="2" height="2" fill="#3A3A3A"/>
<rect x="17" y="7" width="2" height="2" fill="#3A3A3A"/>
<rect x="41" y="15" width="2" height="2" fill="#3A3A3A"/>
<rect x="39" y="13" width="2" height="2" fill="#3A3A3A"/>
<rect x="42" y="17" width="2" height="2" fill="#3A3A3A"/>
<rect x="34" y="11" width="2" height="2" fill="#3A3A3A"/>
<rect x="35" y="12" width="2" height="2" fill="#3A3A3A"/>
<rect x="37" y="12" width="2" height="2" fill="#3A3A3A"/>
<rect x="18" y="5" width="2" height="2" fill="#3A3A3A"/>
<rect x="14" y="19" width="24" height="2" fill="#3A3A3A"/>
<path d="M26 54L14.7417 21H37.2583L26 54Z" fill="#BF7301"/>
<rect x="25" y="52" width="2" height="2" fill="#3A3A3A"/>
<rect x="14" y="21" width="2" height="2" fill="#3A3A3A"/>
<rect x="14" y="23" width="2" height="2" fill="#3A3A3A"/>
<rect x="15" y="25" width="2" height="2" fill="#3A3A3A"/>
<rect x="17" y="28" width="2" height="2" fill="#3A3A3A"/>
<rect x="18" y="32" width="2" height="2" fill="#3A3A3A"/>
<rect x="19" y="36" width="2" height="2" fill="#3A3A3A"/>
<rect x="21" y="39" width="2" height="2" fill="#3A3A3A"/>
<rect x="22" y="43" width="2" height="2" fill="#3A3A3A"/>
<rect x="23" y="47" width="2" height="2" fill="#3A3A3A"/>
<rect x="15" y="27" width="2" height="2" fill="#3A3A3A"/>
<rect x="17" y="30" width="2" height="2" fill="#3A3A3A"/>
<rect x="18" y="34" width="2" height="2" fill="#3A3A3A"/>
<rect x="19" y="38" width="2" height="2" fill="#3A3A3A"/>
<rect x="21" y="41" width="2" height="2" fill="#3A3A3A"/>
<rect x="22" y="45" width="2" height="2" fill="#3A3A3A"/>
<rect x="23" y="49" width="2" height="2" fill="#3A3A3A"/>
<rect x="24" y="50" width="2" height="2" fill="#3A3A3A"/>
<rect width="2" height="2" transform="matrix(-1 0 0 1 27 52)" fill="#3A3A3A"/>
<rect width="2" height="2" transform="matrix(-1 0 0 1 38 21)" fill="#3A3A3A"/>
<rect width="2" height="2" transform="matrix(-1 0 0 1 38 23)" fill="#3A3A3A"/>
<rect width="2" height="2" transform="matrix(-1 0 0 1 37 25)" fill="#3A3A3A"/>
<rect width="2" height="2" transform="matrix(-1 0 0 1 35 28)" fill="#3A3A3A"/>
<rect width="2" height="2" transform="matrix(-1 0 0 1 34 32)" fill="#3A3A3A"/>
<rect width="2" height="2" transform="matrix(-1 0 0 1 33 36)" fill="#3A3A3A"/>
<rect width="2" height="2" transform="matrix(-1 0 0 1 31 39)" fill="#3A3A3A"/>
<rect width="2" height="2" transform="matrix(-1 0 0 1 30 43)" fill="#3A3A3A"/>
<rect width="2" height="2" transform="matrix(-1 0 0 1 29 47)" fill="#3A3A3A"/>
<rect width="2" height="2" transform="matrix(-1 0 0 1 37 27)" fill="#3A3A3A"/>
<rect width="2" height="2" transform="matrix(-1 0 0 1 35 30)" fill="#3A3A3A"/>
<rect width="2" height="2" transform="matrix(-1 0 0 1 34 34)" fill="#3A3A3A"/>
<rect width="2" height="2" transform="matrix(-1 0 0 1 33 38)" fill="#3A3A3A"/>
<rect width="2" height="2" transform="matrix(-1 0 0 1 31 41)" fill="#3A3A3A"/>
<rect width="2" height="2" transform="matrix(-1 0 0 1 30 45)" fill="#3A3A3A"/>
<rect width="2" height="2" transform="matrix(-1 0 0 1 29 49)" fill="#3A3A3A"/>
<rect width="2" height="2" transform="matrix(-1 0 0 1 28 50)" fill="#3A3A3A"/>
<rect x="33" y="9" width="2" height="2" fill="#3A3A3A"/>
<rect x="32" y="7" width="2" height="2" fill="#3A3A3A"/>
<rect x="31" y="5" width="2" height="2" fill="#3A3A3A"/>
<rect x="29" y="4" width="2" height="2" fill="#3A3A3A"/>
<rect x="27" y="3" width="2" height="2" fill="#3A3A3A"/>
<rect x="21" y="3" width="2" height="2" fill="#3A3A3A"/>
<rect x="27" y="11" width="2" height="2" fill="#3A3A3A"/>
<rect x="21" y="11" width="2" height="2" fill="#3A3A3A"/>
</svg>
