<svg width="50" height="50" viewBox="0 0 50 50" fill="none" xmlns="http://www.w3.org/2000/svg">
<path fill-rule="evenodd" clip-rule="evenodd" d="M27.6658 1.6361C31.7356 3.47551 31.6272 8.7127 35.3795 10.9542C38.0952 12.5765 43.4784 9.83239 45.2704 12.1524C47.2501 14.7156 42.1725 18.0291 43.1069 20.9587C43.9591 23.631 49.7195 24.1916 49.9877 26.9437C50.2333 29.4633 46.753 31.3112 44.2634 32.8257C42.0741 34.1576 39.0275 33.9953 36.6327 35.0684C34.5714 35.9921 32.7564 37.2096 31.2299 38.6659C27.5178 42.2069 26.5868 48.2499 21.1902 49.7996C17.1357 50.9639 13.5615 46.7618 10.0457 44.7493C6.49482 42.7166 0.338295 41.3923 0.335985 37.8621C0.332944 33.2135 10.0871 31.1914 10.0338 26.543C9.98771 22.5229 -1.19671 21.6364 0.105475 17.758C1.36811 13.9973 11.0474 18.0979 13.9178 14.975C17.2208 11.3813 11.3321 5.12609 14.8761 1.68752C17.6442 -0.998141 23.8986 -0.0665057 27.6658 1.6361Z" fill="url(#paint0_linear_4_75)"/>
<defs>
<linearGradient id="paint0_linear_4_75" x1="25" y1="0" x2="25" y2="50" gradientUnits="userSpaceOnUse">
<stop stop-color="#C0C0C0"/>
<stop offset="1" stop-color="#DDDDDD"/>
</linearGradient>
</defs>
</svg>
