<svg width="50" height="50" viewBox="0 0 50 50" fill="none" xmlns="http://www.w3.org/2000/svg">
<path fill-rule="evenodd" clip-rule="evenodd" d="M22.6882 2.68739C26.5761 5.01087 25.2835 10.9712 29.3344 13.0956C32.5643 14.7895 36.9475 11.2002 40.6175 12.0902C44.454 13.0205 50.2788 14.8069 49.9896 18.1043C49.6227 22.2885 41.3776 23.0507 39.32 26.8853C38.062 29.2299 41.3233 31.7553 41.2884 34.3201C41.2428 37.6736 41.3217 41.3051 39.0858 44.1031C36.8113 46.9494 32.7848 51.012 28.9421 49.7702C23.5133 48.0158 25.2348 38.7126 19.5165 37.779C13.6773 36.8256 10.6203 46.764 4.77782 45.8248C0.405797 45.122 3.42818 38.6637 2.55429 35.0523C1.9235 32.4455 0.553988 30.0354 0.315578 27.3843C0.0810946 24.7768 -0.570956 21.8409 1.16995 19.6582C2.97128 17.3997 8.44216 18.2356 9.62455 15.713C11.7352 11.21 6.00755 5.10056 9.73579 1.38317C12.543 -1.41583 19.1241 0.557439 22.6882 2.68739Z" fill="url(#paint0_linear_4_64)"/>
<defs>
<linearGradient id="paint0_linear_4_64" x1="25" y1="0" x2="25" y2="50" gradientUnits="userSpaceOnUse">
<stop stop-color="#C0C0C0"/>
<stop offset="1" stop-color="#DDDDDD"/>
</linearGradient>
</defs>
</svg>
