<svg width="50" height="50" viewBox="0 0 50 50" fill="none" xmlns="http://www.w3.org/2000/svg">
<path fill-rule="evenodd" clip-rule="evenodd" d="M22.5577 2.51827C25.0547 1.59907 27.6807 -0.980006 30.0676 0.39601C32.4339 1.76014 32.5846 6.53576 34.2458 9.25623C35.8575 11.8957 37.8149 13.9202 39.7025 16.1747C43.0972 20.2292 50.8943 21.8848 49.9157 27.9718C48.8608 34.5335 41.0274 32.5702 36.6275 35.3015C34.5778 36.5739 32.5418 37.8301 30.8146 39.829C28.9492 41.988 28.4244 46.3504 26.1328 47.4477C23.903 48.5153 21.6476 44.9985 19.3033 45.341C15.6897 45.8688 12.6455 50.5579 9.03884 49.9449C5.50059 49.3434 0.820257 46.9474 0.0884569 42.0749C-0.771378 36.35 4.90553 32.246 5.51131 26.458C5.9293 22.4641 1.72065 18.7161 2.91768 15.0423C4.18125 11.1644 8.32328 11.4014 11.0445 9.47619C12.9435 8.13272 14.6716 6.52517 16.6252 5.34451C18.564 4.17284 20.515 3.27024 22.5577 2.51827Z" fill="url(#paint0_linear_6_108)"/>
<defs>
<linearGradient id="paint0_linear_6_108" x1="25" y1="0" x2="25" y2="50" gradientUnits="userSpaceOnUse">
<stop stop-color="#C0C0C0"/>
<stop offset="1" stop-color="#DDDDDD"/>
</linearGradient>
</defs>
</svg>
