<svg width="50" height="50" viewBox="0 0 50 50" fill="none" xmlns="http://www.w3.org/2000/svg">
<path fill-rule="evenodd" clip-rule="evenodd" d="M25.5439 2.94154C28.6388 2.24974 32.7931 -1.84684 34.7438 0.988081C37.414 4.86868 30.9789 12.4472 34.2772 15.6334C38.2899 19.5098 48.2352 9.87673 49.8599 15.5908C51.4844 21.3037 38.4664 20.1964 37.2353 26.0366C36.2165 30.8702 44.6942 32.6891 45.2152 37.6254C45.6053 41.3213 42.0353 44.2684 39.388 46.4328C36.7458 48.5931 33.4321 50.5166 30.2335 49.8744C26.8814 49.2014 24.895 45.2507 22.1371 42.9693C20.3163 41.4631 18.6043 39.905 16.6495 38.6377C14.4476 37.2101 12.0405 36.4429 9.84605 35.0005C6.42023 32.7487 0.321325 32.2077 0.0107777 27.7012C-0.304924 23.1199 6.40206 22.1378 8.69993 18.3686C10.2339 15.8525 9.37879 12.0924 11.0108 9.65831C12.6589 7.20015 15.3056 5.93222 17.8163 4.77185C20.2823 3.63217 22.9337 3.52499 25.5439 2.94154Z" fill="url(#paint0_linear_4_67)"/>
<defs>
<linearGradient id="paint0_linear_4_67" x1="25" y1="0" x2="25" y2="50" gradientUnits="userSpaceOnUse">
<stop stop-color="#C0C0C0"/>
<stop offset="1" stop-color="#DDDDDD"/>
</linearGradient>
</defs>
</svg>
