<svg width="39" height="88" viewBox="0 0 39 88" fill="none" xmlns="http://www.w3.org/2000/svg">
<path d="M13 9.7074C13 15.0016 16.4414 15.0008 20.2502 15H20.54C24.3294 15.0008 27 15.0014 27 9.7074C27 4.34615 22.5454 0 20 0C17.4545 0 13 4.34615 13 9.7074Z" fill="#5A5A5A"/>
<path d="M19.9173 41.1634C15.9285 41.4789 10.0722 40.0944 5.90618 35.9284C-0.11716 29.9051 0.453069 19.5691 2.0111 18.0111C3.56817 16.454 13.8924 15.8835 19.9173 21.895C25.9423 15.8835 36.2665 16.454 37.8235 18.0111C39.3816 19.5691 39.9518 29.9051 33.9285 35.9284C29.7625 40.0944 23.9062 41.4789 19.9173 41.1634Z" fill="#5A5A5A"/>
<path d="M2.0111 44.0111C3.56817 42.454 13.8924 41.8835 19.9173 47.895C25.9423 41.8835 36.2665 42.454 37.8235 44.0111C39.3816 45.5691 39.9518 55.9051 33.9285 61.9284C29.7625 66.0944 23.9062 67.4789 19.9173 67.1634C15.9285 67.4789 10.0722 66.0944 5.90618 61.9284C-0.11716 55.9051 0.453069 45.5691 2.0111 44.0111Z" fill="#5A5A5A"/>
<path d="M23 72.5C23 71.1193 21.8807 70 20.5 70C19.1192 70 18 71.1193 18 72.5V85.5C18 86.8807 19.1192 88 20.5 88C21.8807 88 23 86.8807 23 85.5V72.5Z" fill="#5A5A5A"/>
</svg>
