<svg width="42" height="50" viewBox="0 0 42 50" fill="none" xmlns="http://www.w3.org/2000/svg">
<path fill-rule="evenodd" clip-rule="evenodd" d="M18.5736 11.6456C24.2171 10.7342 25.2138 0.669881 30.8941 0.0268542C35.0304 -0.44138 37.9012 5.31545 38.9824 9.33528C40.0665 13.3662 36.1668 17.3372 36.6647 21.4816C37.0907 25.0283 42.0376 27.3179 41.5682 30.8591C41.1122 34.2986 37.7657 37.2753 34.4399 38.2638C30.8884 39.3193 26.7687 34.1591 23.6636 36.1804C19.8684 38.6511 22.2286 45.9189 18.5736 48.5926C15.6676 50.7183 10.2387 50.4541 7.94693 47.6772C5.16012 44.3005 8.01365 39.0219 7.13493 34.7328C6.69037 32.5628 5.14519 30.868 4.10278 28.9136C2.73984 26.3583 -0.188744 24.263 0.00959022 21.3737C0.200601 18.5911 3.91501 17.3804 5.06878 14.8411C6.67598 11.3038 4.25026 4.61378 8.03112 3.71916C12.3639 2.69394 14.1781 12.3555 18.5736 11.6456Z" fill="url(#paint0_linear_4_37)"/>
<defs>
<linearGradient id="paint0_linear_4_37" x1="20.7998" y1="0" x2="20.7998" y2="50" gradientUnits="userSpaceOnUse">
<stop stop-color="#C0C0C0"/>
<stop offset="1" stop-color="#DDDDDD"/>
</linearGradient>
</defs>
</svg>
