<svg width="50" height="41" viewBox="0 0 50 41" fill="none" xmlns="http://www.w3.org/2000/svg">
<path fill-rule="evenodd" clip-rule="evenodd" d="M20.907 0.246138C23.4698 -1.14974 25.6273 3.82105 28.4869 4.40373C32.5532 5.23228 37.6995 1.51476 40.7799 4.29549C43.6091 6.84949 39.4295 12.0592 40.8743 15.5862C42.722 20.0964 49.7351 21.9148 49.9917 26.782C50.2217 31.1455 45.634 34.5373 42.0015 36.9659C38.6476 39.2084 34.4363 39.631 30.4092 39.8751C27.1607 40.072 24.1607 38.1719 20.907 38.2446C17.5575 38.3195 13.6032 42.6369 11.198 40.3044C8.28899 37.4833 13.0029 31.6213 10.6645 28.3117C8.53239 25.294 2.0166 28.113 0.279992 24.8516C-1.21144 22.0506 3.7134 19.4716 4.29647 16.3524C4.91239 13.0574 0.658103 7.79899 3.72183 6.4389C7.89557 4.58604 12.181 12.4931 16.4772 10.945C20.1546 9.61978 17.4743 2.11581 20.907 0.246138Z" fill="url(#paint0_linear_4_14)"/>
<defs>
<linearGradient id="paint0_linear_4_14" x1="25" y1="0" x2="25" y2="40.995" gradientUnits="userSpaceOnUse">
<stop stop-color="#C0C0C0"/>
<stop offset="1" stop-color="#DDDDDD"/>
</linearGradient>
</defs>
</svg>
