<svg width="50" height="50" viewBox="0 0 50 50" fill="none" xmlns="http://www.w3.org/2000/svg">
<path fill-rule="evenodd" clip-rule="evenodd" d="M22.7823 1.87724C26.6355 1.34015 32.2458 -1.89705 34.2924 1.60832C37.1672 6.53224 28.9965 14.3084 32.5873 18.6712C36.4229 23.3315 47.6923 14.6529 49.7824 20.4289C51.7173 25.7763 40.2043 25.9046 36.8194 30.3668C35.2264 32.4667 37.2188 35.8535 36.2062 38.3258C35.1141 40.9922 33.0246 43.0102 30.8929 44.8368C28.4305 46.9467 25.9001 49.2499 22.7823 49.8283C19.5449 50.429 16.2544 49.3556 13.1801 48.1231C9.95183 46.8289 5.69416 45.8942 4.4499 42.479C3.08022 38.7194 7.70142 34.7538 6.87594 30.8195C6.05732 26.9179 -0.571757 25.404 0.0397813 21.4599C0.630428 17.6506 6.98564 18.5394 9.24871 15.5164C11.5184 12.4845 9.99603 7.29263 12.6419 4.62612C15.2035 2.04453 19.2794 2.3655 22.7823 1.87724Z" fill="url(#paint0_linear_5_90)"/>
<defs>
<linearGradient id="paint0_linear_5_90" x1="25" y1="0" x2="25" y2="50" gradientUnits="userSpaceOnUse">
<stop stop-color="#C0C0C0"/>
<stop offset="1" stop-color="#DDDDDD"/>
</linearGradient>
</defs>
</svg>
