<svg width="50" height="50" viewBox="0 0 50 50" fill="none" xmlns="http://www.w3.org/2000/svg">
<path fill-rule="evenodd" clip-rule="evenodd" d="M22.8503 17.6192C30.1328 15.2683 28.4294 0.292653 36.114 0.00335457C42.2205 -0.226533 35.6071 11.4169 34.7501 17.1712C34.3896 19.5912 30.8055 22.2798 32.5256 24.0958C36.5886 28.3853 45.1823 27.0053 48.5902 31.7829C51.1691 35.3983 49.9172 41.1395 47.1916 44.6561C44.4827 48.151 39.2497 49.0281 34.733 49.6613C30.7255 50.2232 26.1363 50.3214 22.8503 48.0687C19.4401 45.7309 21.1778 38.5074 17.0917 37.5676C11.4052 36.2597 4.49246 47.232 0.720778 42.9787C-2.9968 38.7864 8.84032 34.5201 9.56487 29.0796C9.97177 26.0242 3.37073 25.0757 3.51475 21.999C3.64621 19.1905 8.56295 18.936 10.1507 16.5646C11.9962 13.8082 9.89063 7.07927 13.3137 7.36353C18.1549 7.76554 18.2486 19.1047 22.8503 17.6192Z" fill="url(#paint0_linear_5_87)"/>
<defs>
<linearGradient id="paint0_linear_5_87" x1="25" y1="0" x2="25" y2="50" gradientUnits="userSpaceOnUse">
<stop stop-color="#C0C0C0"/>
<stop offset="1" stop-color="#DDDDDD"/>
</linearGradient>
</defs>
</svg>
