<svg width="50" height="50" viewBox="0 0 50 50" fill="none" xmlns="http://www.w3.org/2000/svg">
<path fill-rule="evenodd" clip-rule="evenodd" d="M28.7995 0.824149C31.593 0.0894252 34.4948 -0.358396 37.2889 0.37324C40.2797 1.15635 43.9587 2.02053 45.3971 5.17013C46.9485 8.56737 43.8237 12.8382 44.6786 16.5543C45.4715 20.0011 49.7907 21.5882 49.9932 25.1485C50.1859 28.5397 46.2504 30.5555 45.6639 33.8848C44.75 39.0725 49.8875 47.5606 45.6861 49.5977C40.799 51.9674 36.8167 43.2105 32.073 40.4746C30.13 39.354 28.0709 37.7416 25.9398 38.2093C22.0349 39.0663 19.2756 44.5002 15.313 44.153C11.9951 43.8622 10.1869 39.3874 7.85627 36.6245C5.03279 33.2774 -0.644996 30.6887 0.0600705 26.0712C0.888867 20.6435 7.08073 18.8859 11.03 15.8398C13.3537 14.0474 16.4773 13.9909 18.5442 11.814C20.3335 9.92945 20.0874 6.33286 21.8627 4.43043C23.7461 2.41214 26.3019 1.48103 28.7995 0.824149Z" fill="url(#paint0_linear_6_95)"/>
<defs>
<linearGradient id="paint0_linear_6_95" x1="25" y1="0" x2="25" y2="50" gradientUnits="userSpaceOnUse">
<stop stop-color="#C0C0C0"/>
<stop offset="1" stop-color="#DDDDDD"/>
</linearGradient>
</defs>
</svg>
