<svg width="50" height="50" viewBox="0 0 50 50" fill="none" xmlns="http://www.w3.org/2000/svg">
<path fill-rule="evenodd" clip-rule="evenodd" d="M27.4253 0.00481033C32.6789 0.27015 30.493 9.65731 32.5406 14.394C33.2146 15.9529 34.3957 17.1795 35.4351 18.5331C36.4428 19.8456 37.2834 21.2644 38.5988 22.284C42.2343 25.1017 49.4574 25.304 49.9844 29.8098C50.4096 33.4456 42.043 31.5185 40.0404 34.6105C37.6599 38.286 41.4424 44.087 38.5799 47.418C36.1226 50.2775 31.0267 50.5365 27.4253 49.2902C23.6934 47.9987 23.2858 42.0168 19.5203 40.822C14.8606 39.3434 9.00151 45.0633 5.07586 42.1985C1.66503 39.7093 5.31999 33.9732 4.53259 29.8843C3.78152 25.984 -1.76066 22.0364 0.567065 18.7847C3.46603 14.735 10.1551 16.28 15.0784 15.1523C17.4099 14.6182 20.5566 15.6948 22.0489 13.8641C25.2386 9.95084 22.3134 -0.253371 27.4253 0.00481033Z" fill="url(#paint0_linear_5_84)"/>
<defs>
<linearGradient id="paint0_linear_5_84" x1="25" y1="0" x2="25" y2="50" gradientUnits="userSpaceOnUse">
<stop stop-color="#C0C0C0"/>
<stop offset="1" stop-color="#DDDDDD"/>
</linearGradient>
</defs>
</svg>
