<svg width="50" height="50" viewBox="0 0 50 50" fill="none" xmlns="http://www.w3.org/2000/svg">
<path fill-rule="evenodd" clip-rule="evenodd" d="M24.7756 2.57693C28.5213 3.90867 30.6861 7.66406 34.2954 9.29962C37.7861 10.8814 42.583 9.45648 45.4327 11.9377C48.2393 14.3814 48.3568 18.5487 49.007 22.1089C49.6067 25.3931 50.857 29.1138 49.0961 31.9985C47.1924 35.1174 42.743 35.7352 39.5221 37.6479C37.5398 38.825 35.1317 39.4448 33.6573 41.1665C31.5462 43.6316 32.2204 48.1197 29.2691 49.6205C26.6579 50.9483 23.5797 48.4178 20.7003 47.7553C17.8913 47.109 15.1944 46.4079 12.3918 45.7373C8.36219 44.7731 2.23758 46.4519 0.427615 42.9044C-1.46399 39.1969 3.43207 35.3166 5.14367 31.5313C6.2204 29.15 8.22371 27.1723 8.69513 24.6202C9.26373 21.542 7.76658 18.4688 8.13027 15.3628C8.70023 10.4952 7.42718 4.25648 11.4405 1.1737C14.9541 -1.52519 20.5417 1.07159 24.7756 2.57693Z" fill="url(#paint0_linear_6_93)"/>
<defs>
<linearGradient id="paint0_linear_6_93" x1="25" y1="0" x2="25" y2="50" gradientUnits="userSpaceOnUse">
<stop stop-color="#C0C0C0"/>
<stop offset="1" stop-color="#DDDDDD"/>
</linearGradient>
</defs>
</svg>
