<svg width="50" height="50" viewBox="0 0 50 50" fill="none" xmlns="http://www.w3.org/2000/svg">
<path fill-rule="evenodd" clip-rule="evenodd" d="M25.2355 0.360614C28.1997 1.55383 29.2036 6.23021 31.6573 8.61324C33.4787 10.3822 36.4493 10.1527 37.756 12.5204C39.0866 14.9313 37.0077 18.9403 38.566 21.1311C41.5474 25.3223 49.8745 24.1445 49.9987 29.7317C50.113 34.8677 42.5316 33.8122 38.9032 36.2911C37.0082 37.5858 35.3168 39.1607 33.6635 40.8917C31.8791 42.76 30.8961 45.8322 28.7368 46.935C26.5516 48.0511 24.0647 46.5787 21.7248 46.9894C18.2186 47.6049 15.0214 50.354 11.4944 49.9619C7.37005 49.5034 0.0726218 49.7097 0.000764506 44.5743C-0.099966 37.3754 9.78458 35.3194 11.1918 28.3343C12.0031 24.3073 5.53151 22.5917 5.26292 18.4543C5.02897 14.8503 8.02951 12.1529 9.96597 9.45034C11.9096 6.73772 14.0066 4.14023 16.6444 2.56998C19.3102 0.98307 22.423 -0.771525 25.2355 0.360614Z" fill="url(#paint0_linear_6_111)"/>
<defs>
<linearGradient id="paint0_linear_6_111" x1="25" y1="0" x2="25" y2="50" gradientUnits="userSpaceOnUse">
<stop stop-color="#C0C0C0"/>
<stop offset="1" stop-color="#DDDDDD"/>
</linearGradient>
</defs>
</svg>
