<svg width="50" height="50" viewBox="0 0 50 50" fill="none" xmlns="http://www.w3.org/2000/svg">
<path fill-rule="evenodd" clip-rule="evenodd" d="M25.6573 3.70375C28.7256 4.88003 31.1978 6.8992 33.8415 8.74235C36.0463 10.2795 38.3671 11.6765 40.0138 13.7131C41.5923 15.6654 42.3707 17.9937 43.1875 20.3016C44.003 22.606 44.0315 25.0192 44.8321 27.328C46.0975 30.9773 52.0025 34.9997 49.2998 37.9293C46.27 41.2135 39.6119 35.836 35.3323 37.6253C32.1876 38.94 33.0412 43.7919 30.4018 45.8303C27.5626 48.023 23.7853 49.098 20.0788 49.4053C15.9614 49.7466 9.41156 51.2173 7.95616 47.6912C5.84962 42.5876 14.9815 37.3025 12.9645 32.1689C11.4203 28.2389 1.8142 31.8342 0.191871 27.9304C-1.1791 24.6315 5.14807 22.6358 8.01938 20.2697C9.95588 18.674 13.7016 18.5365 14.3796 16.2391C15.8425 11.2821 10.1288 4.99045 13.7002 1.02077C16.3312 -1.90369 21.832 2.23723 25.6573 3.70375Z" fill="url(#paint0_linear_4_65)"/>
<defs>
<linearGradient id="paint0_linear_4_65" x1="25" y1="0" x2="25" y2="50" gradientUnits="userSpaceOnUse">
<stop stop-color="#C0C0C0"/>
<stop offset="1" stop-color="#DDDDDD"/>
</linearGradient>
</defs>
</svg>
