<svg width="50" height="50" viewBox="0 0 50 50" fill="none" xmlns="http://www.w3.org/2000/svg">
<path fill-rule="evenodd" clip-rule="evenodd" d="M24.0402 2.42995C26.7105 3.29784 29.6982 3.95096 31.5304 6.09744C33.3468 8.2254 31.4598 12.8548 33.9702 14.0634C38.6961 16.3386 46.1489 10.6689 49.4882 14.743C52.0954 17.9239 43.9385 21.0894 43.0299 25.1166C42.2663 28.5009 46.1128 32.0159 44.8617 35.2486C43.6611 38.3506 40.0522 40.0312 36.8918 40.9762C33.9076 41.8684 30.4826 39.028 27.6762 40.3871C23.652 42.3358 22.8002 49.2027 18.3967 49.9325C14.7249 50.541 10.7533 46.9276 9.43944 43.4094C7.91745 39.334 11.5338 34.9454 11.1784 30.6042C10.9951 28.3659 9.23112 26.6232 7.91679 24.8121C5.45188 21.4156 -0.177438 19.4149 0.00429767 15.2067C0.159117 11.6218 6.13953 11.6364 8.59763 9.04706C10.9615 6.55699 10.903 1.76184 14.0466 0.414815C17.2085 -0.940059 20.7708 1.36729 24.0402 2.42995Z" fill="url(#paint0_linear_6_96)"/>
<defs>
<linearGradient id="paint0_linear_6_96" x1="25" y1="0" x2="25" y2="50" gradientUnits="userSpaceOnUse">
<stop stop-color="#C0C0C0"/>
<stop offset="1" stop-color="#DDDDDD"/>
</linearGradient>
</defs>
</svg>
