<svg width="71" height="92" viewBox="0 0 71 92" fill="none" xmlns="http://www.w3.org/2000/svg">
<path d="M38.8057 22.3632C36.2038 20.8609 32.7753 14.7812 36.6333 8.099C40.4912 1.4168 49.69 -0.494935 51.4247 0.506567C53.1593 1.50807 56.1031 10.4303 52.2451 17.1125C48.3871 23.7947 41.4077 23.8654 38.8057 22.3632Z" fill="#5A5A5A"/>
<path d="M25.877 15.623C25.3926 14.0385 26.2843 12.3613 27.8688 11.8769C29.4533 11.3925 31.1304 12.2843 31.6148 13.8687L36.5851 30.1259C36.5885 30.1368 36.5917 30.1477 36.595 30.1586C36.5975 30.1673 36.6 30.176 36.6025 30.1847C41.5247 25.8136 47.3425 23.6639 53.1168 24.682C65.7548 26.9104 73.3985 43.4699 70.1896 61.6686C66.9807 79.8673 54.1343 92.8137 41.4963 90.5853C39.4725 90.2285 37.5768 89.5041 35.8332 88.4644C33.9096 89.729 31.7881 90.6002 29.5035 91.003C16.8655 93.2314 4.01906 80.285 0.810142 62.0863C-2.39878 43.8876 5.24498 27.3282 17.883 25.0998C21.7943 24.4101 25.7256 25.1739 29.385 27.0971L25.877 15.623Z" fill="#5A5A5A"/>
</svg>
