<svg width="48" height="50" viewBox="0 0 48 50" fill="none" xmlns="http://www.w3.org/2000/svg">
<path fill-rule="evenodd" clip-rule="evenodd" d="M20.8318 13.8069C26.8824 13.5301 27.4589 -2.62523 32.7233 0.370275C38.1477 3.45686 28.4858 12.2804 29.0692 18.4942C29.2778 20.7163 32.9007 20.6286 34.7433 21.888C39.1708 24.9141 47.1093 25.8421 47.6294 31.1796C48.0534 35.53 39.7359 34.7214 36.251 37.3596C33.7411 39.2597 32.6452 42.4932 30.1498 44.4123C27.3444 46.5699 24.3049 48.5379 20.8318 49.2181C17.0932 49.9503 12.5425 50.8288 9.57303 48.4423C6.42178 45.9097 7.56958 40.702 5.7458 37.0939C4.3434 34.3195 -0.928524 32.7038 0.14251 29.7854C1.6416 25.7007 10.8062 27.1634 10.9857 22.8159C11.2205 17.1302 1.39776 14.9167 0.990865 9.24063C0.712993 5.36438 5.6658 0.563333 9.453 1.43494C14.9826 2.70755 15.1636 14.0663 20.8318 13.8069Z" fill="url(#paint0_linear_4_40)"/>
<defs>
<linearGradient id="paint0_linear_4_40" x1="23.8225" y1="0" x2="23.8225" y2="50" gradientUnits="userSpaceOnUse">
<stop stop-color="#C0C0C0"/>
<stop offset="1" stop-color="#DDDDDD"/>
</linearGradient>
</defs>
</svg>
