<svg width="50" height="50" viewBox="0 0 50 50" fill="none" xmlns="http://www.w3.org/2000/svg">
<path fill-rule="evenodd" clip-rule="evenodd" d="M28.663 0.152729C32.8965 1.88322 29.9201 10.2115 33.751 12.7097C36.8824 14.7518 41.0893 9.30877 44.614 10.5547C47.6341 11.6223 50.5313 15.2803 49.917 18.4241C49.1768 22.2114 44.58 23.8236 41.5531 26.2173C39.9183 27.5101 37.6142 27.7558 36.1912 29.2787C34.9226 30.6363 34.6385 32.5819 33.9819 34.32C32.096 39.3123 33.9978 49.0675 28.663 49.2076C23.4021 49.3457 27.5703 37.5465 23.2079 34.6029C19.7215 32.2503 13.3357 40.8518 11.0488 37.322C8.6266 33.5833 19.5215 29.7975 17.5171 25.8192C14.6348 20.0984 3.95379 22.462 0.763201 16.9072C-1.4286 13.0914 1.40441 6.56752 5.39999 4.72357C10.2826 2.47026 15.8043 8.56744 21.0808 7.53068C24.585 6.84215 25.3573 -1.19851 28.663 0.152729Z" fill="url(#paint0_linear_4_17)"/>
<defs>
<linearGradient id="paint0_linear_4_17" x1="25" y1="0" x2="25" y2="49.2088" gradientUnits="userSpaceOnUse">
<stop stop-color="#C0C0C0"/>
<stop offset="1" stop-color="#DDDDDD"/>
</linearGradient>
</defs>
</svg>
