<svg width="50" height="50" viewBox="0 0 50 50" fill="none" xmlns="http://www.w3.org/2000/svg">
<path fill-rule="evenodd" clip-rule="evenodd" d="M24.4959 0.110783C27.8454 -0.349664 31.6567 0.627815 34.1191 2.99442C36.655 5.43174 35.6059 10.0853 37.7722 12.8706C39.7596 15.426 43.7637 15.5008 45.8012 18.0147C48.0431 20.7809 50.5627 24.2951 49.8889 27.8209C49.1966 31.4429 44.5561 32.6964 42.4257 35.6757C40.5474 38.3025 40.5831 42.2043 38.1255 44.2716C35.6649 46.3414 32.0917 46.0089 29.0377 46.9377C25.7535 47.9365 22.7419 50.1582 19.3194 49.9911C15.8063 49.8196 11.4241 49.0925 9.64458 45.991C7.58958 42.4093 11.3469 37.5758 9.95734 33.674C8.88965 30.676 4.56356 30.1745 3.0235 27.3996C1.32962 24.3475 -1.37905 19.9155 0.831633 17.2311C3.59863 13.8712 9.94149 17.4996 13.3634 14.844C15.9162 12.8629 14.0006 8.08383 15.9599 5.49076C18.0259 2.75649 21.1466 0.571218 24.4959 0.110783Z" fill="url(#paint0_linear_4_71)"/>
<defs>
<linearGradient id="paint0_linear_4_71" x1="25" y1="0" x2="25" y2="50" gradientUnits="userSpaceOnUse">
<stop stop-color="#C0C0C0"/>
<stop offset="1" stop-color="#DDDDDD"/>
</linearGradient>
</defs>
</svg>
