<svg width="50" height="50" viewBox="0 0 50 50" fill="none" xmlns="http://www.w3.org/2000/svg">
<path fill-rule="evenodd" clip-rule="evenodd" d="M25.6441 0.00116103C29.8544 -0.0735466 32.7997 3.47663 36.5867 5.00412C40.2485 6.48114 46.058 5.82024 47.7165 8.90413C49.6342 12.47 44.3473 16.3414 44.7749 20.2296C45.0831 23.0324 49.2411 24.7044 49.7597 27.4857C50.2956 30.3599 50.0672 33.7957 47.7051 35.9456C45.2352 38.1936 39.8731 36.5435 37.3677 38.7643C34.0261 41.7265 36.711 49.0492 31.9348 49.9249C27.1838 50.796 25.572 43.8458 21.467 41.6797C18.9636 40.3586 15.8165 40.4632 12.9291 39.8958C8.68095 39.0611 1.8106 40.9147 0.295752 37.5194C-1.39243 33.7357 4.5837 30.4096 7.17273 26.9938C8.62172 25.0821 12.2802 24.0282 12.2327 21.7706C12.1523 17.949 6.22502 15.1345 6.8436 11.347C7.33211 8.35581 11.9649 7.16498 14.9081 5.38879C18.3276 3.32519 21.4159 0.0761874 25.6441 0.00116103Z" fill="url(#paint0_linear_4_69)"/>
<defs>
<linearGradient id="paint0_linear_4_69" x1="25" y1="0" x2="25" y2="50" gradientUnits="userSpaceOnUse">
<stop stop-color="#C0C0C0"/>
<stop offset="1" stop-color="#DDDDDD"/>
</linearGradient>
</defs>
</svg>
