<svg width="56" height="56" viewBox="0 0 56 56" fill="none" xmlns="http://www.w3.org/2000/svg">
<ellipse cx="27.5" cy="20.5" rx="21.5" ry="17.5" fill="#FCC2FD"/>
<path d="M5 23H51L41.0923 51H15.6154L5 23Z" fill="#E66EE8"/>
<rect x="5" y="21" width="46" height="2" fill="#9C189E"/>
<rect x="49" y="23" width="2" height="2" fill="#9C189E"/>
<rect x="48" y="25" width="2" height="2" fill="#9C189E"/>
<rect x="48" y="27" width="2" height="2" fill="#9C189E"/>
<rect x="40" y="48" width="2" height="2" fill="#9C189E"/>
<rect x="41" y="47" width="2" height="2" fill="#9C189E"/>
<rect x="42" y="45" width="2" height="2" fill="#9C189E"/>
<rect x="42" y="43" width="2" height="2" fill="#9C189E"/>
<rect x="43" y="41" width="2" height="2" fill="#9C189E"/>
<rect x="44" y="39" width="2" height="2" fill="#9C189E"/>
<rect x="44" y="37" width="2" height="2" fill="#9C189E"/>
<rect x="45" y="35" width="2" height="2" fill="#9C189E"/>
<rect x="46" y="33" width="2" height="2" fill="#9C189E"/>
<rect x="46" y="31" width="2" height="2" fill="#9C189E"/>
<rect x="47" y="29" width="2" height="2" fill="#9C189E"/>
<rect width="2" height="2" transform="matrix(-1 0 0 1 7 23)" fill="#9C189E"/>
<rect width="2" height="2" transform="matrix(-1 0 0 1 8 25)" fill="#9C189E"/>
<rect width="2" height="2" transform="matrix(-1 0 0 1 8 27)" fill="#9C189E"/>
<rect width="2" height="2" transform="matrix(-1 0 0 1 16 48)" fill="#9C189E"/>
<rect width="2" height="2" transform="matrix(-1 0 0 1 15 47)" fill="#9C189E"/>
<rect width="2" height="2" transform="matrix(-1 0 0 1 14 45)" fill="#9C189E"/>
<rect width="2" height="2" transform="matrix(-1 0 0 1 14 43)" fill="#9C189E"/>
<rect width="2" height="2" transform="matrix(-1 0 0 1 13 41)" fill="#9C189E"/>
<rect width="2" height="2" transform="matrix(-1 0 0 1 12 39)" fill="#9C189E"/>
<rect width="2" height="2" transform="matrix(-1 0 0 1 12 37)" fill="#9C189E"/>
<rect width="2" height="2" transform="matrix(-1 0 0 1 11 35)" fill="#9C189E"/>
<rect width="2" height="2" transform="matrix(-1 0 0 1 10 33)" fill="#9C189E"/>
<rect width="2" height="2" transform="matrix(-1 0 0 1 10 31)" fill="#9C189E"/>
<rect width="2" height="2" transform="matrix(-1 0 0 1 9 29)" fill="#9C189E"/>
<rect width="2" height="2" transform="matrix(-1 0 0 1 28 2)" fill="#9C189E"/>
<rect width="2" height="2" transform="matrix(-1 0 0 1 7 19)" fill="#9C189E"/>
<rect width="2" height="2" transform="matrix(-1 0 0 1 8 17)" fill="#9C189E"/>
<rect width="2" height="2" transform="matrix(-1 0 0 1 8 15)" fill="#9C189E"/>
<rect width="2" height="2" transform="matrix(-1 0 0 1 9 13)" fill="#9C189E"/>
<rect width="2" height="2" transform="matrix(-1 0 0 1 9 11)" fill="#9C189E"/>
<rect width="2" height="2" transform="matrix(-1 0 0 1 11 10)" fill="#9C189E"/>
<rect width="2" height="2" transform="matrix(-1 0 0 1 12 8)" fill="#9C189E"/>
<rect width="2" height="4" transform="matrix(-1 0 0 1 20 11)" fill="#9C189E"/>
<rect width="2" height="2" transform="matrix(-1 0 0 1 21 9)" fill="#9C189E"/>
<rect width="2" height="2" transform="matrix(-1 0 0 1 18 13)" fill="#9C189E"/>
<rect width="2" height="4" transform="matrix(-1 0 0 1 17 9)" fill="#9C189E"/>
<rect width="2" height="2" transform="matrix(-1 0 0 1 28 16)" fill="#9C189E"/>
<rect width="2" height="5" transform="matrix(-1 0 0 1 30 12)" fill="#9C189E"/>
<rect width="2" height="2" transform="matrix(-1 0 0 1 26 8)" fill="#9C189E"/>
<rect width="2" height="2" transform="matrix(-1 0 0 1 31 10)" fill="#9C189E"/>
<rect width="2" height="2" transform="matrix(-1 0 0 1 39 5)" fill="#9C189E"/>
<rect width="2" height="2" transform="matrix(-1 0 0 1 38 6)" fill="#9C189E"/>
<rect width="2" height="5" transform="matrix(-1 0 0 1 37 8)" fill="#9C189E"/>
<rect width="2" height="2" transform="matrix(-1 0 0 1 32 8)" fill="#9C189E"/>
<rect width="2" height="2" transform="matrix(-1 0 0 1 35 12)" fill="#9C189E"/>
<rect width="2" height="2" transform="matrix(-1 0 0 1 34 10)" fill="#9C189E"/>
<rect width="2" height="2" transform="matrix(-1 0 0 1 33 8)" fill="#9C189E"/>
<rect width="2" height="2" transform="matrix(-1 0 0 1 33 6)" fill="#9C189E"/>
<rect x="25" y="10" width="2" height="7" fill="#9C189E"/>
<rect width="2" height="2" transform="matrix(-1 0 0 1 23 7)" fill="#9C189E"/>
<rect width="2" height="2" transform="matrix(-1 0 0 1 18 7)" fill="#9C189E"/>
<rect width="2" height="2" transform="matrix(-1 0 0 1 19 5)" fill="#9C189E"/>
<rect width="3" height="2" transform="matrix(-1 0 0 1 25 6)" fill="#9C189E"/>
<rect width="2" height="2" transform="matrix(-1 0 0 1 14 7)" fill="#9C189E"/>
<rect width="2" height="2" transform="matrix(-1 0 0 1 15 6)" fill="#9C189E"/>
<rect width="2" height="2" transform="matrix(-1 0 0 1 16 5)" fill="#9C189E"/>
<rect width="2" height="2" transform="matrix(-1 0 0 1 18 4)" fill="#9C189E"/>
<rect width="2" height="2" transform="matrix(-1 0 0 1 20 3)" fill="#9C189E"/>
<rect width="2" height="2" transform="matrix(-1 0 0 1 22 3)" fill="#9C189E"/>
<rect width="2" height="2" transform="matrix(-1 0 0 1 23 2)" fill="#9C189E"/>
<rect width="4" height="2" transform="matrix(-1 0 0 1 26 2)" fill="#9C189E"/>
<rect x="28" y="2" width="2" height="2" fill="#9C189E"/>
<rect x="49" y="19" width="2" height="2" fill="#9C189E"/>
<rect x="48" y="17" width="2" height="2" fill="#9C189E"/>
<rect x="48" y="15" width="2" height="2" fill="#9C189E"/>
<rect x="47" y="13" width="2" height="2" fill="#9C189E"/>
<rect x="47" y="11" width="2" height="2" fill="#9C189E"/>
<rect x="45" y="10" width="2" height="2" fill="#9C189E"/>
<rect x="44" y="8" width="2" height="2" fill="#9C189E"/>
<rect x="42" y="7" width="2" height="2" fill="#9C189E"/>
<rect x="41" y="6" width="2" height="2" fill="#9C189E"/>
<rect x="32" y="6" width="4" height="2" fill="#E66EE8"/>
<rect x="33" y="8" width="2" height="2" fill="#E66EE8"/>
<rect x="27" y="14" width="1" height="2" fill="#E66EE8"/>
<rect x="27" y="10" width="2" height="2" fill="#E66EE8"/>
<rect x="26" y="8" width="4" height="2" fill="#E66EE8"/>
<rect x="25" y="6" width="6" height="2" fill="#E66EE8"/>
<rect x="27" y="12" width="1" height="2" fill="#E66EE8"/>
<rect x="19" y="5" width="3" height="2" fill="#E66EE8"/>
<rect x="17" y="11" width="1" height="2" fill="#E66EE8"/>
<rect x="17" y="9" width="2" height="2" fill="#E66EE8"/>
<rect x="18" y="7" width="3" height="2" fill="#E66EE8"/>
<rect x="34" y="10" width="1" height="2" fill="#E66EE8"/>
<rect x="40" y="5" width="2" height="2" fill="#9C189E"/>
<rect x="38" y="4" width="2" height="2" fill="#9C189E"/>
<rect x="36" y="3" width="2" height="2" fill="#9C189E"/>
<rect x="34" y="3" width="2" height="2" fill="#9C189E"/>
<rect x="33" y="2" width="2" height="2" fill="#9C189E"/>
<rect x="30" y="2" width="4" height="2" fill="#9C189E"/>
<rect x="21" y="4" width="16" height="2" fill="#E66EE8"/>
<rect x="15" y="50" width="27" height="2" fill="#9C189E"/>
<rect x="21" y="29" width="4" height="4" fill="#9C189E"/>
<rect x="31" y="29" width="4" height="4" fill="#9C189E"/>
</svg>
