<svg width="75" height="89" viewBox="0 0 75 89" fill="none" xmlns="http://www.w3.org/2000/svg">
<path d="M40.972 8.8265C40.2107 10.1451 39.7171 11.4415 39.4356 12.6886C38.9987 11.9793 38.4923 11.2999 37.9177 10.6618C37.1786 9.8409 35.914 9.77463 35.0932 10.5137C34.2723 11.2528 34.2061 12.5174 34.9452 13.3383C38.394 17.1686 38.1755 22.5404 35.0222 25.3796C34.2013 26.1187 34.135 27.3833 34.8741 28.2042C35.6132 29.025 36.8778 29.0913 37.6987 28.3522C39.6262 26.6167 40.7962 24.3886 41.2467 22.0077C41.8934 22.8975 42.6097 23.564 43.2751 23.9481C46.0335 25.5407 53.4325 25.4657 57.5224 18.3818C61.6122 11.298 58.4915 1.83937 56.6526 0.777668C54.8136 -0.284036 45.0619 1.74262 40.972 8.8265Z" fill="#5A5A5A"/>
<path d="M34.4397 31.9422C30.893 29.4525 26.6032 27.9999 22 27.9999C9.92122 27.9999 0 38.0013 0 50.4999C0 55.3981 1.52374 59.9127 4.10393 63.5922C5.12412 51.8298 13.5471 42.2341 24.5955 39.6726C24.5688 39.3931 24.425 39.1305 24.1877 38.9581L22.857 37.9913C22.0733 37.4219 22.476 36.1823 23.4448 36.1823H25.0896C25.5228 36.1823 25.9068 35.9033 26.0407 35.4913L26.5489 33.927C26.8483 33.0057 28.1517 33.0057 28.4511 33.927L28.9593 35.4913C29.0932 35.9033 29.4772 36.1823 29.9104 36.1823H31.1177C32.0822 34.6541 33.1966 33.2336 34.4397 31.9422Z" fill="#5A5A5A"/>
<path fill-rule="evenodd" clip-rule="evenodd" d="M33.9536 39.2271C46.9574 40.9515 57 52.2808 57 65.9999C57 68.3375 56.7085 70.6056 56.1604 72.7687C66.7621 71.2045 75 61.889 75 50.4999C75 38.0013 65.0788 27.9999 53 27.9999C44.9011 27.9999 37.7722 32.4964 33.9536 39.2271ZM61.4511 35.927C61.1517 35.0057 59.8483 35.0057 59.5489 35.927L59.0407 37.4913C58.9068 37.9033 58.5228 38.1823 58.0896 38.1823H56.4448C55.476 38.1823 55.0733 39.4219 55.857 39.9913L57.1877 40.9581C57.5382 41.2128 57.6848 41.6641 57.5509 42.0762L57.0427 43.6405C56.7433 44.5618 57.7978 45.3279 58.5815 44.7585L59.9122 43.7917C60.2627 43.5371 60.7373 43.5371 61.0878 43.7917L62.4185 44.7585C63.2022 45.3279 64.2567 44.5618 63.9573 43.6405L63.4491 42.0762C63.3152 41.6641 63.4618 41.2128 63.8123 40.9581L65.143 39.9913C65.9267 39.4219 65.524 38.1823 64.5552 38.1823H62.9104C62.4772 38.1823 62.0932 37.9033 61.9593 37.4913L61.4511 35.927Z" fill="#5A5A5A"/>
<path fill-rule="evenodd" clip-rule="evenodd" d="M53 65.9999C53 78.7733 42.8563 88.9999 30.5 88.9999C18.1438 88.9999 8 78.7733 8 65.9999C8 53.2266 18.1438 42.9999 30.5 42.9999C42.8563 42.9999 53 53.2266 53 65.9999ZM32.5815 59.7585L33.9122 58.7917C34.2627 58.5371 34.7373 58.5371 35.0878 58.7917L36.4185 59.7585C37.2022 60.3279 38.2567 59.5618 37.9573 58.6405L37.4491 57.0762C37.3152 56.6641 37.4618 56.2128 37.8123 55.9581L39.143 54.9913C39.9267 54.4219 39.524 53.1823 38.5552 53.1823H36.9104C36.4772 53.1823 36.0932 52.9033 35.9593 52.4913L35.4511 50.927C35.1517 50.0057 33.8483 50.0057 33.5489 50.927L33.0407 52.4913C32.9068 52.9033 32.5228 53.1823 32.0896 53.1823H30.4448C29.476 53.1823 29.0733 54.4219 29.857 54.9913L31.1877 55.9581C31.5382 56.2128 31.6848 56.6641 31.551 57.0762L31.0427 58.6405C30.7807 59.4466 31.5553 60.134 32.2781 59.9118C32.3814 59.88 32.4835 59.8297 32.5815 59.7585Z" fill="#5A5A5A"/>
</svg>
