<svg width="56" height="56" viewBox="0 0 56 56" fill="none" xmlns="http://www.w3.org/2000/svg">
<path fill-rule="evenodd" clip-rule="evenodd" d="M17.5 31C24.4036 31 30 25.4036 30 18.5C30 11.5964 24.4036 6 17.5 6C10.5964 6 5 11.5964 5 18.5C5 25.4036 10.5964 31 17.5 31ZM17.5 25C21.0899 25 24 22.0899 24 18.5C24 14.9101 21.0899 12 17.5 12C13.9101 12 11 14.9101 11 18.5C11 22.0899 13.9101 25 17.5 25Z" fill="#A4FAEB"/>
<path fill-rule="evenodd" clip-rule="evenodd" d="M39.5 52C46.4036 52 52 46.4036 52 39.5C52 32.5964 46.4036 27 39.5 27C32.5964 27 27 32.5964 27 39.5C27 46.4036 32.5964 52 39.5 52ZM39.5 46C43.0899 46 46 43.0899 46 39.5C46 35.9101 43.0899 33 39.5 33C35.9101 33 33 35.9101 33 39.5C33 43.0899 35.9101 46 39.5 46Z" fill="#52ECD2"/>
<rect width="2" height="4" transform="matrix(-1 0 0 1 12 16)" fill="#209E89"/>
<rect width="2" height="2" transform="matrix(-1 0 0 1 14 22)" fill="#209E89"/>
<rect width="2" height="2" transform="matrix(-1 0 0 1 13 21)" fill="#209E89"/>
<rect width="2" height="2" transform="matrix(-1 0 0 1 12 19)" fill="#209E89"/>
<rect width="2" height="2" transform="matrix(-1 0 0 1 15 23)" fill="#209E89"/>
<rect width="2" height="2" transform="matrix(-1 0 0 1 16 24)" fill="#209E89"/>
<rect width="3" height="2" transform="matrix(-1 0 0 1 19 24)" fill="#209E89"/>
<rect x="23" y="16" width="2" height="4" fill="#209E89"/>
<rect x="21" y="22" width="2" height="2" fill="#209E89"/>
<rect x="22" y="21" width="2" height="2" fill="#209E89"/>
<rect x="23" y="19" width="2" height="2" fill="#209E89"/>
<rect x="20" y="23" width="2" height="2" fill="#209E89"/>
<rect x="19" y="24" width="2" height="2" fill="#209E89"/>
<rect x="16" y="24" width="3" height="2" fill="#209E89"/>
<rect width="2" height="4" transform="matrix(1 0 0 -1 23 21)" fill="#209E89"/>
<rect width="2" height="2" transform="matrix(1 0 0 -1 21 15)" fill="#209E89"/>
<rect width="2" height="2" transform="matrix(1 0 0 -1 22 16)" fill="#209E89"/>
<rect width="2" height="2" transform="matrix(1 0 0 -1 23 18)" fill="#209E89"/>
<rect width="2" height="2" transform="matrix(1 0 0 -1 20 14)" fill="#209E89"/>
<rect width="2" height="2" transform="matrix(1 0 0 -1 19 13)" fill="#209E89"/>
<rect width="3" height="2" transform="matrix(1 0 0 -1 16 13)" fill="#209E89"/>
<rect x="12" y="21" width="2" height="4" transform="rotate(-180 12 21)" fill="#209E89"/>
<rect x="14" y="15" width="2" height="2" transform="rotate(-180 14 15)" fill="#209E89"/>
<rect x="13" y="16" width="2" height="2" transform="rotate(-180 13 16)" fill="#209E89"/>
<rect x="12" y="18" width="2" height="2" transform="rotate(-180 12 18)" fill="#209E89"/>
<rect x="15" y="14" width="2" height="2" transform="rotate(-180 15 14)" fill="#209E89"/>
<rect x="16" y="13" width="2" height="2" transform="rotate(-180 16 13)" fill="#209E89"/>
<rect x="19" y="13" width="3" height="2" transform="rotate(-180 19 13)" fill="#209E89"/>
<rect width="2" height="4" transform="matrix(-1 0 0 1 34 37)" fill="#209E89"/>
<rect width="2" height="2" transform="matrix(-1 0 0 1 36 43)" fill="#209E89"/>
<rect width="2" height="2" transform="matrix(-1 0 0 1 35 42)" fill="#209E89"/>
<rect width="2" height="2" transform="matrix(-1 0 0 1 34 40)" fill="#209E89"/>
<rect width="2" height="2" transform="matrix(-1 0 0 1 37 44)" fill="#209E89"/>
<rect width="2" height="2" transform="matrix(-1 0 0 1 38 45)" fill="#209E89"/>
<rect width="3" height="2" transform="matrix(-1 0 0 1 41 45)" fill="#209E89"/>
<rect x="45" y="37" width="2" height="4" fill="#209E89"/>
<rect x="43" y="43" width="2" height="2" fill="#209E89"/>
<rect x="44" y="42" width="2" height="2" fill="#209E89"/>
<rect x="45" y="40" width="2" height="2" fill="#209E89"/>
<rect x="42" y="44" width="2" height="2" fill="#209E89"/>
<rect x="41" y="45" width="2" height="2" fill="#209E89"/>
<rect x="38" y="45" width="3" height="2" fill="#209E89"/>
<rect width="2" height="4" transform="matrix(1 0 0 -1 45 42)" fill="#209E89"/>
<rect width="2" height="2" transform="matrix(1 0 0 -1 43 36)" fill="#209E89"/>
<rect width="2" height="2" transform="matrix(1 0 0 -1 44 37)" fill="#209E89"/>
<rect width="2" height="2" transform="matrix(1 0 0 -1 45 39)" fill="#209E89"/>
<rect width="2" height="2" transform="matrix(1 0 0 -1 42 35)" fill="#209E89"/>
<rect width="2" height="2" transform="matrix(1 0 0 -1 41 34)" fill="#209E89"/>
<rect width="3" height="2" transform="matrix(1 0 0 -1 38 34)" fill="#209E89"/>
<rect x="34" y="42" width="2" height="4" transform="rotate(-180 34 42)" fill="#209E89"/>
<rect x="36" y="36" width="2" height="2" transform="rotate(-180 36 36)" fill="#209E89"/>
<rect x="35" y="37" width="2" height="2" transform="rotate(-180 35 37)" fill="#209E89"/>
<rect x="34" y="39" width="2" height="2" transform="rotate(-180 34 39)" fill="#209E89"/>
<rect x="37" y="35" width="2" height="2" transform="rotate(-180 37 35)" fill="#209E89"/>
<rect x="38" y="34" width="2" height="2" transform="rotate(-180 38 34)" fill="#209E89"/>
<rect x="41" y="34" width="3" height="2" transform="rotate(-180 41 34)" fill="#209E89"/>
<rect width="2" height="2" transform="matrix(-1 0 0 1 19 5)" fill="#209E89"/>
<rect width="2" height="2" transform="matrix(-1 0 0 1 26 8)" fill="#209E89"/>
<rect width="2" height="2" transform="matrix(-1 0 0 1 25 7)" fill="#209E89"/>
<rect width="2" height="2" transform="matrix(-1 0 0 1 24 6)" fill="#209E89"/>
<rect width="4" height="2" transform="matrix(-1 0 0 1 23 5)" fill="#209E89"/>
<rect width="2" height="2" transform="matrix(-1 0 0 1 27 9)" fill="#209E89"/>
<rect width="2" height="2" transform="matrix(-1 0 0 1 28 10)" fill="#209E89"/>
<rect width="2" height="2" transform="matrix(-1 0 0 1 29 11)" fill="#209E89"/>
<rect width="2" height="2" transform="matrix(-1 0 0 1 30 12)" fill="#209E89"/>
<rect width="2" height="2" transform="matrix(-1 0 0 1 30 13)" fill="#209E89"/>
<rect width="2" height="2" transform="matrix(-1 0 0 1 31 14)" fill="#209E89"/>
<rect width="2" height="6" transform="matrix(-1 0 0 1 31 15)" fill="#209E89"/>
<rect x="19" y="32" width="2" height="2" transform="rotate(-180 19 32)" fill="#209E89"/>
<rect x="26" y="29" width="2" height="2" transform="rotate(-180 26 29)" fill="#209E89"/>
<rect x="25" y="30" width="2" height="2" transform="rotate(-180 25 30)" fill="#209E89"/>
<rect x="24" y="31" width="2" height="2" transform="rotate(-180 24 31)" fill="#209E89"/>
<rect x="23" y="32" width="4" height="2" transform="rotate(-180 23 32)" fill="#209E89"/>
<rect x="27" y="28" width="2" height="2" transform="rotate(-180 27 28)" fill="#209E89"/>
<rect x="28" y="27" width="2" height="2" transform="rotate(-180 28 27)" fill="#209E89"/>
<rect x="29" y="26" width="2" height="2" transform="rotate(-180 29 26)" fill="#209E89"/>
<rect x="30" y="25" width="2" height="2" transform="rotate(-180 30 25)" fill="#209E89"/>
<rect x="30" y="24" width="2" height="2" transform="rotate(-180 30 24)" fill="#209E89"/>
<rect x="31" y="23" width="2" height="2" transform="rotate(-180 31 23)" fill="#209E89"/>
<rect x="31" y="22" width="2" height="6" transform="rotate(-180 31 22)" fill="#209E89"/>
<rect x="16" y="5" width="2" height="2" fill="#209E89"/>
<rect x="9" y="8" width="2" height="2" fill="#209E89"/>
<rect x="10" y="7" width="2" height="2" fill="#209E89"/>
<rect x="11" y="6" width="2" height="2" fill="#209E89"/>
<rect x="12" y="5" width="4" height="2" fill="#209E89"/>
<rect x="8" y="9" width="2" height="2" fill="#209E89"/>
<rect x="7" y="10" width="2" height="2" fill="#209E89"/>
<rect x="6" y="11" width="2" height="2" fill="#209E89"/>
<rect x="5" y="12" width="2" height="2" fill="#209E89"/>
<rect x="5" y="13" width="2" height="2" fill="#209E89"/>
<rect x="4" y="14" width="2" height="2" fill="#209E89"/>
<rect x="4" y="15" width="2" height="6" fill="#209E89"/>
<rect width="2" height="2" transform="matrix(1 0 0 -1 16 32)" fill="#209E89"/>
<rect width="2" height="2" transform="matrix(1 0 0 -1 9 29)" fill="#209E89"/>
<rect width="2" height="2" transform="matrix(1 0 0 -1 10 30)" fill="#209E89"/>
<rect width="2" height="2" transform="matrix(1 0 0 -1 11 31)" fill="#209E89"/>
<rect width="4" height="2" transform="matrix(1 0 0 -1 12 32)" fill="#209E89"/>
<rect width="2" height="2" transform="matrix(1 0 0 -1 8 28)" fill="#209E89"/>
<rect width="2" height="2" transform="matrix(1 0 0 -1 7 27)" fill="#209E89"/>
<rect width="2" height="2" transform="matrix(1 0 0 -1 6 26)" fill="#209E89"/>
<rect width="2" height="2" transform="matrix(1 0 0 -1 5 25)" fill="#209E89"/>
<rect width="2" height="2" transform="matrix(1 0 0 -1 5 24)" fill="#209E89"/>
<rect width="2" height="2" transform="matrix(1 0 0 -1 4 23)" fill="#209E89"/>
<rect width="2" height="6" transform="matrix(1 0 0 -1 4 22)" fill="#209E89"/>
<rect width="2" height="2" transform="matrix(-1 0 0 1 41 26)" fill="#209E89"/>
<rect width="2" height="2" transform="matrix(-1 0 0 1 48 29)" fill="#209E89"/>
<rect width="2" height="2" transform="matrix(-1 0 0 1 47 28)" fill="#209E89"/>
<rect width="2" height="2" transform="matrix(-1 0 0 1 46 27)" fill="#209E89"/>
<rect width="4" height="2" transform="matrix(-1 0 0 1 45 26)" fill="#209E89"/>
<rect width="2" height="2" transform="matrix(-1 0 0 1 49 30)" fill="#209E89"/>
<rect width="2" height="2" transform="matrix(-1 0 0 1 50 31)" fill="#209E89"/>
<rect width="2" height="2" transform="matrix(-1 0 0 1 51 32)" fill="#209E89"/>
<rect width="2" height="2" transform="matrix(-1 0 0 1 52 33)" fill="#209E89"/>
<rect width="2" height="2" transform="matrix(-1 0 0 1 52 34)" fill="#209E89"/>
<rect width="2" height="2" transform="matrix(-1 0 0 1 53 35)" fill="#209E89"/>
<rect width="2" height="6" transform="matrix(-1 0 0 1 53 36)" fill="#209E89"/>
<rect x="41" y="53" width="2" height="2" transform="rotate(-180 41 53)" fill="#209E89"/>
<rect x="48" y="50" width="2" height="2" transform="rotate(-180 48 50)" fill="#209E89"/>
<rect x="47" y="51" width="2" height="2" transform="rotate(-180 47 51)" fill="#209E89"/>
<rect x="46" y="52" width="2" height="2" transform="rotate(-180 46 52)" fill="#209E89"/>
<rect x="45" y="53" width="4" height="2" transform="rotate(-180 45 53)" fill="#209E89"/>
<rect x="49" y="49" width="2" height="2" transform="rotate(-180 49 49)" fill="#209E89"/>
<rect x="50" y="48" width="2" height="2" transform="rotate(-180 50 48)" fill="#209E89"/>
<rect x="51" y="47" width="2" height="2" transform="rotate(-180 51 47)" fill="#209E89"/>
<rect x="52" y="46" width="2" height="2" transform="rotate(-180 52 46)" fill="#209E89"/>
<rect x="52" y="45" width="2" height="2" transform="rotate(-180 52 45)" fill="#209E89"/>
<rect x="53" y="44" width="2" height="2" transform="rotate(-180 53 44)" fill="#209E89"/>
<rect x="53" y="43" width="2" height="6" transform="rotate(-180 53 43)" fill="#209E89"/>
<rect x="38" y="26" width="2" height="2" fill="#209E89"/>
<rect x="31" y="29" width="2" height="2" fill="#209E89"/>
<rect x="32" y="28" width="2" height="2" fill="#209E89"/>
<rect x="33" y="27" width="2" height="2" fill="#209E89"/>
<rect x="34" y="26" width="4" height="2" fill="#209E89"/>
<rect x="30" y="30" width="2" height="2" fill="#209E89"/>
<rect x="29" y="31" width="2" height="2" fill="#209E89"/>
<rect x="28" y="32" width="2" height="2" fill="#209E89"/>
<rect x="27" y="33" width="2" height="2" fill="#209E89"/>
<rect x="27" y="34" width="2" height="2" fill="#209E89"/>
<rect x="26" y="35" width="2" height="2" fill="#209E89"/>
<rect x="26" y="36" width="2" height="6" fill="#209E89"/>
<rect width="2" height="2" transform="matrix(1 0 0 -1 38 53)" fill="#209E89"/>
<rect width="2" height="2" transform="matrix(1 0 0 -1 31 50)" fill="#209E89"/>
<rect width="2" height="2" transform="matrix(1 0 0 -1 32 51)" fill="#209E89"/>
<rect width="2" height="2" transform="matrix(1 0 0 -1 33 52)" fill="#209E89"/>
<rect width="4" height="2" transform="matrix(1 0 0 -1 34 53)" fill="#209E89"/>
<rect width="2" height="2" transform="matrix(1 0 0 -1 30 49)" fill="#209E89"/>
<rect width="2" height="2" transform="matrix(1 0 0 -1 29 48)" fill="#209E89"/>
<rect width="2" height="2" transform="matrix(1 0 0 -1 28 47)" fill="#209E89"/>
<rect width="2" height="2" transform="matrix(1 0 0 -1 27 46)" fill="#209E89"/>
<rect width="2" height="2" transform="matrix(1 0 0 -1 27 45)" fill="#209E89"/>
<rect width="2" height="2" transform="matrix(1 0 0 -1 26 44)" fill="#209E89"/>
<rect width="2" height="6" transform="matrix(1 0 0 -1 26 43)" fill="#209E89"/>
</svg>
