<svg width="56" height="56" viewBox="0 0 56 56" fill="none" xmlns="http://www.w3.org/2000/svg">
<circle cx="25" cy="13" r="12" fill="#FFDBB9"/>
<circle cx="25" cy="13" r="12" fill="#EB8F5B"/>
<path fill-rule="evenodd" clip-rule="evenodd" d="M6 21C6 27.2132 16.0736 32.25 28.5 32.25C40.9264 32.25 51 27.2132 51 21H6Z" fill="#91E4FF"/>
<path fill-rule="evenodd" clip-rule="evenodd" d="M6 21C6 27.2132 16.0736 32.25 28.5 32.25C40.9264 32.25 51 27.2132 51 21H6Z" fill="#00C0FD"/>
<rect x="26" y="30" width="5" height="22" fill="#90E4FF"/>
<rect x="26" y="30" width="5" height="22" fill="#00C0FD"/>
<rect x="20" y="51" width="17" height="2" fill="#90E4FF"/>
<rect x="20" y="51" width="17" height="2" fill="#00C0FD"/>
<path fill-rule="evenodd" clip-rule="evenodd" d="M29.8978 21C29.9034 20.8497 29.9062 20.6986 29.9062 20.5469C29.9062 13.9453 24.5547 8.59375 17.9531 8.59375C11.3516 8.59375 6 13.9453 6 20.5469C6 20.6986 6.00283 20.8497 6.00843 21H29.8978Z" fill="#F726BC"/>
<path fill-rule="evenodd" clip-rule="evenodd" d="M29.8978 21C29.9034 20.8497 29.9062 20.6986 29.9062 20.5469C29.9062 13.9453 24.5547 8.59375 17.9531 8.59375C11.3516 8.59375 6 13.9453 6 20.5469C6 20.6986 6.00283 20.8497 6.00843 21H29.8978Z" fill="#F726BC"/>
<path fill-rule="evenodd" clip-rule="evenodd" d="M29.9062 21C29.9062 20.9844 29.9062 20.9688 29.9062 20.9531C29.9062 14.3516 24.5547 9 17.9531 9C11.3516 9 6 14.3516 6 20.9531C6 20.9688 6.00003 20.9844 6.00009 21H29.9062Z" fill="#F726BC"/>
<path fill-rule="evenodd" clip-rule="evenodd" d="M29.9062 21C29.9062 20.9844 29.9062 20.9688 29.9062 20.9531C29.9062 14.3516 24.5547 9 17.9531 9C11.3516 9 6 14.3516 6 20.9531C6 20.9688 6.00003 20.9844 6.00009 21H29.9062Z" fill="#E66EC4"/>
<path fill-rule="evenodd" clip-rule="evenodd" d="M50.9916 21C50.9972 20.8497 51 20.6986 51 20.5469C51 13.9453 45.6484 8.59375 39.0469 8.59375C32.4453 8.59375 27.0938 13.9453 27.0938 20.5469C27.0938 20.6986 27.0966 20.8497 27.1022 21H50.9916Z" fill="#FFF4B9"/>
<path fill-rule="evenodd" clip-rule="evenodd" d="M50.9916 21C50.9972 20.8497 51 20.6986 51 20.5469C51 13.9453 45.6484 8.59375 39.0469 8.59375C32.4453 8.59375 27.0938 13.9453 27.0938 20.5469C27.0938 20.6986 27.0966 20.8497 27.1022 21H50.9916Z" fill="#FBDE4A"/>
<rect x="12" y="9" width="2" height="2" fill="#3A3A3A"/>
<rect x="12" y="9" width="2" height="2" fill="#3A3A3A"/>
<rect x="34" y="6" width="2" height="2" fill="#3A3A3A"/>
<rect x="34" y="6" width="2" height="2" fill="#3A3A3A"/>
<rect x="33" y="4" width="2" height="2" fill="#3A3A3A"/>
<rect x="33" y="4" width="2" height="2" fill="#3A3A3A"/>
<rect x="31" y="2" width="2" height="2" fill="#3A3A3A"/>
<rect x="31" y="2" width="2" height="2" fill="#3A3A3A"/>
<rect x="29" y="1" width="2" height="2" fill="#3A3A3A"/>
<rect x="29" y="1" width="2" height="2" fill="#3A3A3A"/>
<rect x="24" width="5" height="2" fill="#3A3A3A"/>
<rect x="24" width="5" height="2" fill="#3A3A3A"/>
<rect x="22" y="1" width="2" height="2" fill="#3A3A3A"/>
<rect x="22" y="1" width="2" height="2" fill="#3A3A3A"/>
<rect x="20" y="1" width="2" height="2" fill="#3A3A3A"/>
<rect x="20" y="1" width="2" height="2" fill="#3A3A3A"/>
<rect x="18" y="2" width="2" height="2" fill="#3A3A3A"/>
<rect x="18" y="2" width="2" height="2" fill="#3A3A3A"/>
<rect x="13" y="7" width="2" height="2" fill="#3A3A3A"/>
<rect x="13" y="7" width="2" height="2" fill="#3A3A3A"/>
<rect x="14" y="5" width="2" height="2" fill="#3A3A3A"/>
<rect x="14" y="5" width="2" height="2" fill="#3A3A3A"/>
<rect x="16" y="3" width="2" height="2" fill="#3A3A3A"/>
<rect x="16" y="3" width="2" height="2" fill="#3A3A3A"/>
<rect x="14" y="8" width="2" height="2" fill="#3A3A3A"/>
<rect x="14" y="8" width="2" height="2" fill="#3A3A3A"/>
<rect x="26" y="13" width="2" height="2" fill="#3A3A3A"/>
<rect x="26" y="13" width="2" height="2" fill="#3A3A3A"/>
<rect x="25" y="11" width="2" height="2" fill="#3A3A3A"/>
<rect x="25" y="11" width="2" height="2" fill="#3A3A3A"/>
<rect x="23" y="10" width="2" height="2" fill="#3A3A3A"/>
<rect x="23" y="10" width="2" height="2" fill="#3A3A3A"/>
<rect x="21" y="9" width="2" height="2" fill="#3A3A3A"/>
<rect x="21" y="9" width="2" height="2" fill="#3A3A3A"/>
<rect x="16" y="8" width="3" height="2" fill="#3A3A3A"/>
<rect x="16" y="8" width="3" height="2" fill="#3A3A3A"/>
<rect x="19" y="8" width="3" height="2" fill="#3A3A3A"/>
<rect x="19" y="8" width="3" height="2" fill="#3A3A3A"/>
<rect x="10" y="10" width="2" height="2" fill="#3A3A3A"/>
<rect x="10" y="10" width="2" height="2" fill="#3A3A3A"/>
<rect x="8" y="12" width="2" height="2" fill="#3A3A3A"/>
<rect x="8" y="12" width="2" height="2" fill="#3A3A3A"/>
<rect x="20" y="49" width="4" height="2" fill="#3A3A3A"/>
<rect x="20" y="49" width="4" height="2" fill="#3A3A3A"/>
<rect x="31" y="49" width="6" height="2" fill="#3A3A3A"/>
<rect x="31" y="49" width="6" height="2" fill="#3A3A3A"/>
<rect x="14" y="29" width="2" height="2" fill="#3A3A3A"/>
<rect x="12" y="28" width="2" height="2" fill="#3A3A3A"/>
<rect x="10" y="27" width="2" height="2" fill="#3A3A3A"/>
<rect x="8" y="26" width="2" height="2" fill="#3A3A3A"/>
<rect x="6" y="22" width="2" height="2" fill="#3A3A3A"/>
<rect x="7" y="24" width="2" height="2" fill="#3A3A3A"/>
<rect x="16" y="30" width="2" height="2" fill="#3A3A3A"/>
<rect x="18" y="30" width="2" height="2" fill="#3A3A3A"/>
<rect x="20" y="31" width="2" height="2" fill="#3A3A3A"/>
<rect x="22" y="31" width="2" height="2" fill="#3A3A3A"/>
<rect x="14" y="29" width="2" height="2" fill="#3A3A3A"/>
<rect x="12" y="28" width="2" height="2" fill="#3A3A3A"/>
<rect x="10" y="27" width="2" height="2" fill="#3A3A3A"/>
<rect x="8" y="26" width="2" height="2" fill="#3A3A3A"/>
<rect x="6" y="22" width="2" height="2" fill="#3A3A3A"/>
<rect x="7" y="24" width="2" height="2" fill="#3A3A3A"/>
<rect x="16" y="30" width="2" height="2" fill="#3A3A3A"/>
<rect x="18" y="30" width="2" height="2" fill="#3A3A3A"/>
<rect x="20" y="31" width="2" height="2" fill="#3A3A3A"/>
<rect x="22" y="31" width="2" height="2" fill="#3A3A3A"/>
<rect width="2" height="2" transform="matrix(-1 0 0 1 43 29)" fill="#3A3A3A"/>
<rect width="2" height="2" transform="matrix(-1 0 0 1 45 28)" fill="#3A3A3A"/>
<rect width="2" height="2" transform="matrix(-1 0 0 1 47 27)" fill="#3A3A3A"/>
<rect width="2" height="2" transform="matrix(-1 0 0 1 49 26)" fill="#3A3A3A"/>
<rect width="2" height="2" transform="matrix(-1 0 0 1 51 22)" fill="#3A3A3A"/>
<rect width="2" height="2" transform="matrix(-1 0 0 1 50 24)" fill="#3A3A3A"/>
<rect width="2" height="2" transform="matrix(-1 0 0 1 41 30)" fill="#3A3A3A"/>
<rect width="2" height="2" transform="matrix(-1 0 0 1 39 30)" fill="#3A3A3A"/>
<rect width="2" height="2" transform="matrix(-1 0 0 1 37 31)" fill="#3A3A3A"/>
<rect width="2" height="2" transform="matrix(-1 0 0 1 35 31)" fill="#3A3A3A"/>
<rect width="2" height="2" transform="matrix(-1 0 0 1 43 29)" fill="#3A3A3A"/>
<rect width="2" height="2" transform="matrix(-1 0 0 1 45 28)" fill="#3A3A3A"/>
<rect width="2" height="2" transform="matrix(-1 0 0 1 47 27)" fill="#3A3A3A"/>
<rect width="2" height="2" transform="matrix(-1 0 0 1 49 26)" fill="#3A3A3A"/>
<rect width="2" height="2" transform="matrix(-1 0 0 1 51 22)" fill="#3A3A3A"/>
<rect width="2" height="2" transform="matrix(-1 0 0 1 50 24)" fill="#3A3A3A"/>
<rect width="2" height="2" transform="matrix(-1 0 0 1 41 30)" fill="#3A3A3A"/>
<rect width="2" height="2" transform="matrix(-1 0 0 1 39 30)" fill="#3A3A3A"/>
<rect width="2" height="2" transform="matrix(-1 0 0 1 37 31)" fill="#3A3A3A"/>
<rect width="2" height="2" transform="matrix(-1 0 0 1 35 31)" fill="#3A3A3A"/>
<rect x="24" y="32" width="2" height="19" fill="#3A3A3A"/>
<rect x="24" y="32" width="2" height="19" fill="#3A3A3A"/>
<rect x="31" y="32" width="2" height="19" fill="#3A3A3A"/>
<rect x="31" y="32" width="2" height="19" fill="#3A3A3A"/>
<rect x="37" y="49" width="2" height="6" fill="#3A3A3A"/>
<rect x="37" y="49" width="2" height="6" fill="#3A3A3A"/>
<rect x="18" y="49" width="2" height="6" fill="#3A3A3A"/>
<rect x="18" y="49" width="2" height="6" fill="#3A3A3A"/>
<rect x="7" y="14" width="2" height="2" fill="#3A3A3A"/>
<rect x="7" y="14" width="2" height="2" fill="#3A3A3A"/>
<rect x="6" y="16" width="2" height="2" fill="#3A3A3A"/>
<rect x="6" y="16" width="2" height="2" fill="#3A3A3A"/>
<rect x="6" y="18" width="2" height="2" fill="#3A3A3A"/>
<rect x="6" y="18" width="2" height="2" fill="#3A3A3A"/>
<rect x="20" y="53" width="17" height="2" fill="#3A3A3A"/>
<rect x="20" y="53" width="17" height="2" fill="#3A3A3A"/>
<rect x="49" y="18" width="2" height="2" fill="#3A3A3A"/>
<rect x="49" y="18" width="2" height="2" fill="#3A3A3A"/>
<rect x="38" y="7" width="3" height="2" fill="#3A3A3A"/>
<rect x="38" y="7" width="3" height="2" fill="#3A3A3A"/>
<rect x="27" y="18" width="2" height="2" fill="#3A3A3A"/>
<rect x="27" y="18" width="2" height="2" fill="#3A3A3A"/>
<rect x="27" y="16" width="2" height="2" fill="#3A3A3A"/>
<rect x="27" y="16" width="2" height="2" fill="#3A3A3A"/>
<rect x="28" y="14" width="2" height="2" fill="#3A3A3A"/>
<rect x="27" y="14" width="3" height="2" fill="#3A3A3A"/>
<rect x="29" y="12" width="2" height="2" fill="#3A3A3A"/>
<rect x="29" y="12" width="2" height="2" fill="#3A3A3A"/>
<rect x="30" y="11" width="2" height="2" fill="#3A3A3A"/>
<rect x="30" y="11" width="2" height="2" fill="#3A3A3A"/>
<rect x="31" y="10" width="2" height="2" fill="#3A3A3A"/>
<rect x="31" y="10" width="2" height="2" fill="#3A3A3A"/>
<rect x="36" y="13" width="2" height="2" fill="#3A3A3A"/>
<rect x="28" y="5" width="2" height="2" fill="#3A3A3A"/>
<rect x="24" y="5" width="2" height="2" fill="#3A3A3A"/>
<rect x="20" y="13" width="2" height="2" fill="#3A3A3A"/>
<rect x="41" y="13" width="2" height="2" fill="#3A3A3A"/>
<rect x="15" y="13" width="2" height="2" fill="#3A3A3A"/>
<rect x="33" y="9" width="2" height="2" fill="#3A3A3A"/>
<rect x="33" y="9" width="2" height="2" fill="#3A3A3A"/>
<rect x="35" y="8" width="2" height="2" fill="#3A3A3A"/>
<rect x="35" y="8" width="2" height="2" fill="#3A3A3A"/>
<rect x="36" y="7" width="2" height="2" fill="#3A3A3A"/>
<rect x="36" y="7" width="2" height="2" fill="#3A3A3A"/>
<rect x="41" y="8" width="2" height="2" fill="#3A3A3A"/>
<rect x="41" y="8" width="2" height="2" fill="#3A3A3A"/>
<rect x="43" y="9" width="2" height="2" fill="#3A3A3A"/>
<rect x="43" y="9" width="2" height="2" fill="#3A3A3A"/>
<rect x="45" y="10" width="2" height="2" fill="#3A3A3A"/>
<rect x="45" y="10" width="2" height="2" fill="#3A3A3A"/>
<rect x="47" y="12" width="2" height="2" fill="#3A3A3A"/>
<rect x="47" y="12" width="2" height="2" fill="#3A3A3A"/>
<rect x="48" y="14" width="2" height="2" fill="#3A3A3A"/>
<rect x="48" y="14" width="2" height="2" fill="#3A3A3A"/>
<rect x="49" y="16" width="2" height="2" fill="#3A3A3A"/>
<rect x="49" y="16" width="2" height="2" fill="#3A3A3A"/>
<rect x="6" y="20" width="45" height="2" fill="#3A3A3A"/>
<rect x="6" y="20" width="45" height="2" fill="#3A3A3A"/>
</svg>
