<svg width="50" height="50" viewBox="0 0 50 50" fill="none" xmlns="http://www.w3.org/2000/svg">
<path fill-rule="evenodd" clip-rule="evenodd" d="M23.6799 9.26896C28.6664 8.84659 30.3744 0.568368 35.3508 0.0375985C39.4579 -0.400456 43.9972 3.05563 45.4973 6.94196C47.1154 11.134 42.2343 15.6252 43.0732 20.044C43.8685 24.2336 50.3581 26.3293 49.9845 30.5785C49.6317 34.5917 43.8834 35.6344 41.4237 38.8063C38.9373 42.0125 39.4215 48.3886 35.4858 49.2749C31.0599 50.2716 28.213 42.6872 23.6799 42.8021C18.9628 42.9215 16.1528 51.0764 11.5853 49.8802C7.49735 48.8096 8.68407 41.9933 6.54628 38.3148C4.74656 35.218 0.268683 33.5518 0.0144096 29.9701C-0.249856 26.2477 3.18216 23.352 5.26519 20.2696C6.8273 17.958 9.6665 16.6735 10.7427 14.0945C12.3462 10.2519 9.04207 3.38257 12.9151 1.93794C17.0264 0.40442 19.3125 9.63888 23.6799 9.26896Z" fill="url(#paint0_linear_4_54)"/>
<defs>
<linearGradient id="paint0_linear_4_54" x1="25" y1="0" x2="25" y2="50" gradientUnits="userSpaceOnUse">
<stop stop-color="#C0C0C0"/>
<stop offset="1" stop-color="#DDDDDD"/>
</linearGradient>
</defs>
</svg>
