<svg width="50" height="50" viewBox="0 0 50 50" fill="none" xmlns="http://www.w3.org/2000/svg">
<path fill-rule="evenodd" clip-rule="evenodd" d="M17.4111 3.53252C20.1623 4.79907 21.7258 8.66059 24.74 8.79166C30.1704 9.02781 35.615 1.74481 40.3202 4.52875C44.1657 6.80406 38.728 13.7753 40.3287 18.0151C42.0596 22.5996 52.1218 24.9151 49.5954 29.095C46.1915 34.7266 35.7249 29.1862 30.9055 33.6054C27.9573 36.3088 33.4507 42.0277 31.5917 45.6039C30.0007 48.6643 25.806 49.4221 22.4473 49.8762C19.1531 50.3216 15.774 49.5231 12.7327 48.1538C9.9062 46.8812 7.51628 44.7522 5.5872 42.285C3.85697 40.0721 2.66839 37.4264 2.166 34.6396C1.71932 32.1618 3.09484 29.7068 2.86741 27.198C2.64338 24.7266 1.20154 22.5843 0.850557 20.1285C0.365765 16.7365 -0.521506 13.2613 0.404725 9.96676C1.44363 6.27148 2.88537 1.68696 6.41019 0.353369C10.0236 -1.01373 13.8978 1.91515 17.4111 3.53252Z" fill="url(#paint0_linear_4_74)"/>
<defs>
<linearGradient id="paint0_linear_4_74" x1="25" y1="0" x2="25" y2="50" gradientUnits="userSpaceOnUse">
<stop stop-color="#C0C0C0"/>
<stop offset="1" stop-color="#DDDDDD"/>
</linearGradient>
</defs>
</svg>
