<svg width="50" height="50" viewBox="0 0 50 50" fill="none" xmlns="http://www.w3.org/2000/svg">
<path fill-rule="evenodd" clip-rule="evenodd" d="M27.812 0.000493905C32.2563 0.0830532 27.5374 11.7536 31.9093 12.5593C38.3295 13.7426 45.1373 -1.14654 49.2389 3.94947C53.331 9.03367 39.7126 13.0011 37.0741 18.9763C36.2549 20.8315 40.3489 21.9511 40.3941 23.9799C40.4365 25.8838 37.2798 26.7791 37.2903 28.6835C37.3258 35.1582 43.2606 41.7246 40.5236 47.5879C38.6923 51.5109 32.0829 49.6176 27.812 48.9877C23.7829 48.3934 20.6227 45.4416 16.7809 44.086C12.4363 42.5529 6.90484 43.7001 3.62692 40.4537C0.398294 37.2561 0.0536936 32.02 0.00177611 27.468C-0.0460987 23.2705 0.868969 18.8782 3.34223 15.4929C5.6526 12.3304 9.33616 9.99066 13.1994 9.40312C16.8246 8.85179 20.5544 14.3919 23.641 12.4057C27.3483 10.0203 23.4089 -0.0813006 27.812 0.000493905Z" fill="url(#paint0_linear_5_91)"/>
<defs>
<linearGradient id="paint0_linear_5_91" x1="25" y1="0" x2="25" y2="50" gradientUnits="userSpaceOnUse">
<stop stop-color="#C0C0C0"/>
<stop offset="1" stop-color="#DDDDDD"/>
</linearGradient>
</defs>
</svg>
