<svg width="50" height="50" viewBox="0 0 50 50" fill="none" xmlns="http://www.w3.org/2000/svg">
<path fill-rule="evenodd" clip-rule="evenodd" d="M23.0514 1.01565C26.3665 -0.975424 30.866 0.35614 34.5102 1.65133C38.2355 2.97537 41.4613 5.4901 44.0483 8.47832C46.6157 11.4439 48.6343 14.9734 49.3774 18.8239C50.0959 22.5473 50.6824 27.1427 48.2045 30.0146C45.2682 33.4178 37.5842 30.5909 35.703 34.6725C33.5442 39.3565 43.6766 47.0242 39.1903 49.5723C34.4168 52.2837 31.2068 41.254 25.8003 40.2972C22.8732 39.7791 22.0195 46.4979 19.0865 46.0142C16.2364 45.5442 16.8509 40.6873 14.9555 38.5087C13.557 36.9014 11.4541 36.2 9.61349 35.1261C6.41721 33.2613 0.387172 33.4723 0.0156712 29.7922C-0.356835 26.1021 6.01267 25.48 8.34884 22.5983C9.76739 20.8485 9.45788 18.1657 10.8662 16.4077C12.2973 14.6212 15.0094 14.3049 16.4302 12.5102C19.2053 9.00474 19.2178 3.31811 23.0514 1.01565Z" fill="url(#paint0_linear_6_103)"/>
<defs>
<linearGradient id="paint0_linear_6_103" x1="25" y1="0" x2="25" y2="50" gradientUnits="userSpaceOnUse">
<stop stop-color="#C0C0C0"/>
<stop offset="1" stop-color="#DDDDDD"/>
</linearGradient>
</defs>
</svg>
