<svg width="50" height="44" viewBox="0 0 50 44" fill="none" xmlns="http://www.w3.org/2000/svg">
<path fill-rule="evenodd" clip-rule="evenodd" d="M23.0625 2.75324C25.4888 3.19775 28.3437 1.58693 30.3655 2.99997C32.4599 4.46378 31.0395 8.88501 33.3616 9.95143C38.5045 12.3133 49.8611 6.35906 49.9989 12.0166C50.1508 18.2528 34.9822 14.4869 33.6204 20.5744C32.2504 26.6987 48.4152 30.366 44.7539 35.463C41.1728 40.4485 33.8282 26.4958 27.9947 28.4063C23.1842 29.9818 27.1579 39.5923 23.0625 42.5672C20.1375 44.6919 15.2961 42.0641 12.8233 39.4267C10.2393 36.6708 12.1908 31.6617 9.97118 28.6047C7.89922 25.7511 2.79339 26.2494 1.03574 23.1922C-0.654083 20.2529 -0.0110165 16.3568 1.08529 13.1485C2.15295 10.0241 4.75237 7.75618 7.1028 5.43722C9.26984 3.29919 11.3442 0.569961 14.3462 0.0651006C17.3827 -0.445541 20.0339 2.19836 23.0625 2.75324Z" fill="url(#paint0_linear_4_30)"/>
<defs>
<linearGradient id="paint0_linear_4_30" x1="25" y1="0" x2="25" y2="43.3441" gradientUnits="userSpaceOnUse">
<stop stop-color="#C0C0C0"/>
<stop offset="1" stop-color="#DDDDDD"/>
</linearGradient>
</defs>
</svg>
