<svg width="50" height="50" viewBox="0 0 50 50" fill="none" xmlns="http://www.w3.org/2000/svg">
<path fill-rule="evenodd" clip-rule="evenodd" d="M25.9468 2.84665C28.1047 3.61251 29.2487 7.37713 31.4974 7.09119C36.9494 6.39795 41.2932 -1.40366 46.5856 0.222367C50.2668 1.35339 50.608 8.53295 49.3145 12.5653C47.783 17.3392 39.4219 17.604 39.3819 22.678C39.336 28.5209 51.1213 30.7255 49.1291 36.1233C47.2843 41.1221 38.9102 31.9359 34.8743 34.8918C31.1352 37.6303 34.7752 46.1042 31.2677 49.2052C28.5098 51.6434 24.4841 47.7502 21.016 47.1438C17.3649 46.5054 12.6142 48.603 10.1484 45.5122C7.44641 42.1253 10.8417 36.1301 8.99907 32.0808C7.28968 28.3244 1.76974 28.0381 0.407616 24.1067C-0.88233 20.3836 1.21548 16.2654 2.18796 12.4226C3.18503 8.48264 3.00794 3.08608 6.21885 1.14344C9.90355 -1.08586 14.4053 2.14589 18.5784 2.50618C21.0564 2.72012 23.5769 2.00559 25.9468 2.84665Z" fill="url(#paint0_linear_6_109)"/>
<defs>
<linearGradient id="paint0_linear_6_109" x1="25" y1="0" x2="25" y2="50" gradientUnits="userSpaceOnUse">
<stop stop-color="#C0C0C0"/>
<stop offset="1" stop-color="#DDDDDD"/>
</linearGradient>
</defs>
</svg>
