<svg width="40" height="50" viewBox="0 0 40 50" fill="none" xmlns="http://www.w3.org/2000/svg">
<path fill-rule="evenodd" clip-rule="evenodd" d="M17.9665 0.650389C20.6854 -1.82887 24.611 3.47702 27.995 4.92201C31.5294 6.43127 36.9083 5.88668 38.4616 9.40203C40.1974 13.3304 37.8554 18.2119 35.4346 21.7594C33.3321 24.8403 27.9835 24.4019 26.0491 27.5912C24.898 29.489 28.3295 31.6267 28.1099 33.8354C27.8773 36.1752 26.0879 37.995 24.8182 39.974C22.6576 43.3417 21.3199 51.8286 17.9665 49.646C13.2 46.5436 19.0977 36.3668 14.385 33.1834C10.5277 30.5779 6.26346 39.7877 1.74097 38.6858C-1.21959 37.9644 0.531635 32.8077 0.357613 29.7655C0.204282 27.085 0.134488 24.4298 0.776366 21.8228C1.41217 19.2404 1.53861 15.4686 4.07475 14.6681C7.42698 13.6099 11.5837 20.1273 14.0581 17.6305C18.1983 13.4527 13.6203 4.61347 17.9665 0.650389Z" fill="url(#paint0_linear_4_34)"/>
<defs>
<linearGradient id="paint0_linear_4_34" x1="19.531" y1="0" x2="19.531" y2="50" gradientUnits="userSpaceOnUse">
<stop stop-color="#C0C0C0"/>
<stop offset="1" stop-color="#DDDDDD"/>
</linearGradient>
</defs>
</svg>
