<svg width="50" height="50" viewBox="0 0 50 50" fill="none" xmlns="http://www.w3.org/2000/svg">
<path fill-rule="evenodd" clip-rule="evenodd" d="M23.823 5.33961C26.2211 6.73531 27.6307 10.3912 30.3669 10.4061C36.1052 10.4373 42.9034 0.918918 46.7133 5.464C50.4081 9.87174 38.5558 15.2163 39.2961 21.0583C39.9375 26.12 49.3153 26.0581 49.9642 31.1187C50.4959 35.2653 44.9859 37.5662 41.7134 39.9107C38.9279 41.9063 35.4012 42.0583 32.4132 43.6925C29.3264 45.3807 26.8949 51.4136 23.823 49.6952C19.6815 47.3784 23.2694 37.1948 18.7165 36.0306C12.4714 34.4335 6.88089 47.0844 1.19838 43.9096C-3.25059 41.424 6.11188 34.3792 6.22715 29.0529C6.30539 25.4371 2.15189 23.0459 1.72754 19.4573C1.25893 15.4943 1.79573 11.2521 3.71578 7.81474C5.69188 4.2771 8.71482 0.52213 12.5696 0.0476208C16.6981 -0.460588 20.1804 3.21951 23.823 5.33961Z" fill="url(#paint0_linear_5_83)"/>
<defs>
<linearGradient id="paint0_linear_5_83" x1="25" y1="0" x2="25" y2="50" gradientUnits="userSpaceOnUse">
<stop stop-color="#C0C0C0"/>
<stop offset="1" stop-color="#DDDDDD"/>
</linearGradient>
</defs>
</svg>
