<svg width="50" height="48" viewBox="0 0 50 48" fill="none" xmlns="http://www.w3.org/2000/svg">
<path fill-rule="evenodd" clip-rule="evenodd" d="M26.315 0.0732634C29.2393 0.513392 32.0836 2.29094 33.7199 4.75419C35.3134 7.15296 32.6153 11.6076 35.0248 13.1849C39.0639 15.8289 45.7813 11.5164 49.2226 14.9022C51.6759 17.3159 47.6066 21.4602 46.8481 24.8172C46.0878 28.1814 47.1091 32.3201 44.7237 34.8111C42.2969 37.3453 37.5651 35.5086 34.6875 37.5164C31.0473 40.0564 30.567 48.9295 26.315 47.6556C21.2008 46.1235 23.1543 37.4785 20.0537 33.1324C18.692 31.2236 15.6523 31.5481 13.799 30.1119C11.6824 28.4716 10.2676 26.2199 8.51814 24.1927C5.61014 20.8229 -0.149384 18.5736 0.00296347 14.1251C0.140915 10.097 5.76801 8.6514 9.12669 6.42345C11.8101 4.64347 14.7322 3.4669 17.7528 2.35098C20.5582 1.31449 23.3575 -0.371873 26.315 0.0732634Z" fill="url(#paint0_linear_4_25)"/>
<defs>
<linearGradient id="paint0_linear_4_25" x1="25" y1="0" x2="25" y2="47.78" gradientUnits="userSpaceOnUse">
<stop stop-color="#C0C0C0"/>
<stop offset="1" stop-color="#DDDDDD"/>
</linearGradient>
</defs>
</svg>
