<svg width="50" height="46" viewBox="0 0 50 46" fill="none" xmlns="http://www.w3.org/2000/svg">
<path fill-rule="evenodd" clip-rule="evenodd" d="M26.0685 4.3966C29.7773 2.7832 33.1925 -0.303731 37.2237 0.024188C41.2324 0.350276 45.1904 2.8096 47.4512 6.13598C49.7075 9.45567 50.7816 14.1215 49.3548 17.8732C47.8225 21.902 43.2409 23.7528 39.7761 26.3168C37.9599 27.6608 34.6426 27.2652 33.8195 29.3693C32.4744 32.808 36.8325 37.6025 34.3076 40.2967C32.3094 42.429 28.9144 36.9764 26.0685 37.6401C21.9706 38.5958 17.981 48.1904 15.7446 44.626C12.6659 39.719 23.7189 32.47 20.025 28.0077C16.2418 23.4376 7.60195 31.5345 2.45897 28.5768C-0.716514 26.7507 -0.814061 19.8782 2.15267 17.7295C6.59088 14.5149 13.6369 19.8084 18.3726 17.0508C21.0013 15.5201 17.1971 10.6476 18.7777 8.04861C20.2081 5.69679 23.5444 5.49465 26.0685 4.3966Z" fill="url(#paint0_linear_4_20)"/>
<defs>
<linearGradient id="paint0_linear_4_20" x1="25" y1="0" x2="25" y2="45.4162" gradientUnits="userSpaceOnUse">
<stop stop-color="#C0C0C0"/>
<stop offset="1" stop-color="#DDDDDD"/>
</linearGradient>
</defs>
</svg>
