<svg width="68" height="94" viewBox="0 0 68 94" fill="none" xmlns="http://www.w3.org/2000/svg">
<path d="M33.0508 31.2034C36.3558 31.2034 42.966 24.298 42.966 15.7797C42.966 7.2614 35.2541 0.355957 33.0508 0.355957C30.8474 0.355957 23.1355 7.2614 23.1355 15.7797C23.1355 24.298 29.7457 31.2034 33.0508 31.2034Z" fill="#5A5A5A"/>
<path d="M21.0168 50.4067C26.5397 50.4067 31.0168 45.9296 31.0168 40.4067C31.0168 34.8839 26.5397 30.4067 21.0168 30.4067C15.494 30.4067 11.0168 34.8839 11.0168 40.4067C11.0168 45.9296 15.494 50.4067 21.0168 50.4067Z" fill="#5A5A5A"/>
<path d="M33.1355 71.3389C38.6583 71.3389 43.1355 66.8617 43.1355 61.3389C43.1355 55.816 38.6583 51.3389 33.1355 51.3389C27.6127 51.3389 23.1355 55.816 23.1355 61.3389C23.1355 66.8617 27.6127 71.3389 33.1355 71.3389Z" fill="#5A5A5A"/>
<path d="M56.356 40.4067C56.356 45.9296 51.8788 50.4067 46.356 50.4067C40.8331 50.4067 36.356 45.9296 36.356 40.4067C36.356 34.8839 40.8331 30.4067 46.356 30.4067C51.8788 30.4067 56.356 34.8839 56.356 40.4067Z" fill="#5A5A5A"/>
<path d="M57.3728 71.3389C62.8957 71.3389 67.3728 66.8617 67.3728 61.3389C67.3728 55.816 62.8957 51.3389 57.3728 51.3389C51.85 51.3389 47.3728 55.816 47.3728 61.3389C47.3728 66.8617 51.85 71.3389 57.3728 71.3389Z" fill="#5A5A5A"/>
<path d="M55.2542 83.3728C55.2542 88.8957 50.777 93.3728 45.2542 93.3728C39.7313 93.3728 35.2542 88.8957 35.2542 83.3728C35.2542 77.85 39.7313 73.3728 45.2542 73.3728C50.777 73.3728 55.2542 77.85 55.2542 83.3728Z" fill="#5A5A5A"/>
<path d="M21.0168 93.3728C26.5397 93.3728 31.0168 88.8957 31.0168 83.3728C31.0168 77.85 26.5397 73.3728 21.0168 73.3728C15.494 73.3728 11.0168 77.85 11.0168 83.3728C11.0168 88.8957 15.494 93.3728 21.0168 93.3728Z" fill="#5A5A5A"/>
<path d="M20 61.3389C20 66.8617 15.5228 71.3389 10 71.3389C4.47715 71.3389 0 66.8617 0 61.3389C0 55.816 4.47715 51.3389 10 51.3389C15.5228 51.3389 20 55.816 20 61.3389Z" fill="#5A5A5A"/>
</svg>
