<svg width="57" height="56" viewBox="0 0 57 56" fill="none" xmlns="http://www.w3.org/2000/svg">
<ellipse cx="37.5" cy="19" rx="6.5" ry="6" fill="#FBD9B6"/>
<ellipse cx="15.5" cy="18" rx="6.5" ry="6" fill="#FBD9B6"/>
<rect x="18" y="13" width="2" height="2" fill="#FA9E3C"/>
<rect x="15" y="17" width="2" height="2" fill="#FA9E3C"/>
<rect x="41" y="23" width="2" height="2" fill="#FA9E3C"/>
<rect x="39" y="24" width="2" height="2" fill="#FA9E3C"/>
<rect x="43" y="19" width="2" height="2" fill="#FA9E3C"/>
<rect x="42" y="21" width="2" height="2" fill="#FA9E3C"/>
<ellipse cx="26.5" cy="14" rx="9.5" ry="10" fill="#FBD9B6"/>
<rect x="21" y="4" width="2" height="2" fill="#FA9E3C"/>
<rect x="41" y="14" width="2" height="2" fill="#FA9E3C"/>
<rect x="24" y="3" width="4" height="2" fill="#FA9E3C"/>
<rect x="17" y="9" width="2" height="2" fill="#FA9E3C"/>
<rect x="16" y="11" width="2" height="2" fill="#FA9E3C"/>
<rect x="13" y="23" width="2" height="2" fill="#FA9E3C"/>
<rect x="11" y="22" width="2" height="2" fill="#FA9E3C"/>
<rect x="9" y="21" width="2" height="2" fill="#FA9E3C"/>
<rect x="9" y="19" width="2" height="2" fill="#FA9E3C"/>
<rect x="8" y="17" width="2" height="2" fill="#FA9E3C"/>
<rect x="9" y="15" width="2" height="2" fill="#FA9E3C"/>
<rect x="10" y="13" width="2" height="2" fill="#FA9E3C"/>
<rect x="11" y="12" width="2" height="2" fill="#FA9E3C"/>
<rect x="13" y="11" width="3" height="2" fill="#FA9E3C"/>
<rect x="35" y="13" width="2" height="2" fill="#FA9E3C"/>
<rect x="18" y="7" width="2" height="2" fill="#FA9E3C"/>
<rect x="42" y="15" width="2" height="2" fill="#FA9E3C"/>
<rect x="40" y="13" width="2" height="2" fill="#FA9E3C"/>
<rect x="43" y="17" width="2" height="2" fill="#FA9E3C"/>
<rect x="35" y="11" width="2" height="2" fill="#FA9E3C"/>
<rect x="36" y="12" width="2" height="2" fill="#FA9E3C"/>
<rect x="38" y="12" width="2" height="2" fill="#FA9E3C"/>
<rect x="19" y="5" width="2" height="2" fill="#FA9E3C"/>
<rect x="15" y="19" width="24" height="2" fill="#FA9E3C"/>
<path d="M27 54L15.7417 21H38.2583L27 54Z" fill="#FFC281"/>
<rect x="26" y="52" width="2" height="2" fill="#FA9E3C"/>
<rect x="15" y="21" width="2" height="2" fill="#FA9E3C"/>
<rect x="15" y="23" width="2" height="2" fill="#FA9E3C"/>
<rect x="16" y="25" width="2" height="2" fill="#FA9E3C"/>
<rect x="18" y="28" width="2" height="2" fill="#FA9E3C"/>
<rect x="19" y="32" width="2" height="2" fill="#FA9E3C"/>
<rect x="20" y="36" width="2" height="2" fill="#FA9E3C"/>
<rect x="22" y="39" width="2" height="2" fill="#FA9E3C"/>
<rect x="23" y="43" width="2" height="2" fill="#FA9E3C"/>
<rect x="24" y="47" width="2" height="2" fill="#FA9E3C"/>
<rect x="16" y="27" width="2" height="2" fill="#FA9E3C"/>
<rect x="18" y="30" width="2" height="2" fill="#FA9E3C"/>
<rect x="19" y="34" width="2" height="2" fill="#FA9E3C"/>
<rect x="20" y="38" width="2" height="2" fill="#FA9E3C"/>
<rect x="22" y="41" width="2" height="2" fill="#FA9E3C"/>
<rect x="23" y="45" width="2" height="2" fill="#FA9E3C"/>
<rect x="24" y="49" width="2" height="2" fill="#FA9E3C"/>
<rect x="25" y="50" width="2" height="2" fill="#FA9E3C"/>
<rect width="2" height="2" transform="matrix(-1 0 0 1 28 52)" fill="#FA9E3C"/>
<rect width="2" height="2" transform="matrix(-1 0 0 1 39 21)" fill="#FA9E3C"/>
<rect width="2" height="2" transform="matrix(-1 0 0 1 39 23)" fill="#FA9E3C"/>
<rect width="2" height="2" transform="matrix(-1 0 0 1 38 25)" fill="#FA9E3C"/>
<rect width="2" height="2" transform="matrix(-1 0 0 1 36 28)" fill="#FA9E3C"/>
<rect width="2" height="2" transform="matrix(-1 0 0 1 35 32)" fill="#FA9E3C"/>
<rect width="2" height="2" transform="matrix(-1 0 0 1 34 36)" fill="#FA9E3C"/>
<rect width="2" height="2" transform="matrix(-1 0 0 1 32 39)" fill="#FA9E3C"/>
<rect width="2" height="2" transform="matrix(-1 0 0 1 31 43)" fill="#FA9E3C"/>
<rect width="2" height="2" transform="matrix(-1 0 0 1 30 47)" fill="#FA9E3C"/>
<rect width="2" height="2" transform="matrix(-1 0 0 1 38 27)" fill="#FA9E3C"/>
<rect width="2" height="2" transform="matrix(-1 0 0 1 36 30)" fill="#FA9E3C"/>
<rect width="2" height="2" transform="matrix(-1 0 0 1 35 34)" fill="#FA9E3C"/>
<rect width="2" height="2" transform="matrix(-1 0 0 1 34 38)" fill="#FA9E3C"/>
<rect width="2" height="2" transform="matrix(-1 0 0 1 32 41)" fill="#FA9E3C"/>
<rect width="2" height="2" transform="matrix(-1 0 0 1 31 45)" fill="#FA9E3C"/>
<rect width="2" height="2" transform="matrix(-1 0 0 1 30 49)" fill="#FA9E3C"/>
<rect width="2" height="2" transform="matrix(-1 0 0 1 29 50)" fill="#FA9E3C"/>
<rect x="34" y="9" width="2" height="2" fill="#FA9E3C"/>
<rect x="33" y="7" width="2" height="2" fill="#FA9E3C"/>
<rect x="32" y="5" width="2" height="2" fill="#FA9E3C"/>
<rect x="30" y="4" width="2" height="2" fill="#FA9E3C"/>
<rect x="28" y="3" width="2" height="2" fill="#FA9E3C"/>
<rect x="22" y="3" width="2" height="2" fill="#FA9E3C"/>
<rect x="28" y="11" width="2" height="2" fill="#FA9E3C"/>
<rect x="22" y="11" width="2" height="2" fill="#FA9E3C"/>
</svg>
