<svg width="50" height="50" viewBox="0 0 50 50" fill="none" xmlns="http://www.w3.org/2000/svg">
<path fill-rule="evenodd" clip-rule="evenodd" d="M30.7943 0.00418026C33.7819 -0.104485 36.4299 1.92582 38.7268 3.71275C40.7939 5.3209 42.2642 7.48831 43.3623 9.78169C44.3157 11.7728 43.6699 14.1674 44.6753 16.136C45.8673 18.4699 48.9855 19.706 49.706 22.2026C50.4423 24.7539 49.6829 27.5154 48.6712 29.983C47.5945 32.6093 45.4586 34.6352 43.6788 36.9037C41.3595 39.8597 39.7245 43.3666 36.5154 45.4762C32.8646 47.8761 28.4118 50.8391 24.0937 49.7784C19.7055 48.7004 18.4371 43.3201 15.2954 40.2634C12.6723 37.7114 9.26229 36.0123 7.01685 33.1636C4.645 30.1545 2.82323 26.8092 1.83651 23.1884C0.778989 19.3079 -1.25346 14.6967 1.06649 11.3288C3.59514 7.65803 9.27255 7.38584 13.6955 5.97293C16.7597 4.9941 20.0989 5.33885 23.1323 4.27996C25.9501 3.29633 27.7883 0.113518 30.7943 0.00418026Z" fill="url(#paint0_linear_4_60)"/>
<defs>
<linearGradient id="paint0_linear_4_60" x1="25" y1="0" x2="25" y2="50" gradientUnits="userSpaceOnUse">
<stop stop-color="#C0C0C0"/>
<stop offset="1" stop-color="#DDDDDD"/>
</linearGradient>
</defs>
</svg>
