<svg width="56" height="56" viewBox="0 0 56 56" fill="none" xmlns="http://www.w3.org/2000/svg">
<rect x="6" y="31" width="44" height="22" fill="#52ECD2" stroke="#209E89" stroke-width="2"/>
<rect x="13" y="16" width="30" height="15" fill="#52ECD2" stroke="#209E89" stroke-width="2"/>
<rect x="18" y="6" width="20" height="10" fill="#52ECD2" stroke="#209E89" stroke-width="2"/>
<rect width="2" height="2" transform="matrix(-1 0 0 1 21 30)" fill="#209E89"/>
<rect width="2" height="4" transform="matrix(-1 0 0 1 13 39)" fill="#209E89"/>
<rect width="2" height="2" transform="matrix(-1 0 0 1 14 37)" fill="#209E89"/>
<rect width="2" height="2" transform="matrix(-1 0 0 1 11 41)" fill="#209E89"/>
<rect width="2" height="4" transform="matrix(-1 0 0 1 10 37)" fill="#209E89"/>
<rect width="2" height="2" transform="matrix(-1 0 0 1 21 44)" fill="#209E89"/>
<rect width="2" height="5" transform="matrix(-1 0 0 1 23 40)" fill="#209E89"/>
<rect width="2" height="2" transform="matrix(-1 0 0 1 19 36)" fill="#209E89"/>
<rect width="2" height="2" transform="matrix(-1 0 0 1 24 38)" fill="#209E89"/>
<rect width="2" height="2" transform="matrix(-1 0 0 1 32 33)" fill="#209E89"/>
<rect width="2" height="2" transform="matrix(-1 0 0 1 31 34)" fill="#209E89"/>
<rect width="2" height="5" transform="matrix(-1 0 0 1 30 36)" fill="#209E89"/>
<rect width="2" height="2" transform="matrix(-1 0 0 1 25 36)" fill="#209E89"/>
<rect width="2" height="2" transform="matrix(-1 0 0 1 28 40)" fill="#209E89"/>
<rect width="2" height="2" transform="matrix(-1 0 0 1 27 38)" fill="#209E89"/>
<rect width="2" height="2" transform="matrix(-1 0 0 1 26 36)" fill="#209E89"/>
<rect width="2" height="2" transform="matrix(-1 0 0 1 26 34)" fill="#209E89"/>
<rect x="18" y="38" width="2" height="7" fill="#209E89"/>
<rect width="2" height="2" transform="matrix(-1 0 0 1 16 35)" fill="#209E89"/>
<rect width="2" height="2" transform="matrix(-1 0 0 1 11 35)" fill="#209E89"/>
<rect width="2" height="2" transform="matrix(-1 0 0 1 12 33)" fill="#209E89"/>
<rect width="3" height="2" transform="matrix(-1 0 0 1 18 34)" fill="#209E89"/>
<rect width="2" height="2" transform="matrix(-1 0 0 1 13 31)" fill="#209E89"/>
<rect width="2" height="2" transform="matrix(-1 0 0 1 15 31)" fill="#209E89"/>
<rect width="2" height="2" transform="matrix(-1 0 0 1 16 30)" fill="#209E89"/>
<rect width="4" height="2" transform="matrix(-1 0 0 1 19 30)" fill="#209E89"/>
<rect x="21" y="30" width="2" height="2" fill="#209E89"/>
<rect x="25" y="34" width="4" height="2" fill="#A4FAEB"/>
<rect x="26" y="36" width="2" height="2" fill="#A4FAEB"/>
<rect x="20" y="42" width="1" height="2" fill="#A4FAEB"/>
<rect x="20" y="38" width="2" height="2" fill="#A4FAEB"/>
<rect x="19" y="36" width="4" height="2" fill="#A4FAEB"/>
<rect x="18" y="34" width="6" height="2" fill="#A4FAEB"/>
<rect x="20" y="40" width="1" height="2" fill="#A4FAEB"/>
<rect x="12" y="33" width="3" height="2" fill="#A4FAEB"/>
<rect x="10" y="39" width="1" height="2" fill="#A4FAEB"/>
<rect x="10" y="37" width="2" height="2" fill="#A4FAEB"/>
<rect x="11" y="35" width="3" height="2" fill="#A4FAEB"/>
<rect x="27" y="38" width="1" height="2" fill="#A4FAEB"/>
<rect x="31" y="32" width="2" height="2" fill="#209E89"/>
<rect x="27" y="31" width="2" height="2" fill="#209E89"/>
<rect x="26" y="30" width="2" height="2" fill="#209E89"/>
<rect x="23" y="30" width="4" height="2" fill="#209E89"/>
<rect x="14" y="32" width="17" height="2" fill="#A4FAEB"/>
<rect width="2" height="2" transform="matrix(-1 0 0 1 38 30)" fill="#209E89"/>
<rect width="2" height="4" transform="matrix(-1 0 0 1 30 39)" fill="#209E89"/>
<rect width="2" height="2" transform="matrix(-1 0 0 1 31 37)" fill="#209E89"/>
<rect width="2" height="2" transform="matrix(-1 0 0 1 28 41)" fill="#209E89"/>
<rect width="2" height="4" transform="matrix(-1 0 0 1 27 37)" fill="#209E89"/>
<rect width="2" height="2" transform="matrix(-1 0 0 1 38 44)" fill="#209E89"/>
<rect width="2" height="5" transform="matrix(-1 0 0 1 40 40)" fill="#209E89"/>
<rect width="2" height="2" transform="matrix(-1 0 0 1 36 36)" fill="#209E89"/>
<rect width="2" height="2" transform="matrix(-1 0 0 1 41 38)" fill="#209E89"/>
<rect width="2" height="2" transform="matrix(-1 0 0 1 49 33)" fill="#209E89"/>
<rect width="2" height="2" transform="matrix(-1 0 0 1 48 34)" fill="#209E89"/>
<rect width="2" height="5" transform="matrix(-1 0 0 1 47 36)" fill="#209E89"/>
<rect width="2" height="2" transform="matrix(-1 0 0 1 42 36)" fill="#209E89"/>
<rect width="2" height="2" transform="matrix(-1 0 0 1 45 40)" fill="#209E89"/>
<rect width="2" height="2" transform="matrix(-1 0 0 1 44 38)" fill="#209E89"/>
<rect width="2" height="2" transform="matrix(-1 0 0 1 43 36)" fill="#209E89"/>
<rect width="2" height="2" transform="matrix(-1 0 0 1 43 34)" fill="#209E89"/>
<rect x="35" y="38" width="2" height="7" fill="#209E89"/>
<rect width="2" height="2" transform="matrix(-1 0 0 1 33 35)" fill="#209E89"/>
<rect width="2" height="2" transform="matrix(-1 0 0 1 28 35)" fill="#209E89"/>
<rect width="3" height="2" transform="matrix(-1 0 0 1 35 34)" fill="#209E89"/>
<rect width="2" height="2" transform="matrix(-1 0 0 1 30 30)" fill="#209E89"/>
<rect width="2" height="2" transform="matrix(-1 0 0 1 32 30)" fill="#209E89"/>
<rect width="2" height="2" transform="matrix(-1 0 0 1 33 30)" fill="#209E89"/>
<rect width="4" height="2" transform="matrix(-1 0 0 1 36 30)" fill="#209E89"/>
<rect x="38" y="30" width="2" height="2" fill="#209E89"/>
<rect x="42" y="34" width="4" height="2" fill="#A4FAEB"/>
<rect x="43" y="36" width="2" height="2" fill="#A4FAEB"/>
<rect x="37" y="42" width="1" height="2" fill="#A4FAEB"/>
<rect x="37" y="38" width="2" height="2" fill="#A4FAEB"/>
<rect x="36" y="36" width="4" height="2" fill="#A4FAEB"/>
<rect x="35" y="34" width="6" height="2" fill="#A4FAEB"/>
<rect x="37" y="40" width="1" height="2" fill="#A4FAEB"/>
<rect x="29" y="33" width="3" height="2" fill="#A4FAEB"/>
<rect x="27" y="39" width="1" height="2" fill="#A4FAEB"/>
<rect x="27" y="37" width="2" height="2" fill="#A4FAEB"/>
<rect x="28" y="35" width="3" height="2" fill="#A4FAEB"/>
<rect x="44" y="38" width="1" height="2" fill="#A4FAEB"/>
<rect x="48" y="32" width="2" height="2" fill="#209E89"/>
<rect x="46" y="31" width="2" height="2" fill="#209E89"/>
<rect x="44" y="31" width="2" height="2" fill="#209E89"/>
<rect x="43" y="30" width="2" height="2" fill="#209E89"/>
<rect x="40" y="30" width="4" height="2" fill="#209E89"/>
<rect x="31" y="32" width="16" height="2" fill="#A4FAEB"/>
<rect width="2" height="2" transform="matrix(-1 0 0 1 28 15)" fill="#209E89"/>
<rect width="2" height="4" transform="matrix(-1 0 0 1 20 24)" fill="#209E89"/>
<rect width="2" height="2" transform="matrix(-1 0 0 1 21 22)" fill="#209E89"/>
<rect width="2" height="2" transform="matrix(-1 0 0 1 18 26)" fill="#209E89"/>
<rect width="2" height="4" transform="matrix(-1 0 0 1 17 22)" fill="#209E89"/>
<rect width="2" height="2" transform="matrix(-1 0 0 1 28 27)" fill="#209E89"/>
<rect width="2" height="5" transform="matrix(-1 0 0 1 30 24)" fill="#209E89"/>
<rect width="2" height="2" transform="matrix(-1 0 0 1 26 21)" fill="#209E89"/>
<rect width="2" height="2" transform="matrix(-1 0 0 1 31 23)" fill="#209E89"/>
<rect width="2" height="2" transform="matrix(-1 0 0 1 39 18)" fill="#209E89"/>
<rect width="2" height="2" transform="matrix(-1 0 0 1 38 19)" fill="#209E89"/>
<rect width="2" height="5" transform="matrix(-1 0 0 1 37 21)" fill="#209E89"/>
<rect width="2" height="2" transform="matrix(-1 0 0 1 32 21)" fill="#209E89"/>
<rect width="2" height="2" transform="matrix(-1 0 0 1 35 25)" fill="#209E89"/>
<rect width="2" height="2" transform="matrix(-1 0 0 1 34 23)" fill="#209E89"/>
<rect width="2" height="2" transform="matrix(-1 0 0 1 33 21)" fill="#209E89"/>
<rect width="2" height="2" transform="matrix(-1 0 0 1 33 19)" fill="#209E89"/>
<rect x="25" y="23" width="2" height="6" fill="#209E89"/>
<rect width="2" height="2" transform="matrix(-1 0 0 1 23 20)" fill="#209E89"/>
<rect width="2" height="2" transform="matrix(-1 0 0 1 18 20)" fill="#209E89"/>
<rect width="2" height="2" transform="matrix(-1 0 0 1 19 18)" fill="#209E89"/>
<rect width="3" height="2" transform="matrix(-1 0 0 1 25 19)" fill="#209E89"/>
<rect width="2" height="2" transform="matrix(-1 0 0 1 20 16)" fill="#209E89"/>
<rect width="2" height="2" transform="matrix(-1 0 0 1 22 16)" fill="#209E89"/>
<rect width="2" height="2" transform="matrix(-1 0 0 1 23 15)" fill="#209E89"/>
<rect width="4" height="2" transform="matrix(-1 0 0 1 26 15)" fill="#209E89"/>
<rect x="28" y="15" width="2" height="2" fill="#209E89"/>
<rect x="32" y="19" width="4" height="2" fill="#A4FAEB"/>
<rect x="33" y="21" width="2" height="2" fill="#A4FAEB"/>
<rect x="27" y="27" width="1" height="2" fill="#A4FAEB"/>
<rect x="27" y="23" width="2" height="2" fill="#A4FAEB"/>
<rect x="26" y="21" width="4" height="2" fill="#A4FAEB"/>
<rect x="25" y="19" width="6" height="2" fill="#A4FAEB"/>
<rect x="27" y="25" width="1" height="2" fill="#A4FAEB"/>
<rect x="19" y="18" width="3" height="2" fill="#A4FAEB"/>
<rect x="17" y="24" width="1" height="2" fill="#A4FAEB"/>
<rect x="17" y="22" width="2" height="2" fill="#A4FAEB"/>
<rect x="18" y="20" width="3" height="2" fill="#A4FAEB"/>
<rect x="34" y="23" width="1" height="2" fill="#A4FAEB"/>
<rect x="38" y="17" width="2" height="2" fill="#209E89"/>
<rect x="36" y="16" width="2" height="2" fill="#209E89"/>
<rect x="34" y="16" width="2" height="2" fill="#209E89"/>
<rect x="33" y="15" width="2" height="2" fill="#209E89"/>
<rect x="30" y="15" width="4" height="2" fill="#209E89"/>
<rect x="21" y="17" width="16" height="2" fill="#A4FAEB"/>
<rect width="2" height="4" transform="matrix(-1 0 0 1 24 9)" fill="#209E89"/>
<rect width="2" height="2" transform="matrix(-1 0 0 1 25 7)" fill="#209E89"/>
<rect width="2" height="2" transform="matrix(-1 0 0 1 22 11)" fill="#209E89"/>
<rect width="2" height="4" transform="matrix(-1 0 0 1 21 7)" fill="#209E89"/>
<rect width="2" height="2" transform="matrix(-1 0 0 1 32 12)" fill="#209E89"/>
<rect width="2" height="5" transform="matrix(-1 0 0 1 34 9)" fill="#209E89"/>
<rect width="2" height="2" transform="matrix(-1 0 0 1 30 6)" fill="#209E89"/>
<rect width="2" height="2" transform="matrix(-1 0 0 1 35 8)" fill="#209E89"/>
<rect width="2" height="2" transform="matrix(-1 0 0 1 36 6)" fill="#209E89"/>
<rect width="2" height="2" transform="matrix(-1 0 0 1 39 10)" fill="#209E89"/>
<rect width="2" height="2" transform="matrix(-1 0 0 1 37 6)" fill="#209E89"/>
<rect x="29" y="8" width="2" height="6" fill="#209E89"/>
<rect width="2" height="2" transform="matrix(-1 0 0 1 27 5)" fill="#209E89"/>
<rect width="2" height="2" transform="matrix(-1 0 0 1 22 5)" fill="#209E89"/>
<rect x="31" y="12" width="1" height="2" fill="#A4FAEB"/>
<rect x="31" y="8" width="2" height="2" fill="#A4FAEB"/>
<rect x="30" y="7" width="4" height="1" fill="#A4FAEB"/>
<rect x="31" y="10" width="1" height="2" fill="#A4FAEB"/>
<rect x="21" y="9" width="1" height="2" fill="#A4FAEB"/>
<rect x="21" y="7" width="2" height="2" fill="#A4FAEB"/>
<rect width="2" height="2" transform="matrix(-1 0 0 1 28 27)" fill="#209E89"/>
<rect width="2" height="2" transform="matrix(-1 0 0 1 32 12)" fill="#209E89"/>
</svg>
