<svg width="50" height="50" viewBox="0 0 50 50" fill="none" xmlns="http://www.w3.org/2000/svg">
<path fill-rule="evenodd" clip-rule="evenodd" d="M23.3064 0.358453C27.632 1.8932 27.5036 7.82349 31.0579 10.4905C33.4016 12.2491 38.4414 10.3116 39.813 12.7446C41.3979 15.5558 35.9611 18.9766 37.45 21.8286C39.238 25.2537 45.792 24.8844 47.8702 28.1788C49.7839 31.2125 51.4681 36.9289 47.9586 38.4874C42.8268 40.7663 36.5161 33.5474 31.2449 35.5618C27.4519 37.0114 30.8384 43.2813 28.1503 46.0574C25.6707 48.6183 21.147 50.8851 17.5979 49.656C13.7611 48.3272 14.565 42.7111 11.4879 40.2868C8.81767 38.1831 3.18199 39.8229 1.54642 37.0099C-0.129087 34.1283 4.42933 30.907 4.15512 27.6755C3.89215 24.5764 -0.433787 22.2847 0.0355709 19.2047C0.483946 16.2625 4.55066 14.9173 6.47042 12.4823C8.66102 9.70378 9.21548 5.93286 12.1851 3.79436C15.2642 1.5771 19.6216 -0.948909 23.3064 0.358453Z" fill="url(#paint0_linear_6_110)"/>
<defs>
<linearGradient id="paint0_linear_6_110" x1="25" y1="0" x2="25" y2="50" gradientUnits="userSpaceOnUse">
<stop stop-color="#C0C0C0"/>
<stop offset="1" stop-color="#DDDDDD"/>
</linearGradient>
</defs>
</svg>
