<svg width="83" height="91" viewBox="0 0 83 91" fill="none" xmlns="http://www.w3.org/2000/svg">
<path fill-rule="evenodd" clip-rule="evenodd" d="M9.9017 33.9339C9.98184 33.8139 10.0633 33.6936 10.1459 33.573C10.9127 26.9299 12.9999 20.1038 16.4888 13.5748L24.7369 18.1468C25.8099 14.4055 27.328 10.6407 29.3035 6.95785L35.7747 10.5449C47.3654 3.07924 59.1837 -1.63307 64.4587 1.29089C69.7336 4.21485 72.6629 17.1019 73.1331 31.253L81.7807 36.0465C79.7044 39.6734 77.3161 42.9558 74.7119 45.8484L82.0854 49.9356C78.389 56.3688 73.6932 61.766 68.4514 65.9406C68.4001 66.0623 68.3484 66.183 68.2962 66.3026L71.9044 68.3026C60.5477 87.9823 37.1314 95.9052 19.2289 85.9816C1.32637 76.0581 -4.36343 52.0015 6.30782 31.9418L9.9017 33.9339ZM21.3106 79.132C20.7751 80.0981 21.1241 81.3154 22.0902 81.8509C23.0563 82.3864 24.2736 82.0374 24.8091 81.0713L30.2997 71.166L45.2731 64.0144C46.2698 63.5383 46.6919 62.3444 46.2158 61.3477C45.7397 60.3509 44.5458 59.9289 43.5491 60.4049L33.6416 65.1369L42.4199 49.3005L57.3933 42.1489C58.39 41.6728 58.8121 40.4789 58.336 39.4822C57.86 38.4855 56.6661 38.0634 55.6694 38.5394L45.7619 43.2715L53.8977 28.5941C54.4332 27.628 54.0841 26.4107 53.118 25.8752C52.152 25.3397 50.9347 25.6888 50.3992 26.6549L41.9124 41.9655L41.9136 31.133C41.9137 30.0284 41.0183 29.1329 39.9138 29.1328C38.8092 29.1326 37.9137 30.028 37.9136 31.1326L37.9119 46.6958C37.9118 47.3083 38.0891 47.8627 38.388 48.3237L29.7921 63.8309L29.7933 52.9985C29.7934 51.8939 28.8981 50.9984 27.7935 50.9983C26.689 50.9981 25.7934 51.8935 25.7933 52.998L25.7916 68.5613C25.7916 69.1738 25.9689 69.7282 26.2677 70.1892L21.3106 79.132Z" fill="#5A5A5A"/>
</svg>
