<svg width="46" height="50" viewBox="0 0 46 50" fill="none" xmlns="http://www.w3.org/2000/svg">
<path fill-rule="evenodd" clip-rule="evenodd" d="M19.8568 0.114331C22.9238 -0.762876 25.036 3.64668 27.8266 5.19236C30.4493 6.64511 33.283 7.44796 35.8609 8.97902C39.3514 11.0522 46.182 11.7976 45.7429 15.8335C45.2025 20.8008 35.387 20.164 34.1183 24.9969C32.9123 29.5911 43.5328 34.6373 39.9792 37.7889C36.0523 41.2717 29.7953 30.3075 25.2234 32.8858C20.1913 35.7236 24.5222 45.7296 19.8568 49.1369C16.6025 51.5136 10.4202 48.6058 8.66713 44.9774C6.36134 40.205 11.0062 34.6146 10.3022 29.3613C10.024 27.2849 6.15829 26.9968 5.97812 24.9096C5.78835 22.7111 10.0778 21.4764 9.43928 19.3641C7.87049 14.1746 -1.83653 11.1315 0.3078 6.15206C2.15675 1.85856 9.35012 10.5788 13.8166 9.19936C17.3354 8.1126 16.316 1.12702 19.8568 0.114331Z" fill="url(#paint0_linear_4_41)"/>
<defs>
<linearGradient id="paint0_linear_4_41" x1="22.8815" y1="0" x2="22.8815" y2="50" gradientUnits="userSpaceOnUse">
<stop stop-color="#C0C0C0"/>
<stop offset="1" stop-color="#DDDDDD"/>
</linearGradient>
</defs>
</svg>
