<svg width="47" height="50" viewBox="0 0 47 50" fill="none" xmlns="http://www.w3.org/2000/svg">
<path fill-rule="evenodd" clip-rule="evenodd" d="M20.4153 12.1021C24.9394 8.01935 29.0506 -2.53814 34.2973 0.56151C39.8051 3.81537 32.3215 13.0843 32.8667 19.4581C33.0745 21.887 34.8773 23.8654 36.4501 25.728C39.4265 29.2529 44.9475 30.846 46.2257 35.2789C47.3807 39.2843 46.0807 44.779 42.609 47.0866C38.7328 49.6632 33.4706 47.0974 28.823 46.8465C25.9707 46.6926 23.2342 45.4271 20.4153 45.8889C16.8809 46.468 13.9891 50.8955 10.5674 49.8373C7.36046 48.8456 6.55807 44.4655 5.50546 41.278C4.61805 38.5908 4.20884 35.6348 4.9778 32.9113C5.67044 30.4581 10.1375 29.3939 9.56205 26.9106C8.32686 21.5803 -2.35848 18.167 0.476708 13.4873C3.12895 9.10954 9.83802 18.3816 14.9442 18.0269C17.66 17.8382 18.3943 13.926 20.4153 12.1021Z" fill="url(#paint0_linear_4_26)"/>
<defs>
<linearGradient id="paint0_linear_4_26" x1="23.3185" y1="0" x2="23.3185" y2="50" gradientUnits="userSpaceOnUse">
<stop stop-color="#C0C0C0"/>
<stop offset="1" stop-color="#DDDDDD"/>
</linearGradient>
</defs>
</svg>
