<svg width="57" height="57" viewBox="0 0 57 57" fill="none" xmlns="http://www.w3.org/2000/svg">
<circle cx="26" cy="14" r="12" fill="#FAC7B6"/>
<path fill-rule="evenodd" clip-rule="evenodd" d="M7 22C7 28.2132 17.0736 33.25 29.5 33.25C41.9264 33.25 52 28.2132 52 22H7Z" fill="#FFA587"/>
<path fill-rule="evenodd" clip-rule="evenodd" d="M7 22C7 28.2132 17.0736 33.25 29.5 33.25C41.9264 33.25 52 28.2132 52 22H7Z" fill="#FFA587"/>
<rect x="27" y="31" width="5" height="22" fill="#FFA587"/>
<rect x="27" y="31" width="5" height="22" fill="#FFA587"/>
<rect x="21" y="52" width="17" height="2" fill="#FFA587"/>
<rect x="21" y="52" width="17" height="2" fill="#FFA587"/>
<path fill-rule="evenodd" clip-rule="evenodd" d="M30.8978 22C30.9034 21.8497 30.9062 21.6986 30.9062 21.5469C30.9062 14.9453 25.5547 9.59375 18.9531 9.59375C12.3516 9.59375 7 14.9453 7 21.5469C7 21.6986 7.00283 21.8497 7.00843 22H30.8978Z" fill="#FFA587"/>
<path fill-rule="evenodd" clip-rule="evenodd" d="M30.8978 22C30.9034 21.8497 30.9062 21.6986 30.9062 21.5469C30.9062 14.9453 25.5547 9.59375 18.9531 9.59375C12.3516 9.59375 7 14.9453 7 21.5469C7 21.6986 7.00283 21.8497 7.00843 22H30.8978Z" fill="#FFA587"/>
<path fill-rule="evenodd" clip-rule="evenodd" d="M30.9062 22C30.9062 21.9844 30.9062 21.9688 30.9062 21.9531C30.9062 15.3516 25.5547 10 18.9531 10C12.3516 10 7 15.3516 7 21.9531C7 21.9688 7.00003 21.9844 7.00009 22H30.9062Z" fill="#FFA587"/>
<path fill-rule="evenodd" clip-rule="evenodd" d="M30.9062 22C30.9062 21.9844 30.9062 21.9688 30.9062 21.9531C30.9062 15.3516 25.5547 10 18.9531 10C12.3516 10 7 15.3516 7 21.9531C7 21.9688 7.00003 21.9844 7.00009 22H30.9062Z" fill="#FAC7B6"/>
<path fill-rule="evenodd" clip-rule="evenodd" d="M51.9916 22C51.9972 21.8497 52 21.6986 52 21.5469C52 14.9453 46.6484 9.59375 40.0469 9.59375C33.4453 9.59375 28.0938 14.9453 28.0938 21.5469C28.0938 21.6986 28.0966 21.8497 28.1022 22H51.9916Z" fill="#ED7A53"/>
<path fill-rule="evenodd" clip-rule="evenodd" d="M51.9916 22C51.9972 21.8497 52 21.6986 52 21.5469C52 14.9453 46.6484 9.59375 40.0469 9.59375C33.4453 9.59375 28.0938 14.9453 28.0938 21.5469C28.0938 21.6986 28.0966 21.8497 28.1022 22H51.9916Z" fill="#FAC7B6"/>
<rect x="13" y="10" width="2" height="2" fill="#ED7A53"/>
<rect x="13" y="10" width="2" height="2" fill="#ED7A53"/>
<rect x="35" y="7" width="2" height="2" fill="#ED7A53"/>
<rect x="35" y="7" width="2" height="2" fill="#ED7A53"/>
<rect x="34" y="5" width="2" height="2" fill="#ED7A53"/>
<rect x="34" y="5" width="2" height="2" fill="#ED7A53"/>
<rect x="32" y="3" width="2" height="2" fill="#ED7A53"/>
<rect x="32" y="3" width="2" height="2" fill="#ED7A53"/>
<rect x="30" y="2" width="2" height="2" fill="#ED7A53"/>
<rect x="30" y="2" width="2" height="2" fill="#ED7A53"/>
<rect x="25" y="1" width="5" height="2" fill="#ED7A53"/>
<rect x="25" y="1" width="5" height="2" fill="#ED7A53"/>
<rect x="23" y="2" width="2" height="2" fill="#ED7A53"/>
<rect x="23" y="2" width="2" height="2" fill="#ED7A53"/>
<rect x="21" y="2" width="2" height="2" fill="#ED7A53"/>
<rect x="21" y="2" width="2" height="2" fill="#ED7A53"/>
<rect x="19" y="3" width="2" height="2" fill="#ED7A53"/>
<rect x="19" y="3" width="2" height="2" fill="#ED7A53"/>
<rect x="14" y="8" width="2" height="2" fill="#ED7A53"/>
<rect x="14" y="8" width="2" height="2" fill="#ED7A53"/>
<rect x="15" y="6" width="2" height="2" fill="#ED7A53"/>
<rect x="15" y="6" width="2" height="2" fill="#ED7A53"/>
<rect x="17" y="4" width="2" height="2" fill="#ED7A53"/>
<rect x="17" y="4" width="2" height="2" fill="#ED7A53"/>
<rect x="15" y="9" width="2" height="2" fill="#ED7A53"/>
<rect x="15" y="9" width="2" height="2" fill="#ED7A53"/>
<rect x="27" y="14" width="2" height="2" fill="#ED7A53"/>
<rect x="27" y="14" width="2" height="2" fill="#ED7A53"/>
<rect x="26" y="12" width="2" height="2" fill="#ED7A53"/>
<rect x="26" y="12" width="2" height="2" fill="#ED7A53"/>
<rect x="24" y="11" width="2" height="2" fill="#ED7A53"/>
<rect x="24" y="11" width="2" height="2" fill="#ED7A53"/>
<rect x="22" y="10" width="2" height="2" fill="#ED7A53"/>
<rect x="22" y="10" width="2" height="2" fill="#ED7A53"/>
<rect x="17" y="9" width="3" height="2" fill="#ED7A53"/>
<rect x="17" y="9" width="3" height="2" fill="#ED7A53"/>
<rect x="20" y="9" width="3" height="2" fill="#ED7A53"/>
<rect x="20" y="9" width="3" height="2" fill="#ED7A53"/>
<rect x="11" y="11" width="2" height="2" fill="#ED7A53"/>
<rect x="11" y="11" width="2" height="2" fill="#ED7A53"/>
<rect x="9" y="13" width="2" height="2" fill="#ED7A53"/>
<rect x="9" y="13" width="2" height="2" fill="#ED7A53"/>
<rect x="21" y="50" width="4" height="2" fill="#ED7A53"/>
<rect x="21" y="50" width="4" height="2" fill="#ED7A53"/>
<rect x="32" y="50" width="6" height="2" fill="#ED7A53"/>
<rect x="32" y="50" width="6" height="2" fill="#ED7A53"/>
<rect x="15" y="30" width="2" height="2" fill="#ED7A53"/>
<rect x="13" y="29" width="2" height="2" fill="#ED7A53"/>
<rect x="11" y="28" width="2" height="2" fill="#ED7A53"/>
<rect x="9" y="27" width="2" height="2" fill="#ED7A53"/>
<rect x="7" y="23" width="2" height="2" fill="#ED7A53"/>
<rect x="8" y="25" width="2" height="2" fill="#ED7A53"/>
<rect x="17" y="31" width="2" height="2" fill="#ED7A53"/>
<rect x="19" y="31" width="2" height="2" fill="#ED7A53"/>
<rect x="21" y="32" width="2" height="2" fill="#ED7A53"/>
<rect x="23" y="32" width="2" height="2" fill="#ED7A53"/>
<rect x="15" y="30" width="2" height="2" fill="#ED7A53"/>
<rect x="13" y="29" width="2" height="2" fill="#ED7A53"/>
<rect x="11" y="28" width="2" height="2" fill="#ED7A53"/>
<rect x="9" y="27" width="2" height="2" fill="#ED7A53"/>
<rect x="7" y="23" width="2" height="2" fill="#ED7A53"/>
<rect x="8" y="25" width="2" height="2" fill="#ED7A53"/>
<rect x="17" y="31" width="2" height="2" fill="#ED7A53"/>
<rect x="19" y="31" width="2" height="2" fill="#ED7A53"/>
<rect x="21" y="32" width="2" height="2" fill="#ED7A53"/>
<rect x="23" y="32" width="2" height="2" fill="#ED7A53"/>
<rect width="2" height="2" transform="matrix(-1 0 0 1 44 30)" fill="#ED7A53"/>
<rect width="2" height="2" transform="matrix(-1 0 0 1 46 29)" fill="#ED7A53"/>
<rect width="2" height="2" transform="matrix(-1 0 0 1 48 28)" fill="#ED7A53"/>
<rect width="2" height="2" transform="matrix(-1 0 0 1 50 27)" fill="#ED7A53"/>
<rect width="2" height="2" transform="matrix(-1 0 0 1 52 23)" fill="#ED7A53"/>
<rect width="2" height="2" transform="matrix(-1 0 0 1 51 25)" fill="#ED7A53"/>
<rect width="2" height="2" transform="matrix(-1 0 0 1 42 31)" fill="#ED7A53"/>
<rect width="2" height="2" transform="matrix(-1 0 0 1 40 31)" fill="#ED7A53"/>
<rect width="2" height="2" transform="matrix(-1 0 0 1 38 32)" fill="#ED7A53"/>
<rect width="2" height="2" transform="matrix(-1 0 0 1 36 32)" fill="#ED7A53"/>
<rect width="2" height="2" transform="matrix(-1 0 0 1 44 30)" fill="#ED7A53"/>
<rect width="2" height="2" transform="matrix(-1 0 0 1 46 29)" fill="#ED7A53"/>
<rect width="2" height="2" transform="matrix(-1 0 0 1 48 28)" fill="#ED7A53"/>
<rect width="2" height="2" transform="matrix(-1 0 0 1 50 27)" fill="#ED7A53"/>
<rect width="2" height="2" transform="matrix(-1 0 0 1 52 23)" fill="#ED7A53"/>
<rect width="2" height="2" transform="matrix(-1 0 0 1 51 25)" fill="#ED7A53"/>
<rect width="2" height="2" transform="matrix(-1 0 0 1 42 31)" fill="#ED7A53"/>
<rect width="2" height="2" transform="matrix(-1 0 0 1 40 31)" fill="#ED7A53"/>
<rect width="2" height="2" transform="matrix(-1 0 0 1 38 32)" fill="#ED7A53"/>
<rect width="2" height="2" transform="matrix(-1 0 0 1 36 32)" fill="#ED7A53"/>
<rect x="25" y="33" width="2" height="19" fill="#ED7A53"/>
<rect x="25" y="33" width="2" height="19" fill="#ED7A53"/>
<rect x="32" y="33" width="2" height="19" fill="#ED7A53"/>
<rect x="32" y="33" width="2" height="19" fill="#ED7A53"/>
<rect x="38" y="50" width="2" height="6" fill="#ED7A53"/>
<rect x="38" y="50" width="2" height="6" fill="#ED7A53"/>
<rect x="19" y="50" width="2" height="6" fill="#ED7A53"/>
<rect x="19" y="50" width="2" height="6" fill="#ED7A53"/>
<rect x="8" y="15" width="2" height="2" fill="#ED7A53"/>
<rect x="8" y="15" width="2" height="2" fill="#ED7A53"/>
<rect x="7" y="17" width="2" height="2" fill="#ED7A53"/>
<rect x="7" y="17" width="2" height="2" fill="#ED7A53"/>
<rect x="7" y="19" width="2" height="2" fill="#ED7A53"/>
<rect x="7" y="19" width="2" height="2" fill="#ED7A53"/>
<rect x="21" y="54" width="17" height="2" fill="#ED7A53"/>
<rect x="21" y="54" width="17" height="2" fill="#ED7A53"/>
<rect x="50" y="19" width="2" height="2" fill="#ED7A53"/>
<rect x="50" y="19" width="2" height="2" fill="#ED7A53"/>
<rect x="39" y="8" width="3" height="2" fill="#ED7A53"/>
<rect x="39" y="8" width="3" height="2" fill="#ED7A53"/>
<rect x="28" y="19" width="2" height="2" fill="#ED7A53"/>
<rect x="28" y="19" width="2" height="2" fill="#ED7A53"/>
<rect x="28" y="17" width="2" height="2" fill="#ED7A53"/>
<rect x="28" y="17" width="2" height="2" fill="#ED7A53"/>
<rect x="29" y="15" width="2" height="2" fill="#ED7A53"/>
<rect x="28" y="15" width="3" height="2" fill="#ED7A53"/>
<rect x="30" y="13" width="2" height="2" fill="#ED7A53"/>
<rect x="30" y="13" width="2" height="2" fill="#ED7A53"/>
<rect x="31" y="12" width="2" height="2" fill="#ED7A53"/>
<rect x="31" y="12" width="2" height="2" fill="#ED7A53"/>
<rect x="32" y="11" width="2" height="2" fill="#ED7A53"/>
<rect x="32" y="11" width="2" height="2" fill="#ED7A53"/>
<rect x="37" y="14" width="2" height="2" fill="#ED7A53"/>
<rect x="29" y="6" width="2" height="2" fill="#ED7A53"/>
<rect x="25" y="6" width="2" height="2" fill="#ED7A53"/>
<rect x="21" y="14" width="2" height="2" fill="#ED7A53"/>
<rect x="42" y="14" width="2" height="2" fill="#ED7A53"/>
<rect x="16" y="14" width="2" height="2" fill="#ED7A53"/>
<rect x="34" y="10" width="2" height="2" fill="#ED7A53"/>
<rect x="34" y="10" width="2" height="2" fill="#ED7A53"/>
<rect x="36" y="9" width="2" height="2" fill="#ED7A53"/>
<rect x="36" y="9" width="2" height="2" fill="#ED7A53"/>
<rect x="37" y="8" width="2" height="2" fill="#ED7A53"/>
<rect x="37" y="8" width="2" height="2" fill="#ED7A53"/>
<rect x="42" y="9" width="2" height="2" fill="#ED7A53"/>
<rect x="42" y="9" width="2" height="2" fill="#ED7A53"/>
<rect x="44" y="10" width="2" height="2" fill="#ED7A53"/>
<rect x="44" y="10" width="2" height="2" fill="#ED7A53"/>
<rect x="46" y="11" width="2" height="2" fill="#ED7A53"/>
<rect x="46" y="11" width="2" height="2" fill="#ED7A53"/>
<rect x="48" y="13" width="2" height="2" fill="#ED7A53"/>
<rect x="48" y="13" width="2" height="2" fill="#ED7A53"/>
<rect x="49" y="15" width="2" height="2" fill="#ED7A53"/>
<rect x="49" y="15" width="2" height="2" fill="#ED7A53"/>
<rect x="50" y="17" width="2" height="2" fill="#ED7A53"/>
<rect x="50" y="17" width="2" height="2" fill="#ED7A53"/>
<rect x="7" y="21" width="45" height="2" fill="#ED7A53"/>
<rect x="7" y="21" width="45" height="2" fill="#ED7A53"/>
</svg>
