<svg width="50" height="50" viewBox="0 0 50 50" fill="none" xmlns="http://www.w3.org/2000/svg">
<path fill-rule="evenodd" clip-rule="evenodd" d="M25.2322 10.9297C30.5981 10.5532 31.2118 0.178605 36.5885 0.0017137C40.5738 -0.129399 39.3027 7.29758 41.7194 10.3873C43.8975 13.172 49.1521 13.6149 49.9127 17.0365C50.7044 20.598 45.8623 23.297 45.393 26.9122C44.9371 30.4242 49.5837 34.5082 47.2882 37.2525C44.7698 40.2633 39.0165 36.7635 35.5493 38.6808C32.6181 40.3018 32.8993 45.0899 30.0223 46.8004C27.189 48.485 23.5343 47.5303 20.2258 47.7916C15.9539 48.129 9.92189 52.0438 7.53411 48.5768C4.54304 44.2338 11.9437 38.2407 10.2337 33.2833C8.97996 29.6487 1.72407 30.9559 0.232117 27.4077C-1.07534 24.2982 3.55434 21.4259 3.83979 18.0772C4.22775 13.5261 -0.33302 8.48289 2.17428 4.62415C4.48201 1.07255 10.4272 0.409589 14.5815 1.54566C19.2413 2.81994 20.4048 11.2683 25.2322 10.9297Z" fill="url(#paint0_linear_4_73)"/>
<defs>
<linearGradient id="paint0_linear_4_73" x1="25" y1="0" x2="25" y2="50" gradientUnits="userSpaceOnUse">
<stop stop-color="#C0C0C0"/>
<stop offset="1" stop-color="#DDDDDD"/>
</linearGradient>
</defs>
</svg>
