<svg width="47" height="50" viewBox="0 0 47 50" fill="none" xmlns="http://www.w3.org/2000/svg">
<path fill-rule="evenodd" clip-rule="evenodd" d="M21.7293 5.65544C26.2635 5.35756 29.4847 -0.657238 33.9717 0.0592243C38.0683 0.713325 40.3436 5.38443 42.4424 8.96275C44.4091 12.3159 47.4641 16.5632 45.6764 20.0151C43.3012 24.6013 36.6916 24.8077 32.6025 27.9626C31.3007 28.967 30.0078 30.4493 30.0213 32.0935C30.0674 37.6787 35.5398 43.5586 32.7711 48.4094C30.8994 51.6887 24.3921 49.2982 21.7293 46.6211C18.4635 43.3377 21.6566 36.1465 17.8916 33.45C14.9792 31.3641 11.2223 37.5503 7.7633 36.6184C5.11264 35.9043 4.83066 32.0827 3.63816 29.6101C2.20259 26.6334 0.00240982 23.826 2.33797e-06 20.5213C-0.00249317 17.0957 1.99325 14.055 3.62464 11.0429C5.47551 7.62546 6.51279 2.72696 10.2378 1.6185C14.1786 0.445847 17.6266 5.92498 21.7293 5.65544Z" fill="url(#paint0_linear_4_23)"/>
<defs>
<linearGradient id="paint0_linear_4_23" x1="23.1085" y1="0" x2="23.1085" y2="50" gradientUnits="userSpaceOnUse">
<stop stop-color="#C0C0C0"/>
<stop offset="1" stop-color="#DDDDDD"/>
</linearGradient>
</defs>
</svg>
