<svg width="42" height="50" viewBox="0 0 42 50" fill="none" xmlns="http://www.w3.org/2000/svg">
<path fill-rule="evenodd" clip-rule="evenodd" d="M15.6629 15.3336C20.8826 11.4281 21.2851 1.92707 27.5458 0.110297C31.4078 -1.0104 31.8908 6.70326 34.2949 9.92686C36.6193 13.0436 40.9543 15.0352 41.5426 18.8785C42.1373 22.7631 37.7886 25.8273 37.3262 29.7298C36.7911 34.2449 40.6152 39.0229 38.6686 43.1317C36.8127 47.0491 32.0717 49.4289 27.764 49.9135C23.4679 50.3968 18.6609 48.8347 15.6629 45.7198C12.5738 42.5101 15.4302 35.4829 11.6332 33.1533C8.36793 31.15 4.02403 38.7266 0.82639 36.6171C-1.79886 34.8852 2.61392 30.7007 3.24512 27.6196C3.62241 25.778 3.93882 23.9539 3.80476 22.0788C3.60951 19.3477 0.702053 16.3504 2.27945 14.1124C3.80628 11.9461 7.43595 12.9415 10.0752 13.1823C12.088 13.366 14.0446 16.5444 15.6629 15.3336Z" fill="url(#paint0_linear_4_45)"/>
<defs>
<linearGradient id="paint0_linear_4_45" x1="20.7992" y1="0" x2="20.7992" y2="50" gradientUnits="userSpaceOnUse">
<stop stop-color="#C0C0C0"/>
<stop offset="1" stop-color="#DDDDDD"/>
</linearGradient>
</defs>
</svg>
