<svg width="49" height="50" viewBox="0 0 49 50" fill="none" xmlns="http://www.w3.org/2000/svg">
<path fill-rule="evenodd" clip-rule="evenodd" d="M25.365 13.1234C30.5898 13.4953 30.7816 3.31975 35.7165 1.56364C39.7412 0.131418 45.8115 1.37009 47.8624 5.11755C50.0907 9.18921 46.1711 14.0738 45.0243 18.5715C44.2916 21.4451 43.6633 24.2895 42.3023 26.9244C41.1345 29.1852 38.0808 30.3459 37.6472 32.8533C36.6626 38.5473 44.0453 49.1813 38.3193 49.9583C31.578 50.8731 31.8859 36.459 25.365 34.52C21.1471 33.2657 19.9145 44.3287 15.6562 43.2192C11.8747 42.234 17.4092 34.342 14.5321 31.6976C10.8554 28.3182 0.487512 33.8157 0.0163256 28.8442C-0.490226 23.4996 10.941 25.0836 13.4557 20.3403C15.1105 17.2189 9.56147 14.0998 9.70457 10.5698C9.86158 6.69684 10.4532 -0.58617 14.2787 0.0376372C19.9927 0.96937 19.5902 12.7123 25.365 13.1234Z" fill="url(#paint0_linear_4_36)"/>
<defs>
<linearGradient id="paint0_linear_4_36" x1="24.2679" y1="0" x2="24.2679" y2="50" gradientUnits="userSpaceOnUse">
<stop stop-color="#C0C0C0"/>
<stop offset="1" stop-color="#DDDDDD"/>
</linearGradient>
</defs>
</svg>
