<svg width="56" height="56" viewBox="0 0 56 56" fill="none" xmlns="http://www.w3.org/2000/svg">
<rect x="11" y="30" width="4" height="24" rx="2" fill="#FFE9C8"/>
<rect x="39" y="24" width="4" height="24" rx="2" fill="#FFE9C8"/>
<rect x="4" y="8" width="19" height="31" rx="9.5" fill="#FF5A5A"/>
<rect x="32" y="2" width="19" height="31" rx="9.5" fill="#15EBF9"/>
<rect width="2" height="2" transform="matrix(-1 0 0 1 15 7)" fill="#3A3A3A"/>
<rect width="2" height="2" transform="matrix(-1 0 0 1 43 1)" fill="#3A3A3A"/>
<rect width="2" height="2" transform="matrix(-1 0 0 1 17 8)" fill="#3A3A3A"/>
<rect width="2" height="2" transform="matrix(-1 0 0 1 45 2)" fill="#3A3A3A"/>
<rect width="2" height="2" transform="matrix(-1 0 0 1 19 9)" fill="#3A3A3A"/>
<rect width="2" height="2" transform="matrix(-1 0 0 1 47 3)" fill="#3A3A3A"/>
<rect width="2" height="2" transform="matrix(-1 0 0 1 21 10)" fill="#3A3A3A"/>
<rect width="2" height="2" transform="matrix(-1 0 0 1 49 4)" fill="#3A3A3A"/>
<rect width="2" height="2" transform="matrix(-1 0 0 1 22 11)" fill="#3A3A3A"/>
<rect width="2" height="2" transform="matrix(-1 0 0 1 50 5)" fill="#3A3A3A"/>
<rect width="2" height="2" transform="matrix(-1 0 0 1 23 13)" fill="#3A3A3A"/>
<rect width="2" height="2" transform="matrix(-1 0 0 1 51 7)" fill="#3A3A3A"/>
<rect width="6" height="2" transform="matrix(-1 0 0 1 17 38)" fill="#3A3A3A"/>
<rect width="6" height="2" transform="matrix(-1 0 0 1 45 32)" fill="#3A3A3A"/>
<rect width="2" height="14" transform="matrix(-1 0 0 1 16 38)" fill="#3A3A3A"/>
<rect width="2" height="14" transform="matrix(-1 0 0 1 44 32)" fill="#3A3A3A"/>
<rect width="2" height="2" transform="matrix(-1 0 0 1 18 37)" fill="#3A3A3A"/>
<rect width="2" height="2" transform="matrix(-1 0 0 1 46 31)" fill="#3A3A3A"/>
<rect width="2" height="2" transform="matrix(-1 0 0 1 6 32)" fill="#3A3A3A"/>
<rect width="2" height="2" transform="matrix(-1 0 0 1 34 26)" fill="#3A3A3A"/>
<rect width="2" height="2" transform="matrix(-1 0 0 1 7 34)" fill="#3A3A3A"/>
<rect width="2" height="2" transform="matrix(-1 0 0 1 35 28)" fill="#3A3A3A"/>
<rect width="2" height="2" transform="matrix(-1 0 0 1 8 36)" fill="#3A3A3A"/>
<rect width="2" height="2" transform="matrix(-1 0 0 1 36 30)" fill="#3A3A3A"/>
<rect width="2" height="2" transform="matrix(-1 0 0 1 14 53)" fill="#3A3A3A"/>
<rect width="2" height="2" transform="matrix(-1 0 0 1 42 47)" fill="#3A3A3A"/>
<rect width="2" height="2" transform="matrix(-1 0 0 1 15 52)" fill="#3A3A3A"/>
<rect width="2" height="2" transform="matrix(-1 0 0 1 43 46)" fill="#3A3A3A"/>
<rect width="2" height="2" transform="matrix(-1 0 0 1 13 52)" fill="#3A3A3A"/>
<rect width="2" height="2" transform="matrix(-1 0 0 1 41 46)" fill="#3A3A3A"/>
<rect width="2" height="12" transform="matrix(-1 0 0 1 12 40)" fill="#3A3A3A"/>
<rect width="2" height="12" transform="matrix(-1 0 0 1 40 34)" fill="#3A3A3A"/>
<rect width="2" height="2" transform="matrix(-1 0 0 1 10 37)" fill="#3A3A3A"/>
<rect width="2" height="2" transform="matrix(-1 0 0 1 38 31)" fill="#3A3A3A"/>
<rect width="2" height="2" transform="matrix(-1 0 0 1 11 38)" fill="#3A3A3A"/>
<rect width="2" height="2" transform="matrix(-1 0 0 1 39 32)" fill="#3A3A3A"/>
<rect width="2" height="2" transform="matrix(-1 0 0 1 20 36)" fill="#3A3A3A"/>
<rect width="2" height="2" transform="matrix(-1 0 0 1 48 30)" fill="#3A3A3A"/>
<rect width="2" height="2" transform="matrix(-1 0 0 1 22 35)" fill="#3A3A3A"/>
<rect width="2" height="2" transform="matrix(-1 0 0 1 50 29)" fill="#3A3A3A"/>
<rect width="2" height="2" transform="matrix(-1 0 0 1 23 33)" fill="#3A3A3A"/>
<rect width="2" height="2" transform="matrix(-1 0 0 1 51 27)" fill="#3A3A3A"/>
<rect width="2" height="2" transform="matrix(-1 0 0 1 23 32)" fill="#3A3A3A"/>
<rect width="2" height="2" transform="matrix(-1 0 0 1 51 26)" fill="#3A3A3A"/>
<rect width="2" height="17" transform="matrix(-1 0 0 1 24 15)" fill="#3A3A3A"/>
<rect width="2" height="17" transform="matrix(-1 0 0 1 52 9)" fill="#3A3A3A"/>
<rect width="2" height="2" transform="matrix(-1 0 0 1 13 7)" fill="#3A3A3A"/>
<rect width="2" height="2" transform="matrix(-1 0 0 1 41 1)" fill="#3A3A3A"/>
<rect width="2" height="2" transform="matrix(-1 0 0 1 11 8)" fill="#3A3A3A"/>
<rect width="2" height="2" transform="matrix(-1 0 0 1 39 2)" fill="#3A3A3A"/>
<rect width="2" height="2" transform="matrix(-1 0 0 1 9 9)" fill="#3A3A3A"/>
<rect width="2" height="2" transform="matrix(-1 0 0 1 37 3)" fill="#3A3A3A"/>
<rect width="2" height="2" transform="matrix(-1 0 0 1 7 10)" fill="#3A3A3A"/>
<rect width="2" height="2" transform="matrix(-1 0 0 1 35 4)" fill="#3A3A3A"/>
<rect width="2" height="2" transform="matrix(-1 0 0 1 6 12)" fill="#3A3A3A"/>
<rect width="2" height="2" transform="matrix(-1 0 0 1 34 6)" fill="#3A3A3A"/>
<rect width="2" height="18" transform="matrix(-1 0 0 1 5 14)" fill="#3A3A3A"/>
<rect width="2" height="18" transform="matrix(-1 0 0 1 33 8)" fill="#3A3A3A"/>
<rect x="9" y="17" width="2" height="4" fill="#3A3A3A"/>
<rect x="37" y="11" width="2" height="4" fill="#3A3A3A"/>
<rect x="15" y="17" width="2" height="4" fill="#3A3A3A"/>
<rect x="43" y="11" width="2" height="4" fill="#3A3A3A"/>
</svg>
