<svg width="50" height="39" viewBox="0 0 50 39" fill="none" xmlns="http://www.w3.org/2000/svg">
<path fill-rule="evenodd" clip-rule="evenodd" d="M25.529 9.02526C28.3687 7.64186 29.7454 4.09059 32.7261 3.04472C36.8414 1.60071 45.4109 -2.37528 45.6022 1.98183C45.8807 8.32534 32.116 9.97756 33.3044 16.215C34.4382 22.1663 46.6758 18.2596 49.7032 23.5073C51.5355 26.6833 44.3884 28.3634 41.826 30.9861C39.5193 33.3472 38.4643 39.1669 35.2905 38.2598C30.287 36.8296 30.1531 28.715 25.529 26.3279C23.4206 25.2394 22.0251 30.2928 19.6546 30.1879C17.6672 30.0999 16.0535 27.8317 15.623 25.8894C15.1641 23.819 18.9493 21.2618 17.364 19.8533C12.6309 15.648 2.90428 17.9565 0.233275 12.2161C-1.5214 8.44504 7.06595 7.22472 11.168 6.53722C14.5431 5.97157 17.6951 8.14025 21.0671 8.72444C22.5545 8.98214 24.1718 9.68639 25.529 9.02526Z" fill="url(#paint0_linear_4_35)"/>
<defs>
<linearGradient id="paint0_linear_4_35" x1="25" y1="0" x2="25" y2="38.3549" gradientUnits="userSpaceOnUse">
<stop stop-color="#C0C0C0"/>
<stop offset="1" stop-color="#DDDDDD"/>
</linearGradient>
</defs>
</svg>
