<svg width="50" height="50" viewBox="0 0 50 50" fill="none" xmlns="http://www.w3.org/2000/svg">
<path fill-rule="evenodd" clip-rule="evenodd" d="M26.97 1.97545C29.9679 3.74847 30.0487 8.5419 33.0818 10.2555C35.6886 11.7282 39.7492 8.47987 41.9869 10.4594C44.1066 12.3344 41.4403 16.2594 42.7129 18.7749C44.2897 21.8917 49.497 22.7709 49.9631 26.2256C50.3832 29.3388 47.1228 31.8937 44.767 33.9993C42.6449 35.8961 38.8993 35.4527 37.1423 37.6851C34.4734 41.0761 36.3758 47.6362 32.5023 49.5822C29.175 51.2539 25.2032 47.5305 22.4028 45.0903C19.9142 42.9218 18.9729 39.5806 17.5981 36.5952C16.6699 34.5796 17.4429 31.5899 15.604 30.3263C11.8636 27.7562 5.91615 29.5479 2.69987 26.3583C-0.00925423 23.6717 -0.525265 18.9821 0.468812 15.317C1.45868 11.6675 5.19705 9.50994 7.97352 6.91485C10.5974 4.46236 12.9328 1.3118 16.4241 0.403999C19.9003 -0.499852 23.885 0.15101 26.97 1.97545Z" fill="url(#paint0_linear_6_106)"/>
<defs>
<linearGradient id="paint0_linear_6_106" x1="25" y1="0" x2="25" y2="50" gradientUnits="userSpaceOnUse">
<stop stop-color="#C0C0C0"/>
<stop offset="1" stop-color="#DDDDDD"/>
</linearGradient>
</defs>
</svg>
