<svg width="50" height="44" viewBox="0 0 50 44" fill="none" xmlns="http://www.w3.org/2000/svg">
<path fill-rule="evenodd" clip-rule="evenodd" d="M25.5987 8.6366C26.8053 9.56623 28.3242 10.7076 29.7925 10.3021C35.4098 8.75052 39.7419 2.24438 45.5004 3.13955C49.2497 3.72239 49.885 9.64972 49.9942 13.4425C50.1008 17.1419 48.7253 21.0873 46.0924 23.6882C43.5143 26.235 38.2195 24.4403 35.9786 27.2883C33.7142 30.1662 37.6753 35.8314 34.7769 38.0695C32.2157 40.0472 28.764 34.6311 25.5987 35.3034C21.1988 36.2379 17.4675 45.6346 14.3288 42.4127C10.4551 38.4361 17.0755 31.6703 16.6664 26.1339C16.5245 24.2142 14.3336 23.1114 12.815 21.9284C8.68964 18.7145 -0.621631 18.3638 0.0327878 13.1754C0.650816 8.27546 10.462 13.1006 14.3177 10.0144C17.0091 7.86015 13.0355 0.44659 16.4574 0.0286515C20.6647 -0.485207 22.241 6.04983 25.5987 8.6366Z" fill="url(#paint0_linear_4_16)"/>
<defs>
<linearGradient id="paint0_linear_4_16" x1="25" y1="0" x2="25" y2="43.0826" gradientUnits="userSpaceOnUse">
<stop stop-color="#C0C0C0"/>
<stop offset="1" stop-color="#DDDDDD"/>
</linearGradient>
</defs>
</svg>
